<svg xmlns="http://www.w3.org/2000/svg" viewBox="0 0 1080 1080"><path d="M0,710.1V694.58c2.29-1.89,5-1.19,7.45-.91,15.37,1.7,30.46,4.66,45,10.06,3.46,1.28,4.21,1.68,5.94-2.29,1.39-3.2,4.38-4.72,7.7-5.46,1.42-.31,2.46-.66,2.43-2.54-.25-14.18,2.47-28,5.8-41.64,2.4-9.87,4.67-19.78,7.93-28.48a111.2,111.2,0,0,1-4.59,12,129.21,129.21,0,0,0-9.16,29.23,68.48,68.48,0,0,1-4.29,13.84c-2.8,6.54-8.58,7.22-13.7,2.23-9.6-9.35-12.2-21.09-12.55-33.81-.44-16.16,2.78-31.8,6.82-47.27,8.89-34,21.85-66.41,36.9-98.08,5.8-12.2,11.94-24.21,18-35.76-5.6,5.11-11.56,10.46-17.41,15.93q-14.41,13.49-27.9,27.9c-17.18,18.23-32,38.27-46.38,58.75a71.68,71.68,0,0,1-4.7,5.74c-.86,1-1.68,2.22-3.34,1.71v-27c1.72-4.61,5-8.24,7.81-12.12a459.72,459.72,0,0,1,35.11-42.24c17.73-19,37.31-36,57-53,7.84-6.77,15.89-13.24,24.11-19.52a13.6,13.6,0,0,0,3.22-3.42c4.15-6.41,8.3-12.83,12.53-19.19,4.92-6.84,9.45-14,14.25-19.9-5.24,4-11.28,8.31-17.3,12.64a736.87,736.87,0,0,0-57.69,46c-24.22,21.39-46.6,44.56-65.72,70.72-3.65,5-7.15,10.09-10.44,15.33-.66,1-1.07,2.58-2.84,2.39V494.78a20.19,20.19,0,0,1,3.5-6.46c9.24-11.92,19.21-23.19,29.59-34.14,32.81-34.62,70.35-63.6,108.72-91.61,13.26-9.68,26.44-19.48,39.41-29.57a6.18,6.18,0,0,0,2.23-2.18c-6.52-.69-13-1.11-19.44-1.33-12.13-.41-24.28-.53-36.42.16-10.44.6-20.86,1.36-31.25,2.57-14.93,1.73-29.31,5.9-43.68,10-12.11,3.49-24,7.65-35.72,12.3C8.24,358-.26,356.13.68,343a89.72,89.72,0,0,1,5.25-24.31c2.22-6.11,7.35-9.87,12.37-13.47C32.62,295,48.87,289.14,65.85,285.13c15.27-3.6,30.82-4.91,46.47-5.65,8-.38,16-.81,23.93-.47,13.8.6,27.61,1.09,41.41,1.72,17.5.8,35.05,2,52.47-1.24a35.08,35.08,0,0,0,8.67-2.35c.38-1.72-.79-2.65-1.5-3.72-3-4.62-5.94-9.28-7.85-14.51a41.19,41.19,0,0,1-2.32-18.59c1.09-10.4,6.72-17.62,16.37-21.25a346.54,346.54,0,0,1,41.69-12.41c3.78-.91,7.71-1.27,11.83-2.64-3-5.22-4.42-10.62-5.72-16.05-2.44-10.14-3.75-20.35-2.08-30.76a58.87,58.87,0,0,0,.57-7.73c.17-6.54,4.12-12.67,11.81-13.17,3-.19,6-.46,9.08-.49,4.19,0,4.52-.32,5.45-4.34a222.28,222.28,0,0,0,3.91-25,151.13,151.13,0,0,1,8.69-37c1.74-4.55,4.49-8.1,8.93-10a39.7,39.7,0,0,0,11.92-8.63c8-7.94,17.74-13.49,28.15-17.6,24.5-9.67,49.76-16.45,76.08-18.68,5.81-.5,11.64-1,17.51-.91,15.75.14,31.5.31,47.25,0,21-.43,41.75,1.9,62.52,4.41,24,2.89,47.87,6.84,71.83,10.13,9.46,1.3,19,2,28.54,2.46a107.09,107.09,0,0,1,32,6.14c18.44,6.87,37.07,13.25,55,21.45a514.2,514.2,0,0,1,65.2,36.06c12.1,7.83,23.95,16,34.88,25.44a122.93,122.93,0,0,1,14.95,15.06c1.33,1.63,2.45,2.26,4.54,1.18,7.11-3.7,14.14-2.71,20.43,1.68,8.3,5.79,15.28,12.87,19,22.65,2.3,6,3.26,12,.34,18-1.48,3-.57,5.07,1.49,7.19a187.45,187.45,0,0,1,20.17,24.86c8.7,12.64,15.85,26.14,22.5,39.93,8.56,17.72,16.43,35.77,25,53.52,5.88,12.26,11.93,24.47,17.55,36.85,7.5,16.55,10.48,34.37,13.33,52.16,3.59,22.44,5.92,45,8,67.66,1.22,13.54,2.07,27.11,3,40.67,1.26,17.75,1.34,35.5,1.17,53.26-.13,13.63-1.37,27.19-4.86,40.42a144.41,144.41,0,0,0-4.39,33.7,91.13,91.13,0,0,0,1.56,19.13,166,166,0,0,1,2.79,21.73c.31,5.77-.33,11.46-3.14,16.69a20.08,20.08,0,0,1-10.44,9.63c-3.76,1.49-7.51,3-11.17,4.76a11.5,11.5,0,0,0-6.7,7.54,44.51,44.51,0,0,1-4,8.91,17.41,17.41,0,0,1-6.07,6.65c-5.51,3.5-10.71,7.45-15.92,11.38a55.37,55.37,0,0,1-9.48,5.81c-13,6.2-25.5,13.39-38.86,18.82-2.15.88-3.21,2.75-4.38,4.52-10.41,15.65-21.19,31-33.25,45.47-10.15,12.17-20.31,24.36-32.22,34.93a37.12,37.12,0,0,0-3.55,4.06c-17.37,20.76-33.3,42.54-45.73,66.65-11.26,21.83-19.78,44.64-22.34,69.29-.77,7.49-1.2,15-1.57,22.53a28.66,28.66,0,0,1-1.48,8.27c-.94,2.68-2.24,4.95-5.57,5-1.22,0-2,.9-2.9,1.6a123.68,123.68,0,0,0-9.9,8.66c-8.31,8.32-20.29,5.43-25.58-4.68a35.16,35.16,0,0,1-4.09-14.52,101.94,101.94,0,0,1,1.37-24.53,247.83,247.83,0,0,1,13.8-46.51,13,13,0,0,0,1.2-3.49c-.67-.33-1.08.17-1.49.47-31.75,22.71-63.85,45-93.8,70-18.78,15.73-35.57,33.43-48.16,54.71-2.74,4.65-5.37,9.37-7.72,14.23a7.17,7.17,0,0,1-3.2,3.78h-13.5c-1.23-1.63-.33-3.27.07-4.84,3.06-11.91,8.74-22.58,15.35-32.85,10.44-16.24,23.79-29.94,38-42.68,22.74-20.35,47.57-38.06,72.45-55.68,12.58-8.9,25.52-17.29,37.91-26.43,5.49-4,10.64-8.6,16.27-12.51a14.42,14.42,0,0,0,4.72-6c4.94-10.6,10.16-21.08,15.89-31.27,10.8-19.2,21.35-38.56,34.17-56.55a15.81,15.81,0,0,1,5.58-4.78,8.33,8.33,0,0,1,9.6,1.83,8.74,8.74,0,0,1,.94,9.76c-9.35,15.11-18.08,30.58-26.77,46.07-6.77,12.06-13.39,24.2-19.53,36.6-10.63,21.49-20.19,43.47-27.51,66.31-4,12.39-7.38,25-7.4,38.28,0,3.45-.77,6.9.55,10.72,4.67-3.37,9-6.92,13.27-10.48,1.27-1.05,1-2.69.84-4.13-2.62-21.67,2.09-42.21,9.13-62.5,6.48-18.71,15.45-36.21,25.78-53a331.73,331.73,0,0,1,29.48-40.65c9.61-11.31,19.23-22.61,28.56-34.15,3.24-4,6.76-7.83,10.18-11.71a8.64,8.64,0,0,1,3.74-2.81c4.56-1.36,7.19-4.87,9.7-8.48,4.17-6,8.09-12.18,12.23-18.2,1.69-2.46,1.66-4.34-.53-6.49a50.55,50.55,0,0,1-6.05-7.67,6.15,6.15,0,0,0-4.29-3c-5.39-.66-10.38-2.89-15.69-3.9-8.68-1.64-16.71-5.3-24.82-8.62-5.59-2.28-11.47-3.95-16.49-7.58-1.87-1.36-4.24-1.22-6.48-.28-4.47,1.88-8.77,1.67-12.78-1.26a7.86,7.86,0,0,0-2.76-1.22c-10.36-2.7-16.15-10.2-18.83-19.78-1.71-6.07-5.86-9-10.38-12.12-1.34-.92-2.27-.16-3.16.87-4,4.58-7.94,9.17-11.6,14-5.63,7.46-11.54,14.73-19.07,20.39-4.39,3.31-8.88,6.53-14.12,8.47a40.66,40.66,0,0,1-33-1.48,141.13,141.13,0,0,1-23.65-14.91c-4.13-3.13-4.15-3.1-7.45.89-1,1.22-1.87,2.53-2.89,3.73-.54.64-1.19,1.16-1.7,1.81-13.34,12.57-28.31,23-43.67,32.88-4.71,3-9.65,5.68-14.37,8.69-22.21,12.46-45.11,23.41-69.2,31.74a143.41,143.41,0,0,1-43.63,8,192.21,192.21,0,0,1-42.55-4c-1.5-.31-3-1-4.77-.17-.44,2.68.35,5.25,1,7.82.36,1.36,1.64,1.38,2.71,1.62,19.19,4.37,38.53,6.32,58.23,4.67a277.92,277.92,0,0,0,68-14.72c17.67-6.13,34.5-14.18,51.19-22.54,15.92-8.76,32.33-16.68,47.2-27.26,3.79-2.6,7.44-5.39,11.06-8.2,3-2.33,6.38-2.58,9.89-2.05a5.05,5.05,0,0,1,4.51,4.72,11.82,11.82,0,0,1-2.73,9.7c-1.51,1.82-3.25,3.39-4.87,5.08A137,137,0,0,1,664,786.66c-12.59,7.18-25.16,14.42-38.2,20.78a26.57,26.57,0,0,0-8.43,6.52c-5.84,6.6-13,11.8-20.16,16.79-20.65,14.28-42.51,26.55-64.55,38.51C518.25,877.08,503.81,884.88,489,892c-8,4.42-16.33,8-24.55,11.94-10.37,4.91-20.92,9.43-31.56,13.68a399.75,399.75,0,0,1-56.44,18.24,140.59,140.59,0,0,1-30.34,4.23,3,3,0,0,0-2.48,1c.43,3.48.26,7.27.66,11.32,4.79.09,9.29-.88,13.82-1.35,24.75-2.6,48.41-9.89,72.13-17,14.77-4.42,29.4-9.22,44-14.2,15.43-5.27,30.67-11.08,45.88-17,18.55-7.23,36.76-15.27,54.94-23.36,10.47-4.66,20.67-9.92,31.09-14.7a14.27,14.27,0,0,1,9.55-.83c3,.72,4.44,2.5,4.32,5.58-.2,4.81-1.72,8.88-6,11.76-9.71,6.44-20.34,11.08-30.71,16.22-13.2,6.56-26.86,12.12-40.43,17.84C527.09,922,511.08,928,495,933.85c-20.1,7.28-40.36,14.08-60.88,20.07-15.66,4.56-31.21,9.5-47.23,12.71-5,1-5,1.1-5,6.16s.21,10.27-.67,15.83a123,123,0,0,1,13.69-2.3c16.12-1.46,32.29-2.49,48.25-5.36,26.63-4.78,52.79-11.16,77.78-21.85,22-9.39,42.08-21.81,61.42-35.66,5.56-4,11-8.21,17.74-10.23,3.21-1,8.09.21,10.41,2.95,1.92,2.26,2,6.06.16,9.19a49.64,49.64,0,0,1-6.07,7.65c-9.88,10.76-21.58,19.33-33.31,27.89-21.72,15.84-43.55,31.52-63.86,49.2-13.88,12.08-26.06,25.74-37.47,40.12-2.73,3.44-5.42,6.9-8.23,10.27-.91,1.1-2.09,2.06-2.36,3.93,4.11,1.44,8.5,1.88,12.61,3.29,1.31.45,2-.78,2.63-1.7,5.36-8.43,12.22-15.59,19.51-22.28,14.58-13.38,29.36-26.51,45.42-38.14,25.42-18.42,51.36-36.06,78-52.66,18.61-11.59,37.47-22.77,56.16-34.22,4.09-2.51,8.46-2.94,13-2.33a6.75,6.75,0,0,1,5.56,9.26,18.63,18.63,0,0,1-8.33,10.24c-7,3.91-12.13,10-17.87,15.33-11.12,10.33-21.88,21.06-32.54,31.87-18.2,18.43-35.24,37.84-50.25,59a285.66,285.66,0,0,0-20.66,34.38,9.49,9.49,0,0,1-3,3.56H543.4c-1.25-1.73-.11-3.26.51-4.74a222.91,222.91,0,0,1,18.48-34,367.45,367.45,0,0,1,39.31-50.48c2-2.23,3.9-4.65,6.11-6.74a17.44,17.44,0,0,1,1.53-1.32c-23,15.17-46.08,30.3-68,47-16.9,12.86-33.3,26.37-48.14,41.65a81.07,81.07,0,0,1-9.86,8.66H446.19c-.09-.06-.18-.17-.28-.19-8.5-1.2-10.88-4.66-9.13-13.16a20.63,20.63,0,0,1,2.81-6.82c9.27-14.84,20.15-28.43,31.75-41.49a319.56,319.56,0,0,1,29.94-29.17,9.35,9.35,0,0,1,3-2.12,308.26,308.26,0,0,1-33.09,9.18q-17,3.79-34.22,6c-11.28,1.46-22.63,1.73-33.94,2.62-2.38.19-4.7-.45-7.06-.58-8.08-.46-16.16-.14-24.24,0a3.51,3.51,0,0,0-2.37.66c-.11,1.93.9,3.61,1.5,5.38,5.61,16.62,11.7,33.09,15.81,50.18a147.9,147.9,0,0,1,2.62,15.64c.17,1.31.53,2.7-.48,3.88H372.61c-1.42-1-1.74-2.52-1.94-4.12-1.37-11-4.44-21.53-7.87-32-4.44-13.55-8.8-27.13-13.87-40.46-1-3.11-2.16-6.15-3.36-9.17-1.38-3.47-3.47-4.3-6.6-2.53-12.45,7-25.86,11.5-39.65,14.94-13,3.24-25.86,6.87-39.18,8.56-8.12,1-15.6-2.56-19.24-10-3.26-6.66-5.8-13.65-9.05-20.33-4.72-9.7-9.35-19.45-14.58-28.89-1-1.75-1.93-3.56-4-4.82-2.58,1.65-3.79,4.59-5.92,6.66a367.66,367.66,0,0,1-28.94,32.79,79.26,79.26,0,0,0-10.68,13c-4.71,7.28-7.37,15.35-9.35,23.68a270.56,270.56,0,0,0-6.19,43.61c-.21,3,.22,6.33-1.71,9.1H133.66c-1.49-3.13-.6-6.44-.36-9.57,1.13-15.35,2.75-30.65,6.08-45.73,3.27-14.81,8.76-28.6,18.69-40.24,4.58-5.38,9.45-10.53,14.46-15.53,4.85-4.85,9.2-10.15,13.72-15.3a3.27,3.27,0,0,0,1-2c-3.28-1.57-7-1.56-10.55-2.37a181.06,181.06,0,0,0-22.36-3c-7.78-.42-13.33-3.72-16.81-10.89-3.2-6.62-5.3-13.61-7.75-20.48-3.4-9.52-6.8-19.05-9-28.93-.41-1.14-.3-2.45-1.12-3.68-2.56.83-4.42,2.64-6.32,4.26-14.54,12.42-30.15,23.43-45.58,34.68-9.36,6.83-19.37,11.53-31,13.08-10.91,1.46-21.69,3.8-32.56,5.58-1.4.23-2.86.86-4.2-.25V922.05c1.74-1.95,4.22-1.95,6.5-2.35,11.16-2,22.33-3.89,33.47-5.93a22.6,22.6,0,0,0,8.71-3.42c16.1-10.84,32-22,46.84-34.52,2.32-2,4.81-3.68,7.12-5.64,2.94-2.24,6.14-4.14,8.87-6.67-.25-1.61-1.69-1.79-2.67-2.36-12.17-7-24.59-13.64-36.78-20.64-5-2.86-9.73-6.08-14.48-9.29a27.12,27.12,0,0,1-4.26-3.82c-4.89-5.15-5.92-9.77-2.51-16,7.7-14,12.84-29.26,22.22-42.37a40.14,40.14,0,0,0,5.58-11.87,10.33,10.33,0,0,0-1.1-9.05,154,154,0,0,1-9.82-16.91c-2.25-4.7-5.51-7.84-10.89-8.35-14.15-3.52-28.09-7.89-42.6-9.83A86.34,86.34,0,0,0,4.85,712C3,712,1.27,711.63,0,710.1Z" transform="translate(0 0)" fill="#806b65"/><path d="M571.07,0H1080V1080H618.32c-.71-.85-.36-1.7.06-2.51a164.25,164.25,0,0,1,22.65-33c15.59-17.8,34-32.37,52.84-46.47,8-6,16-12,24.07-18,1.61-1.18,3.16-2.55,5.27-2.82,1.55,1.18,1.08,2.74.73,4.06-3.06,11.41-2.3,23.1-1.57,34.57.93,14.52,8.33,25.65,21.48,32.53.4.21-.13.06.3.14,9.24,1.69,18.48,3.25,27-2.62a46.56,46.56,0,0,0,6.27-5.12,34.56,34.56,0,0,1,10.53-7.09c7.32-3.26,10.45-9.87,12.18-17.24,1.48-6.27,1.63-12.73,1.89-19.11a163.11,163.11,0,0,1,13-56.9,265.23,265.23,0,0,1,20.15-38.52,321.82,321.82,0,0,1,32.62-43.79c8.54-9.53,17.74-18.51,26.33-28,6.55-7.25,12.54-15,18.51-22.76,7.83-10.16,15.17-20.67,22.34-31.3a12.39,12.39,0,0,1,4.93-4.46c11-5.31,21.92-11,32.94-16.36A125.7,125.7,0,0,0,993,742.39c3.51-2.63,7.17-5.06,10.67-7.7,4.49-3.38,8.29-7.48,10.2-12.75,2.2-6.08,5.93-10,12.14-12,10.52-3.33,17-11,21.2-20.83a27.87,27.87,0,0,0,1.89-7.15c1.79-12.18.55-24.2-1.81-36.19-1.31-6.62-1.3-13.33-1.21-20.11.17-12.87,3.57-25.1,5.91-37.56a161.53,161.53,0,0,0,2.6-30.2c0-10.68,0-21.37,0-32.06,0-16.53-1.41-33-2.45-49.47-1.27-20-3.53-39.86-5.8-59.73-2.67-23.45-5.92-46.88-13-69.52-2.81-8.91-7-17.28-11.1-25.66-4.67-9.47-9.17-19-13.61-28.62-4.62-10-9.38-19.94-13.92-30-5.59-12.41-11.51-24.65-17.87-36.68a231.18,231.18,0,0,0-28.59-42.43c-2.69-3.14-4.15-6.08-3.81-10.53,1.07-13.93-4.32-25.69-13.7-35.72a126.49,126.49,0,0,0-10.16-9.89c-6.48-5.55-13.84-8.88-22.51-8.28-5.19.37-9.07-1.24-12.91-4.93-17.47-16.77-37.73-29.79-58.32-42.32A537,537,0,0,0,779.3,46.44a361.26,361.26,0,0,0-35-14.23c-11.65-4.14-22.93-9.33-34.94-12.47a136.34,136.34,0,0,0-25.29-3.8c-10.42-.73-20.84-1.47-31.2-3C627.42,9.28,602,5.17,576.41,2.33,574.52,2.12,572,2.7,571.07,0Z" transform="translate(0 0)" fill="#f1d7cf"/><path d="M0,299V0H435.39c-.25,2-2,2-3.29,2.18-16.47,2.7-32.44,7.3-48.21,12.64-13.81,4.67-26.94,10.71-38.6,19.62a17.39,17.39,0,0,0-2.52,2.24c-4.13,4.74-9.3,8-14.7,11.09-6.49,3.75-10.82,9.55-13.54,16.66-6.35,16.56-8.81,33.9-10.82,51.34-.51,4.42-.92,5.18-5.15,5.68-13.18,1.57-23.49,14.16-23.51,26.74,0,7.13-1.18,14.3-1.16,21.51a74.12,74.12,0,0,0,1.8,17.05c1.29,5.41.78,6.26-4.42,7.83-9.37,2.81-18.79,5.48-28.09,8.51-12,3.9-21.72,10.68-27.42,22.37a22.39,22.39,0,0,0-2.49,7.31c-1,8.82-1.89,17.62.58,26.41,1.6,5.73.88,6.56-5.07,7.44-8.43,1.26-16.81-.47-25.21-.46-1,0-2-.27-3-.29-22-.33-44-2.05-66.05-1.38-22.2.68-44.18,2.93-65.5,9.58A142.39,142.39,0,0,0,8.75,293.45c-1.57,1.11-2.83,2.58-4.31,3.77C3.15,298.24,2,299.63,0,299Z" transform="translate(0 0)" fill="#f1d7cf"/><path d="M559.6,1080c5.87-10.28,11.31-20.84,17.74-30.77s13.59-19.14,20.72-28.47a195.7,195.7,0,0,1,13.67-16.08q20.64-21.7,41.67-43c7.88-7.95,16.15-15.53,24.44-23.07,3-2.75,6.84-4.62,9.81-7.41,1.8-1.68,2.94-4.25,3.88-6.61,1.29-3.22-1.65-6.77-5.4-7.26-5.69-.74-10.43,1.34-15.13,4.25-12.94,8-26,15.73-39,23.72-10.87,6.71-21.65,13.57-32.4,20.48-8.66,5.56-17.31,11.16-25.79,17-9.51,6.53-18.85,13.29-28.21,20-5.62,4.05-11.25,8.1-16.66,12.42q-10.42,8.34-20.48,17.15c-6.22,5.46-12.47,11-18.2,16.92-6.09,6.34-11.59,13.26-17.34,19.92l-16.28-4.11c2.58-3.25,4.92-6.29,7.36-9.25,7.54-9.14,14.77-18.56,22.78-27.27a276.24,276.24,0,0,1,21.4-20.35c7.4-6.5,15.05-12.74,22.87-18.73,13.05-10,26.26-19.76,39.53-29.46,12-8.73,23.85-17.51,33.87-28.51a48.48,48.48,0,0,0,5.54-7.17c1.57-2.56,1.65-5.49-.48-7.84s-6.65-3-9.13-2.09c-13.93,5.33-24.35,16.21-37.1,23.4-10.91,6.15-21.53,13-32.88,18.17a277.2,277.2,0,0,1-38.61,14.63A484.62,484.62,0,0,1,442.07,982c-14.16,2.51-28.64,3.23-42.95,5-5.87.71-11.65,2-17.48,3.08a6.45,6.45,0,0,1-1.32,0c.14-7.12.34-14.13.36-21.14,0-2.11,1.35-2.31,2.76-2.64,6.77-1.59,13.62-2.88,20.29-4.8,16.93-4.86,33.88-9.72,50.65-15.11,18.06-5.8,36-12,53.85-18.42,10.11-3.62,19.95-8,29.93-12,22.5-9,44.59-18.9,66.1-30.08a117.59,117.59,0,0,0,10.88-6.65c2.57-1.72,4.93-9,3.61-11.68a6.15,6.15,0,0,0-3.6-2.56c-4-1.18-7.7.36-11.26,2-7.81,3.66-15.52,7.56-23.39,11.07-15.72,7-31.38,14.23-47.34,20.69-18.59,7.54-37.39,14.6-56.26,21.43-13.37,4.84-26.89,9.38-40.56,13.28q-31.18,8.9-62.71,16.59c-7.55,1.85-15.49,2.09-23.25,3.09-2.32.29-4.63.65-7.11,1-.35-4.56-.76-9-.9-13.42,0-.57,1.42-1.68,2.19-1.69,17.7-.17,34.58-4.54,51.34-9.7,14.65-4.51,29.15-9.34,43.13-15.69,10.37-4.71,20.89-9.1,31.27-13.78,6.21-2.8,12.3-5.87,18.44-8.82,4.89-1,9.71-2.4,14.59-3.52,10.06-2.32,20-5.27,30-7.86,4.57-1.19,9-2.89,13.47-4.33a621.68,621.68,0,0,0,74.89-29.58c15.36-7.24,30.31-15.24,45.16-23.46,11.3-6.26,22.29-13,33.14-20,3.07-2,5.64-3,8.69-.13,1.57,1.5,3.67,1.56,5.72.85a25.25,25.25,0,0,0,3.8-1.38c3.19-1.76,6-1.7,9,.69,2.19,1.77,4.84,1.49,7.28,0a20.76,20.76,0,0,0,7.22-6.47,29.16,29.16,0,0,1,4-5c3.06-3.06,5.06-6.57,5.25-11,.08-1.82,1.19-3.07,2.41-4.29,3.83-3.85,3.94-5.62.48-9.65-1.46-1.7-1-3.1.35-4.42,1.91-1.91,4.07-3.55,6.11-5.31,9-7.77,17.86-15.76,26.1-24.39.91-.95,2.11-1.72,2.37-3.45-3.22-3.41-7.15-6.24-10.63-9.56-.88-.84-1.85-.51-2.81,0a18.54,18.54,0,0,0-5.74,4.08c-5.79,6.32-12.35,11.82-18.79,17.41-7.56,6.56-16.73,9.91-26.58,11.46-6.47,1-12.92,2.1-19.29-.38-4.29-1.68-8.72-3.09-12.77-5.27-3.81-2-7.91-3.18-11.86-4.78a54.06,54.06,0,0,1-13.79-7.69c-1.31-1.05-2.68-2.09-3-3.93,2.1-2.86,4.19-5.72,6.59-9,2,1.37,3.69,2.7,5.53,3.88,7.63,4.87,15,10.32,23,14.41,14,7.15,27.77,5.63,41.07-3,11.11-7.18,18.88-17.38,26.86-27.49,3.47-4.4,7.16-8.62,11-13.26,5.26,4.21,11.28,6.74,13.3,14.77,2.31,9.18,8.22,16.6,18.49,18.88a6.52,6.52,0,0,1,2.69,1.21c3.52,3,7.4,3,11.32,1.25,3.61-1.62,6.55-.92,9.67,1.31a33,33,0,0,0,7.71,3.87c12.16,4.54,23.92,10.26,36.89,12.46a68,68,0,0,1,10.68,2.72,11.11,11.11,0,0,1,4.39,3.21,110,110,0,0,1,7.54,9.43c.65.92,1,2.87.46,3.68q-8.62,13.05-17.69,25.82c-.93,1.31-2.94,1.81-4.35,2.82-2.26,1.61-4.78,3-6.59,5.06-6.23,7-12.23,14.25-18.24,21.47s-11.78,14.87-18.1,21.92a270.91,270.91,0,0,0-28.6,39c-6.74,11-12.76,22.42-18.55,33.94a141,141,0,0,0-9.37,23c-3.35,11.25-6.47,22.69-8.12,34.28-1.3,9.1-.22,18.53-.26,27.82,0,1-.13,2.44-.77,3-5.1,4.14-10.34,8.1-15.91,12.41-1.19-11.53-.08-22.3,2.16-33.07,3.85-18.46,10.52-36,18-53.15q10.54-24.16,22.78-47.59c8.64-16.58,18.12-32.73,27.35-49,3.64-6.42,7.63-12.64,11.41-19,1.1-1.85.11-6.61-1.6-8.22-2-1.92-6.58-2.71-8.43-1-3,2.81-6,5.7-8.19,9.1q-9.68,15.16-18.61,30.78c-7.73,13.49-15.16,27.15-22.66,40.77a62.51,62.51,0,0,0-3.09,6.7,29.3,29.3,0,0,1-12.13,14.7c-5.21,3.19-9.66,7.6-14.67,11.15-10,7.07-20.16,13.85-30.16,20.89-11.88,8.37-23.9,16.58-35.42,25.43q-20.91,16.07-41,33.15a210.68,210.68,0,0,0-34.12,36.55c-9.49,13.08-17.3,27.17-20.56,43.31Z" transform="translate(0 0)" fill="#9d7d72"/><path d="M0,299c6.12-4.31,11.94-9.16,18.45-12.79A171.58,171.58,0,0,1,42.18,275.3a168.54,168.54,0,0,1,53.15-10.71c16.48-.59,33-1.21,49.47-1.26,12.32,0,24.66.8,37,1.34,7.39.32,14.76,1,22.15,1.16,3.18.08,6.38-.71,10-1.16-.42-1.73-.64-3-1.05-4.25-2.83-8.54-2.15-17.28-1.07-25.93,1.43-11.42,8.07-19.65,17.28-26.09,6.18-4.31,13.27-6.41,20.34-8.55q11.9-3.58,23.82-7.08c1.71-.5,2.38-1.27,1.81-3.17-3.1-10.41-3-21.16-2.13-31.75.61-7.26.06-14.93,3.61-21.72,4.78-9.15,12.11-14.92,22.61-15.89,2.5-.24,3.06-1.19,3.32-3.51,1.89-17.16,4.1-34.22,10.18-50.6,2.44-6.54,5.55-12.27,10.87-16.61,2.92-2.38,6.38-4.08,9.59-6.11a16,16,0,0,0,3.28-2.22C347.86,29.09,362,21.31,377.57,16c11.14-3.77,22.33-7.49,33.65-10.68,7.41-2.08,15.1-3.17,22.66-4.73A8.61,8.61,0,0,0,435.39,0H571.07c3.94.66,7.87,1.42,11.83,2,10.32,1.41,20.65,2.67,31,4.11,12.53,1.74,25,3.86,37.55,5.33s25,2.16,37.46,3.5a132.09,132.09,0,0,1,35.49,8.5c13.74,5.52,27.81,10.22,41.49,15.87,10,4.14,19.78,9,29.46,14,9.08,4.62,18.16,9.32,26.8,14.68,13.9,8.63,27.74,17.43,41,26.94,9.18,6.57,17.37,14.51,26.12,21.69A7.25,7.25,0,0,0,893.8,118c7.77-.3,15.3.35,22,4.77a71.88,71.88,0,0,1,6.42,4.84c10,8.37,18.36,18,21.83,30.84a42.64,42.64,0,0,1,1.42,15.26c-.44,4.09,1.09,6.53,3.36,9.12a197.85,197.85,0,0,1,25.91,37.56c5.89,11.08,11.75,22.18,17.16,33.49,6.53,13.66,12.45,27.61,18.85,41.33,4.49,9.63,9.37,19.07,14,28.63,6.74,13.87,12.26,28.15,14.84,43.46,2.07,12.26,4.52,24.45,6.37,36.73,1.37,9.07,2.06,18.24,3,27.37s2,18,2.84,27.05c.69,7,1.33,14,1.82,21.09,1.63,23.64,2.29,47.31,2.2,71-.07,17.58-1.58,34.88-5.67,52-1.63,6.8-1.58,14-2.64,20.94-1.83,12.05,1.85,23.56,3,35.32,1.38,14.37,1.71,28.74-8.2,41.09a36.68,36.68,0,0,1-17.89,12c-4.71,1.53-7.18,4.56-8.77,8.83A31.64,31.64,0,0,1,1003.9,736C995,742.18,986.36,748.92,977,754.3c-11.48,6.56-23.66,11.89-35.45,17.92a16.18,16.18,0,0,0-5.49,4.56c-10.56,14.21-20.39,29-31.57,42.7C894,832.28,882,843.83,871,856.16c-5.46,6.08-10.38,12.65-15.54,19a279.45,279.45,0,0,0-31.26,48.18c-9.45,18.28-16.87,37.45-19.53,58.06-1.09,8.43-1.43,17-2.08,25.44-.73,9.55-2.26,18.78-10.06,25.52a9.75,9.75,0,0,1-3.32,2.21c-5,1.41-8.41,4.77-12.06,8.14-5.42,5-11.41,9.22-19.49,8.31a25.92,25.92,0,0,0-5.06,0c-7.89.66-13.56-3.43-18.93-8.48-9.6-9-13-20.36-12.79-33.16.14-10.51-.75-21.08,2.08-31.68-9.93,7.46-19.92,14.86-29.79,22.4-9,6.87-18.18,13.52-26.7,20.94-12.34,10.74-24.18,22.11-33.47,35.72-5.16,7.56-9.8,15.48-14.67,23.23H598.75c6.33-13.56,13.81-26.51,23.24-38.07a290.83,290.83,0,0,1,24.87-26.37c7.52-7.18,15.78-13.63,23.95-20.09,10.4-8.21,21-16.21,31.59-24.14,10-7.47,20.14-14.77,30.26-22.07,7.32-5.29,14.72-10.47,22.76-15.44-.47,1.43-.84,2.91-1.41,4.3-7,16.9-12.53,34.33-15.34,52.41-1.64,10.49-2.14,21.22,1.74,31.64,2,5.47,5.5,9.9,10.69,11.54A13.35,13.35,0,0,0,765,1030.3c3.76-3.79,7.93-7.18,12-10.69.54-.47,1.57-1.11,2-.9,2.91,1.54,3.6-.59,4.14-2.52a41.76,41.76,0,0,0,1.91-9c.9-20.63,3.09-41,10.23-60.59A274.42,274.42,0,0,1,820.38,895a386.59,386.59,0,0,1,32.21-44.14c2.92-3.46,6.15-6.64,9.23-10,5.47-5.89,11-11.71,16.36-17.72s10.6-12,15.5-18.28c7.39-9.51,14.47-19.26,21.6-29,3.19-4.36,6.32-8.78,9.19-13.35a12.54,12.54,0,0,1,5.79-4.77c15.12-7.32,30.2-14.78,44.94-22.84a122.19,122.19,0,0,0,19.65-13.92,19.63,19.63,0,0,0,6.12-10c2.08-9.26,9-12.57,16.65-15,8.28-2.69,14.07-7.86,15.38-16.37,1-6.36.54-13,0-19.5-.62-8-2.25-16-2.86-24a104.41,104.41,0,0,1,0-19c.86-8.09,2.78-16.07,4-24.13,1.45-9.38,3.25-18.77,3.81-28.21.8-13.31.94-26.69.72-40-.23-13.15-1.17-26.3-2-39.43-.5-8.21-1.2-16.41-2-24.59-1-9.92-2.21-19.82-3.31-29.73-.92-8.37-1.6-16.78-2.78-25.11-1.41-9.94-3-19.87-5-29.71-2.33-11.63-4.89-23.25-9.83-34.16-1.18-2.61-2.41-5.2-3.64-7.79-8.76-18.45-17.58-36.87-26.29-55.35-5.18-11-10-22.1-15.32-33a263.31,263.31,0,0,0-25.83-43.1c-3.87-5.14-8.32-9.85-12.53-14.74-1.81-2.11-3.68-4.16-5.6-6.33,5.23-7.56,4.51-15.16.85-23.11-4.32-9.38-11.3-16.21-19.91-21.32a17.1,17.1,0,0,0-19.47.87c-7.65-7.08-14.77-14.56-22.79-20.9-10.72-8.46-21.89-16.44-33.35-23.9-11.16-7.26-22.8-13.85-34.48-20.27-9.68-5.32-19.55-10.37-29.65-14.8-11.87-5.22-24-9.81-36.18-14.36C720.87,40.66,712,37.33,702.84,35c-7.45-1.88-15.27-2.39-23-3.26-10.79-1.23-21.62-2.13-32.41-3.39-8.22-1-16.41-2.22-24.61-3.42-7.1-1-14.17-2.27-21.27-3.25-6-.83-12.1-1.39-18.14-2.15-6.58-.83-13.14-1.82-19.72-2.6a148.08,148.08,0,0,0-15.26-1.37c-28-.35-55.94-.89-83.89-.54-10.78.13-21.56,2.23-32.3,3.77C416.76,21,401.93,26,387.09,30.9a117.75,117.75,0,0,0-33.3,17.35,22.63,22.63,0,0,0-2.88,2.83c-3.66,3.93-7.54,7.43-12.72,9.41-4.38,1.66-6.83,5.18-8.46,9.61a158,158,0,0,0-8.53,37.25c-1,9-3.06,17.79-4.5,26.7-.38,2.37-1.46,3-3.76,3-4.34,0-8.69.32-13,.64s-8.52,4.95-8.93,10.11c-.59,7.21-1.5,14.46-1.26,21.66a95.6,95.6,0,0,0,6.34,30.28c.62,1.66,2.07,3,3.5,5-4.67,1.07-8.91,1.89-13.06,3-11.14,3-22.31,5.89-33.32,9.29a78.46,78.46,0,0,0-15.34,6.58c-6.77,3.82-9.06,10.61-9.66,17.93-1.16,14,5.34,25.16,13.93,36.37-5.67,1.23-10.9,2.9-16.24,3.39-9.55.87-19.16,1.4-28.75,1.36-11.84,0-23.68-.81-35.51-1.27-5-.2-10-.44-15.07-.65-5.8-.23-11.63-.86-17.41-.59q-21.36,1-42.68,2.65c-12.47,1-24.53,4.12-36.41,8a124.59,124.59,0,0,0-32.71,16.33C9.66,312.53,5.47,320,4,329.18c-.63,4-2,7.94-2.36,12a23.15,23.15,0,0,0,1,9.37c1.6,4.53,7.54,5.58,12.78,3.65,13.18-4.86,26.4-9.68,39.81-13.84,10.16-3.15,20.59-5.56,31-7.71,6.81-1.4,13.85-1.67,20.77-2.55,15.79-2,31.66-2.28,47.54-2,10.6.22,21.2.92,32.7,1.44-3.25,2.65-5.92,5-8.76,7.12-22.41,16.65-45,33.1-67.22,49.93-10.24,7.75-20.12,16-29.84,24.42-11.55,10-22.87,20.25-34,30.64a276.72,276.72,0,0,0-19.86,19.94C18.1,472.39,9.17,483.69,0,494.78v-29c3.75-6.36,9.22-11.29,14.12-16.67,10.15-11.13,21-21.6,31.92-32,10-9.45,20.63-18.08,31.14-26.9,17.5-14.69,35.92-28.16,54.35-41.65a5.35,5.35,0,0,0,1.76-1.65,61.42,61.42,0,0,0-10-.1c-33.69,1.94-65.81,10.58-97,23-7,2.79-14.1,4.54-21.7,3.19-1.8-.32-3.59-.55-4.53-2.42Z" transform="translate(0 0)" fill="#fefefe"/><path d="M121.53,885.54c2.7,8.5,5.21,17.06,8.16,25.48s6.14,16.57,9.47,24.75c2.49,6.09,7.63,8.55,13.9,9.25,7.82.87,15.63,1.88,23.44,2.86.16,0,.3.3.45.46.15,1.88-1.29,2.75-2.43,3.79a198.69,198.69,0,0,0-37.75,46.76,41.49,41.49,0,0,0-3.84,9.34c-2.46,8.28-6,16.26-7.19,24.91a14,14,0,0,0,1.09,8.53,7.23,7.23,0,0,1,.52,5.55,193.37,193.37,0,0,0-5.45,27.09c-.28,2-.2,4.09-1.75,5.69H77.63c-5.32-1.72-8.91-5.91-13.09-9.23-7.62-6.07-13.54-13.72-19.6-21.25a8.26,8.26,0,0,1-1.51-3.33c-2.2-9.11-8.68-13.71-18.13-12.67a5.91,5.91,0,0,1-5.86-2.4c-6-7.72-11.45-15.86-18.15-23-.61-.66-.71-1.64-1.29-2.35v-51.3c1.35-1.39,3.11-1.13,4.77-1.13,8.09,0,16.17.06,24.21-1.33,14.15-2.45,26.64-8.15,36.63-18.6,8.68-9.08,18.75-16.46,28.7-24,8.74-6.59,17.08-13.56,24.23-21.89C119.34,886.59,120.13,885.59,121.53,885.54Z" transform="translate(0 0)" fill="#f6dee8"/><path d="M349.7,1003c2,5.3,4.22,10.53,6,15.91,4.36,13.12,8.76,26.24,12.68,39.5,1.76,5.94,2.4,12.2,3.56,18.31.2,1.1.44,2.18.66,3.27H150.53c1.1-11.33,1.77-22.72,3.43-34a279.82,279.82,0,0,1,6.1-28.43c2.48-9.64,8.09-17.65,14.74-24.91,4.77-5.21,9.86-10.13,14.57-15.4,5.88-6.58,11.52-13.38,17.27-20.09,2.54.36,3.32,2.52,4.11,4.39a367.18,367.18,0,0,1,13.69,39.1,14.4,14.4,0,0,1,.27,5.35c-.33,4.06,1.53,6.89,4.93,8.85a21.24,21.24,0,0,0,5.19,2.4c12.87,3.27,25.76,6.09,39.23,4.39,10.36-1.31,20.74-2.43,30.87-5.08a72.93,72.93,0,0,0,27.38-14c2.63-2.12,5.25-3,8.36-1.9C343.62,1001.75,347,1001.14,349.7,1003Z" transform="translate(0 0)" fill="#e8a884"/><path d="M103.36,870.8c-5.13,4.29-10.08,8.8-15.42,12.8C76.42,892.21,64.61,900.43,53.1,909c-6.45,4.82-13.93,6.21-21.51,7.52L0,922.05V710.1c10.24,1.58,20.57,2.74,30.7,4.85,9,1.88,17.81,4.82,26.7,7.3-1.26,6.44,2.17,11.74,4.26,17.36a73,73,0,0,1,3.13,10.32c.76,3.59.81,7.12-1,10.52a12.6,12.6,0,0,0-1.23,6.23,28.62,28.62,0,0,1-4.35,15.69q-9.12,15.57-16.79,31.93a64.67,64.67,0,0,0-4.09,12.11,9.4,9.4,0,0,0,5.13,11c18.06,7.93,34.38,19.14,52.24,27.42,2.14,1,4.39,1.77,6.43,3C102.3,868.47,103.66,869.06,103.36,870.8Z" transform="translate(0 0)" fill="#e8a884"/><path d="M0,575.78c2.71-3.19,5.59-6.26,8.11-9.58,9.91-13,19.54-26.28,29.59-39.2,12.47-16,27.11-30.1,41.6-44.25,7.47-7.3,15.48-14.05,23.62-20.81-2.24,4.41-4.51,8.81-6.73,13.23-5.74,11.46-11.7,22.82-17.12,34.42C74.24,520,69.48,530.4,65.62,541.14c-6.73,18.71-13.14,37.55-18.91,56.57A218,218,0,0,0,40,629.34c-1.66,11.25-1.69,22.7,1.28,33.82,1.39,5.21,3.6,10.25,7.82,14.05,1.62,1.46,2.86,3.44,4.65,4.58,4,2.5,7.53,1.46,9-2.94,2.5-7.6,4.2-15.46,6.73-23.05,3.12-9.37,6.7-18.58,10.17-27.83a41.21,41.21,0,0,1,4.2-8.33c-2.18,8.33-4.5,16.62-6.52,25-2.07,8.56-4.29,17.11-5.64,25.79s-1.73,17.54-2.5,25.9c-2,.77-5.06,1.24-7.14,2.88s-3.35,4.52-5.25,7.26C39,699.85,20,695.05,0,694.58V677.7c1.23-1.29,2.85-1.12,4.42-1.19,6.44-.31,12.76.76,19.1,1.65,1.09.15,2.16.67,3.32.21.57-1.1-.17-2-.61-2.79-3.37-6.4-4.37-13.37-5.14-20.44-1.82-16.77.75-33.16,4.21-49.46,4-18.82,10.09-37,16.33-54-1.69,3.27-5,6.77-7.83,10.57-5.86,7.82-11,16.19-17.55,23.48-2.88,3.2-5.93,6.18-10.2,7.45-2.06.62-4.17,1.17-6-.53Z" transform="translate(0 0)" fill="#fefefe"/><path d="M0,370.58c8.74,3.27,17.1,1.62,25.48-1.61,8.57-3.29,17.21-6.47,26-9.27A277.5,277.5,0,0,1,78.91,352c10.69-2.22,21.58-3.62,32.43-5,7.22-.87,14.52-1,21.79-1.43a5,5,0,0,1,3,.84c-2.58,1.94-5.17,3.88-7.74,5.83-12.77,9.68-25.69,19.19-38.27,29.11-11.79,9.3-23.23,19-34.79,28.62-2.49,2.06-4.84,4.31-7.18,6.55-6.8,6.53-13.77,12.91-20.31,19.7C19,445.45,10.48,455,1.78,464.37A13.6,13.6,0,0,1,0,465.75Z" transform="translate(0 0)" fill="#f1d7cf"/><path d="M388.82,1080c-1.22-6.94-2-14-3.75-20.8-2.77-10.51-6.13-20.87-9.49-31.21-2.55-7.84-5.47-15.56-8.21-23.34a6.32,6.32,0,0,1,0-1.6h28.05c6.1,0,12.22.33,18.29-.08,8.84-.58,17.64-1.69,26.46-2.57,15.29-1.53,30.21-4.93,45-8.85,7.41-2,14.71-4.31,22.66-6.65-5.14,4.64-10,8.84-14.61,13.22-6.19,5.84-12.45,11.63-18.29,17.82a213.07,213.07,0,0,0-14.62,17.27q-10.41,13.71-20.11,28a19.76,19.76,0,0,0-2.7,8c-.89,5.71,1.52,8.78,7.3,10.15a7.53,7.53,0,0,1,1.38.65h-25a5.78,5.78,0,0,1-1.83-4.2c-.91-10.19,1.14-19.52,7.07-28.11,6.32-9.16,12.63-18.31,19.82-26.81a7.61,7.61,0,0,0,1.51-2.33,486,486,0,0,1-53.59,3.38c-.58,2,.19,3.31.64,4.66,4,12.17,8,24.34,10.35,37,.79,4.21,1,8.47,1.57,12.7a4.14,4.14,0,0,1-1.07,3.75Z" transform="translate(0 0)" fill="#fefefe"/><path d="M483.32,1080a16.4,16.4,0,0,1,2-2.94c4.48-4.37,8.93-8.8,13.63-12.94,9.5-8.36,19.07-16.66,28.76-24.8,24.88-20.91,52.34-38.22,79.26-56.28a16.56,16.56,0,0,1,5.17-2.49c-3,3.49-6,7.08-9.13,10.46a348.3,348.3,0,0,0-40.3,51.83c-7.48,11.82-14.8,23.77-19.28,37.16H526.52c-1.94-2.51-1-5.16-.18-7.67a77.76,77.76,0,0,1,5.52-12.56q-11.07,8.91-21.36,18.53c-.85.79-2,1-2.88,1.7Z" transform="translate(0 0)" fill="#fefefe"/><path d="M0,1005.75c4.55,5.28,9.15,10.52,13.62,15.87,2.7,3.22,5.14,6.66,7.8,9.91a3.68,3.68,0,0,0,2.35,1.16,64.54,64.54,0,0,0,7.49,0c5.45-.34,12.35,6.61,12.89,11.7.35,3.27,2.42,4.88,4,7.11,8,11.44,18.71,20,29.51,28.48H53.33c-2.29-.88-3.92-2.75-5.68-4,1,1.61.59,2.92-1.07,4H31.05c-1.14-.89-.33-2.26-.76-3.31-2.67.27-4.66,1.82-6.66,3.31H8.1c-1.69-2.82.58-5,1.51-7.15,1.18-2.76.24-4.49-1.66-6.21-1.22-1.1-2.68-1-4.14-.85s-2.7.52-3.81-.64V1051a6.37,6.37,0,0,0,0-7.43Z" transform="translate(0 0)" fill="#806b65"/><path d="M0,592.65a14.35,14.35,0,0,0,13.14-5.44c6.66-8.3,13-16.85,19.47-25.31C36.34,557,40,552.09,44.2,547.42c-1.55,4.67-3,9.38-4.69,14A328.45,328.45,0,0,0,23,624.78a121.29,121.29,0,0,0,.17,37.51c.9,5.62,3.8,10.93,5.8,16.38.14.4.29.79.33.92L0,677.7Z" transform="translate(0 0)" fill="#f1d7cf"/><path d="M120.15,1080q3.09-16.63,6.15-33.26c.19-1.06.62-2.46.15-3.18-3.81-5.78-2.12-11.78-.46-17.51a253.11,253.11,0,0,1,8.22-24.09c3.9-9.75,10.41-18,16.92-26.11,5.31-6.62,10.78-13.12,16.48-19.39,2.75-3,6.2-5.44,9.34-8.12l13.84,2.17c-6.77,7.41-13,14.27-19.23,21-8,8.65-17,16.69-21.94,27.61a154.29,154.29,0,0,0-9,26c-2.34,9.43-3.5,19.18-4.78,28.85-.85,6.51-1,13.11-1.49,19.67-.16,2.11-.43,4.2-.65,6.3Z" transform="translate(0 0)" fill="#e7cbd7"/><path d="M405.69,1080a124.66,124.66,0,0,0-5.5-32c-2.73-9-5.48-18-8.15-26.67l58.44-3.77c-3.1,3.88-6.65,7.87-9.69,12.22-5.83,8.33-11.6,16.71-16.94,25.35-4.78,7.73-3.66,16.37-2.63,24.87Z" transform="translate(0 0)" fill="#f1d7cf"/><path d="M121.53,885.54c-7.23,9.44-16.32,16.86-25.61,24.15-9.5,7.44-19.19,14.77-27.82,23.16-12.68,12.35-27.33,19.64-44.91,20.89-7.7.55-15.46.49-23.19.71V939.6c10-1.8,20.06-3.53,30.06-5.42,6.75-1.27,13.86-1.81,20.07-4.42,7.37-3.1,14.17-7.75,20.81-12.31,9.15-6.27,18-13,26.83-19.71,6.7-5.12,13.15-10.58,19.73-15.87.86-.7,1.81-1.27,3.16-2.19C121,881.81,121.25,883.67,121.53,885.54Z" transform="translate(0 0)" fill="#e7cbd7"/><path d="M0,526.5c8.2-11.43,16.22-23,24.68-34.24a218.66,218.66,0,0,1,14.51-16.71c6-6.5,12-13.1,18.5-19.07,13.13-12,26.21-24.12,40.05-35.27,18.53-14.92,37.76-29,56.7-43.36a5,5,0,0,1,2.74-1.08q-8.38,11.42-16.79,22.82c-8.47,6.51-17.38,12.4-26,18.62a328.43,328.43,0,0,0-44.92,38.6A554.91,554.91,0,0,0,22,513.32c-6,8.13-12.56,15.85-19,23.61-.74.89-1.37,2.19-2.95,1.72Z" transform="translate(0 0)" fill="#bda197"/><path d="M0,538.65c5.85-7.21,11.75-14.38,17.55-21.63,10.06-12.58,19.68-25.55,30.21-37.74,10.75-12.44,21.77-24.79,33.8-36,11.11-10.32,23.63-19.14,35.69-28.4,6.22-4.78,12.77-9.13,19.24-13.59a21.4,21.4,0,0,1,3.9-1.73c-6.18,9.47-10.9,19.89-20.43,27C110.13,434,100.74,442,91.59,450.2,76.82,463.42,61.93,476.56,48,490.6A391.89,391.89,0,0,0,3.74,544.1c-1.13,1.63-2.49,3.12-3.74,4.68Z" transform="translate(0 0)" fill="#a58980"/><path d="M507.62,1080c7-6.3,13.91-12.62,20.91-18.87a28.21,28.21,0,0,1,5.1-3.54c-2.65,7.47-7.82,14-7.11,22.41Z" transform="translate(0 0)" fill="#f2d8d0"/><path d="M0,1065.15a11.45,11.45,0,0,1,3.22-.52c2,.23,4.36.22,5.75,1.34,2.14,1.73,3.69,4.1,1.6,7.31-1.27,2-1.68,4.46-2.47,6.72H0Z" transform="translate(0 0)" fill="#f6dee8"/><path d="M23.63,1080c.58-4.63,5.11-3.2,8.16-5.56-.31,2.31-.52,3.94-.74,5.56Z" transform="translate(0 0)" fill="#e6b9c6"/><path d="M46.58,1080c.33-1.58.67-3.17,1.15-5.46l5.6,5.46Z" transform="translate(0 0)" fill="#e5b9c5"/><path d="M0,1043.55l2,.09a36.23,36.23,0,0,1-.09,5.53c-.11.69-1.26,1.21-1.94,1.81Z" transform="translate(0 0)" fill="#e3b9c4"/><path d="M754,644c-12.87-14.78-24.1-30.75-34.8-47.14a465.55,465.55,0,0,1-31.37-55.47c-9.57-20.25-18.86-40.65-29.1-60.56-10.83-21.07-21.06-42.56-34.93-61.91-7.21-10.05-15.08-19.64-22.71-29.39-1.28-1.64-1.91-3.05-.89-5.15,2.28-4.72.67-9.67.4-14.52-.23-4.23-.92-8.44-1.14-12.66-.2-3.87.06-7.76-.08-11.63-.16-4.65,1.88-7.51,6.24-9.16,7.22-2.74,14.27-5.93,21.5-8.62,8.47-3.14,14.46-9.12,19.67-16.15,7.27-9.84,11.65-21.11,16.07-32.37,3.74-9.52,8.18-18.82,15.49-26.05a52.53,52.53,0,0,1,14.92-10c10.05-4.61,20.51-8.3,30.8-12.36,16.43-6.49,32.94-12.79,49.28-19.51,21.61-8.88,42.94-18.47,64.68-27,11.73-4.61,24.06-7.69,36.15-11.36a38.94,38.94,0,0,1,5.63-.8,6.73,6.73,0,0,1,7.14,3.23c5.19,7.68,11.78,13.53,21.38,14.78,4.16.53,5.54,4.14,7.53,6.68,7.84,10,15.77,20,22.67,30.69a275.76,275.76,0,0,1,24.1,47.17c2.26,8.19,1.11,16.52.79,24.78s-1.19,16.81-1.7,25.22c-1.71,27.86-4.1,55.65-12.64,82.46-7,22.08-18.64,41.4-35.71,57.16-7.89,7.29-16.79,13.45-27.12,16.7-14.21,4.48-27.59,2.31-39.56-6.84a70.75,70.75,0,0,1-6.55-5.82,19.23,19.23,0,0,0-23.61-2.16c-4.76,3.12-9.14,6.56-11.56,11.94A19.1,19.1,0,0,0,803.41,489a259.62,259.62,0,0,1,3.15,38.28c0,4.26.71,8.51.7,12.79,0,3.68-.32,3.52-4,4-10.68,1.38-18.19-4.27-25.48-10.7-8.87-7.83-17-16.39-25.38-24.71-2.56-2.54-5.32-4.86-7.94-7.32-3.59-3.37-7.93-4.38-12.71-4.92-1.25,1.91-.83,3.92-.51,5.87a35.83,35.83,0,0,0,2.17,7.44c5.6,14.35,9.5,29.37,15.92,43.36,9.24,20.15,14.51,41.59,21.79,62.37,3.31,9.44,6.52,18.93,11.68,27.61a53.33,53.33,0,0,0,8.35,11c3.53,3.48,6.57,7.39,10,11,.83.87,2,1.89,1.41,3.18-.73,1.47-2.38,1.53-3.88,1.4a10.88,10.88,0,0,1-4-1.58c-5.88-3.11-11.22-7.08-16.93-10.47-7.35-4.35-15.31-7.64-22.09-12.95A5.73,5.73,0,0,0,754,644Z" transform="translate(0 0)" fill="#e8a884"/><path d="M860.71,137c4.84,4.32,9.74,8.57,14.46,13,.66.62.71,2.23.52,3.28a3,3,0,0,1-1.82,1.87q-11.11,3.09-22.3,6c-19.82,5.1-38.19,14-57,21.72-23.77,9.82-47.56,19.6-71.46,29.06-13.21,5.22-26.81,9.33-39.54,15.87-13.69,7-24,17.14-30.73,30.76-4.51,9.1-8.12,18.65-12.26,27.95-3.75,8.4-7.79,16.84-15.61,22.18-4.26,2.91-9.53,4.32-14.27,6.54-6.67,3.12-13.46,6.07-19.86,9.67-5.1,2.87-7,8.33-8.21,13.72-1.93,8.38-1.49,16.84-.21,25.28a38.28,38.28,0,0,1,0,4.44c-2.06-2.42-3.4-4.26-5-5.83-6.73-6.59-13.38-13.29-20.38-19.61A256.31,256.31,0,0,0,536.75,326c-13.07-9.55-26.22-19-39.87-27.71-11.39-7.25-23.36-13.68-35.42-19.79-9.15-4.64-18.83-8.27-28.31-12.25-13.3-5.59-26.73-10.88-39.93-16.68-14-6.16-28.19-12.19-41.7-19.39-9.19-4.9-17.42-11.61-25.95-17.69-4.09-2.9-7.85-6.26-11.84-9.31-1.64-1.24-2.11-2.42-2-4.67.11-3.58-.95-7.2-1.51-10.8-1-6.61-2.38-13.19-2.9-19.83-.3-3.82.66-7.76,1.32-11.6.11-.63,1.66-1,2.55-1.5,3.31,2.76,5.5,6.5,8.3,9.72,7,8.06,15.25,14.63,24,20.57A262.49,262.49,0,0,0,396,212.4a60.53,60.53,0,0,0,16,3.71,15.42,15.42,0,0,0,6.32-.8c2.23-.72,2.73-1.85,1.46-4a58.66,58.66,0,0,0-10.45-13.19c-13.44-12.51-23.41-27.52-32.43-43.3-7.58-13.28-15.34-26.48-21.29-40.61-4.2-10-7.67-20.18-7.13-31.31.15-3.16,1.35-6.16,1.12-9.34,7.93-5.34,15.71-10.91,23.82-16a98.8,98.8,0,0,1,29.38-11.73C414.26,43,425.91,41.27,437.47,39c5.79-1.11,11.43.12,17.12.57,8.52.68,17,1.35,25.56,1.66q12.48.43,24.9,1.43c1.89.15,3.57.58,4.52,2.41,1.83,3.51,5,5.39,8.45,6.9a106.89,106.89,0,0,0,16.37,5.26,29.1,29.1,0,0,1,8.06,3.36c18.95,11.52,37.17,24.12,55,37.3a8.58,8.58,0,0,1,3.95,6.68c.2,3.24,2.09,5.64,4.47,7.66a65.11,65.11,0,0,0,8.56,6,9.46,9.46,0,0,1,3.15,2.5c1.24,1.79.51,3.33-1.66,3.54a10.2,10.2,0,0,1-3-.41c-6.73-1.34-13.47-2.64-20.16-4.14-4.62-1-8.23,1-9.32,5s.93,7.15,5.43,8.72a100.38,100.38,0,0,0,14.1,3.36c3.45.67,6.43,1.95,8.61,4.81a7.47,7.47,0,0,0,2.49,2.26,16.79,16.79,0,0,1,8,7.8c1,2.11,3.37,2.92,5.54,3.58,16.88,5.1,32.61,12.87,48.32,20.67,4.25,2.11,9,1.48,11.34-1.71a8.53,8.53,0,0,0-1.12-11.62c-2.24-2.12-3.73-4.19-4-7.39-.23-3-2.41-4.94-5-6.36a107.8,107.8,0,0,0-16.85-7.74,10.46,10.46,0,0,1-6.26-4.79c-1.3-2.35-3.6-3.34-6-4a84.16,84.16,0,0,1-9.29-3.07c-2.18-.83-3.37-2.25-3-4.63,1.14-6.79-1.41-12.12-6.45-16.45-2-1.75-3-3.67-2.53-6.49.57-3.27-1-5.9-3.44-8a56.77,56.77,0,0,0-7.71-5.45c-12.33-7.46-22.44-17.6-33-27.16A12,12,0,0,1,580,57.23c-.5-1.07-1.62-2.17-.61-3.38s2.24-.87,3.48-.72c9.05,1.1,18,2.77,27,4.42,22.9,4.2,45.6,9.45,68.38,14.22,19.38,4.06,38.78,8,57.86,13.34A299.69,299.69,0,0,1,810.28,117c7.6,4.61,15.42,8.83,22.21,14.65a8.18,8.18,0,0,0,4.6,2,16.91,16.91,0,0,1,8.37,3.3c4.24,3,8.54,4,13,.46A2.17,2.17,0,0,1,860.71,137Z" transform="translate(0 0)" fill="#e8a884"/><path d="M473.89,795c-7.44-1-14.88-1.91-22.32-2.91-7.22-1-14.43-2-21.64-3-1.62-.23-3.23-.5-5.77-.9.62,5.76.87,11.11,1.85,16.31,1.21,6.34,2.48,12.77,4.81,18.74,1.2,3.09,4.75,5.26,7.23,7.85,2.06,6,6.52,9,12.5,10.51a76,76,0,0,0,16.6,2.3c9.75.21,19.47,1.41,29.23,1.22a273.68,273.68,0,0,0,33.46-2.56c2.35-.19,4.63-.76,7-1.1,1.65-.23,3.37-.54,4.68,1-4.83,2.86-9.63,5.77-14.5,8.55q-6.93,3.93-14,7.6a9.86,9.86,0,0,1-4.34,1.32c-12.11-.12-24.22-.16-36.31-.67-14.71-.61-28.73-4.59-42.4-9.8-10.71-4.07-21.51-8-32-12.63-16-7.17-32-14.5-47.6-22.57-10.85-5.62-20.95-12.68-31.47-19a156.57,156.57,0,0,1-32.7-25.48,162.27,162.27,0,0,1-27.14-37.15c-8.19-15.44-16.26-31-24.63-46.31A490.89,490.89,0,0,1,207.14,626c-4.86-12.74-9.53-25.59-13.47-38.64-2.19-7.22-2.9-14.93-3.93-22.46-1.12-8.23-2.69-16.53-2.52-24.76.2-9.31,2.1-18.58,3.26-27.87.59-2.64,2.73-1.09,4.11-1.36,1.2-.24,2.11,1,2,2.19-.33,7.39,4.25,14.13,2.83,21.65-.35,7.5-1.32,15-1,22.49.37,9.44,1,18.8,3.73,28,2.56,8.48,7.26,15.09,15,19.46,2.25,1.27,4.23,3,6.38,4.4,5.39,3.62,10.52,1.71,12.17-4.52a4.18,4.18,0,0,1,1.21-2.34,33.15,33.15,0,0,0,3.86-.85c2.93-1,3.6-3.62,2.71-6-2.09-5.59-.87-11.26-1.09-16.9.58-.57,1.22-.37,1.88-.17,11.8,3.57,22.73,2.12,33.4-4.41,7.15-4.38,11.21-10.54,13.62-18.06,2.35-7.34,3.25-14.79,1-22.49a75.25,75.25,0,0,0-17.47-30.7c-2.77-2.94-4.94-6.4-8-9.1-1.35-1.19-2.52-2.58-4.55-2.55-1.58,0-1.73-1.13-1.79-2.32,2-5.23,3.67-10.6,6-15.69,6.67-14.67,13.13-29.48,20.55-43.78a347.2,347.2,0,0,1,32.71-51.35c2.55-3.32,5.05-6.68,7.57-10a2.62,2.62,0,0,1,2.74.8,98.44,98.44,0,0,0,12.57,8.9c.65.4,1.35.88,1,1.87l-4.23,12.08a5.5,5.5,0,0,1-2.59,1.44c-5.31,2.18-7,7.41-3.91,12.36a36.42,36.42,0,0,0,5.5,6.27c1.08,1.08,2.86,2.06,1.76,4.15-7.83.7-15.78.8-23.48,2.24-14.58,2.74-23,12.28-26.36,26.44a80.4,80.4,0,0,0-2,14.07c-.11,2.22,1.22,4.52,1.9,6.78,1.76,2.09,1.23,4.48.68,6.74a47.57,47.57,0,0,0-1.43,17,31.59,31.59,0,0,0,7.83,17.12c1.77,2,2.26,4.65,4.18,6.44,6.25,5.81,10.92,13.07,17.13,18.9,3.07,2.88,7.09,4.31,11.15,5.18,8.34,1.79,16.61.32,24.49-2.09,6.17-1.89,11.42-6.08,16.74-9.83s9.56-8.71,14.2-13.22c2.17-2.1,3.79-4.69,5.89-6.86,1.1-1.13,2-2.48,3.81-2.49,2,4,3.87,8.05,6,11.94.69,1.25,2.12,2.08,4,3.87,1.06-2.92,2.53-5.16,2.61-7.46.72-21.25-3-41.73-12.2-60.94-2.74-5.7-7-10.67-10.61-16,2.2-.72,6-.41,4.44-5.17-.24-.72,1.13-2,1.85-3,1.91-2.55,3.87-5.05,5.81-7.57a3.8,3.8,0,0,1,2.68,1.18c8.65,7.05,16.73,14.75,25.08,22.13a6.71,6.71,0,0,1,1.85,2.35l-4.62,24.37c-.27,1.41-.53,2.81-.7,3.7-2.09,0-4.89-.8-5.85.19a8.52,8.52,0,0,0-2,6.35c.94,6.28,2.55,12.47,3.9,18.69,1.85,10.31,7.61,18.69,13.41,27,1.9,2.73,5.35,3.59,7.52,6,.17,1.83.35,3.65.52,5.48-3.45,7.5-1.58,14.13,3.88,19.69,5.84,5.95,13.33,6.84,20.93,4.58,5.4-1.62,11-3.37,14.93-8a2.91,2.91,0,0,1,1.52-.66c4.59-.95,8.45-6.21,8.87-11,.6-7,1.7-13.9,2.59-20.85.11,0,.25,0,.32.11a114.58,114.58,0,0,1,13.35,17.59c1.26,2.07.17,4-.55,6.09-2.45,7-5.89,13.59-6.87,21-.26,2-.68,4.11-.19,6,1.38,5.44,1,10.9.53,16.36-.79,8.68,3.43,14.75,9.85,19.82,1.62,1.27,3.82,2.11,4.07,4.62-1.16,1.74-3,1.2-4.61,1.3-2.1.13-4.27-.12-6.3,1.14.5,3.58,4.64,4.26,5.58,7.32-.53,2.44-2.44,4-3.92,5.77a46,46,0,0,0-5.46,8.42c-2.65,4.94-5.93,9.53-8.68,14.42-7.74,13.73-9.74,27.66-2,42.25,3.17,6,7.55,10.85,11.78,15.92a7.09,7.09,0,0,0,3.36,2.17c3,2.52,4.74,6.09,7.6,8.72,4.32,7.3,10.91,10.5,19.21,11.1,7.43.53,14.44-1.65,21.64-2.6,13.19,5.62,29.95,1.71,37.2-9.27,6.92-10.48,12.27-21.73,12.81-34.64.28-6.45-1.06-12.71-2.71-18.91-.4-1.5-1.1-3-.48-4.59,2.52-1.63,3.42.82,4.47,2,4.48,5.18,9.39,9.94,14,15,7.82,8.68,16.56,16.5,24.35,25.22a8.67,8.67,0,0,1,.94,1,40.29,40.29,0,0,0,12.82,13.06C648,720.38,642.81,725.6,637,730c-8.94,6.82-18.11,13.4-27.53,19.55A319,319,0,0,1,559,776.51c-3.43,1.44-6.84,2.9-10.26,4.35a6.06,6.06,0,0,1-4.74-2.09,114.43,114.43,0,0,0-16.77-15.07c-10.64-7.61-22-13.89-35.75-14-8.79-.08-14.62,4.49-19.32,11.4-4.14,6.08-3.26,12.66-2.27,19.17a22.21,22.21,0,0,0,4.31,10.86C475.24,792.34,476,793.91,473.89,795Z" transform="translate(0 0)" fill="#fef5e2"/><path d="M754,644c1.44.27,3.08.2,4.29.89,7.39,4.21,14.7,8.56,22,12.93,5.19,3.1,10.25,6.45,15.53,9.4,1.73,1,4,1.06,6,1.55l.3-1c-3.36-3.71-6.5-7.65-10.12-11.09-7.85-7.46-13-16.58-16.71-26.53-4.53-12.3-8.44-24.83-12.73-37.22-4.18-12.07-8.38-24.14-12.79-36.13-3.23-8.8-7-17.42-10.19-26.22-3.31-9.06-6.29-18.24-9.36-27.38a11.47,11.47,0,0,1-.48-3.31c-.12-5.44,0-4.72,5.32-4.18,7.08.72,11.11,5.47,15.58,9.64,7.17,6.65,13.67,14,20.9,20.6,6,5.41,12.47,10.19,18.93,15a11.14,11.14,0,0,0,5.6,1.66c3.32.26,6.68.07,10,.07-.25-8.49-.2-17.22-.85-25.89-.7-9.35-2-18.66-3.12-28-1-8.38,2.63-14.73,8.66-20.08s12.92-8.19,20.87-6.21a23.08,23.08,0,0,1,9.53,5.2c5.08,4.63,10.14,9.1,16.71,11.47a41.89,41.89,0,0,0,31.11-.49A82,82,0,0,0,912.13,464c9.23-8,16.66-17.83,23-28.35,9.6-16,15.42-33.41,18.55-51.63,2.46-14.3,4-28.78,5.48-43.23,1.3-12.9,2-25.88,2.73-38.83.5-9.06.53-18.15.77-27.22,3.18,6.64,6.4,13.28,9.54,19.94,2.57,5.47,5,11,7.58,16.46,6.41,13.56,13,27.05,19.24,40.66,1.34,2.88,1.86,6.14,2.76,9.23,2,7.87,3.78,15.82,5.48,23.78,1.09,6.11,2.36,12.19,3.25,18.33,1.44,10.05,2.72,20.13,3.9,30.22.87,7.44,1.51,14.9,2.2,22.36q1.38,15,2.67,30.05c.29,3.34.5,6.69.67,10,.27,5.37.57,10.74.69,16.11.28,12.23.48,24.46.68,36.7.28,16-2,31.63-5.51,47.22-1.88,8.34-2.18,17-3.26,25.56-1.79,14.11,1.25,27.82,3.18,41.65a61.75,61.75,0,0,1,0,12.46,4.8,4.8,0,0,1-2.5,3.14c-3,1.5-6.19,2.61-9.31,3.88a32.56,32.56,0,0,0-14.37,10.75c-2.28,3.15-3.07,7.36-4.73,11a11.4,11.4,0,0,1-3,4.36c-6.13,4.69-12.16,9.61-18.74,13.59-7.47,4.52-15.51,8.11-23.28,12.14-1.52.79-2.42.47-3.2-1.09-2.11-4.21-4.35-8.36-6.55-12.53-3.34-6.36-6.65-12.74-10.07-19.05-1.12-2.07-2.11-4.71-3.92-5.8-5.2-3.13-10.87-5.13-17.2-3.8-3.39.71-6.82,1.18-10.23,1.79-1.81.32-2.88-.21-3.48-2.12-1.37-4.38-2.77-8.78-4.54-13s-9.44-7.81-14-6.68c-9.57,2.34-19,5.3-28.66,7.14-13.7,2.61-27.53,4.55-41.34,6.49-1.64.23-3.93-.89-5.22-2.11-6.42-6.11-12.77-12.31-18.84-18.77C766.19,658,760.18,650.92,754,644Z" transform="translate(0 0)" fill="#d98d75"/><path d="M517,499.53c-8.62-10.57-16.8-21.54-26-31.61-15.81-17.38-31.92-34.53-48.53-51.14a382.41,382.41,0,0,0-32.11-28.19c-16.61-13.22-33.66-25.89-50.68-38.58-15.51-11.56-31.37-22.66-46.82-34.29-9.83-7.41-19.33-15.27-28.74-23.21-7.25-6.12-14.4-12.4-21.06-19.14-6.3-6.37-12.35-13.22-15.12-22-1.05-3.32-.84-7.1-.78-10.67,0-.92,1.46-2.27,2.52-2.66,7.34-2.71,14.62-5.68,22.16-7.69,12.56-3.34,25.29-6.07,38-8.94a3.75,3.75,0,0,1,3,.79c12.13,12.37,26.5,21.47,42,28.82q40.45,19.16,82.15,35.4a272.1,272.1,0,0,1,47.7,24.68c13.56,8.7,26.86,17.84,39.94,27.25a212.06,212.06,0,0,1,19.07,16.16c7.35,6.74,14.43,13.78,21.51,20.8,2.77,2.75,5.22,5.8,7.82,8.72,10.63,13.87,19.06,29.15,28.3,43.92,10,16,20.25,31.9,28.76,48.81A249.37,249.37,0,0,1,644,510.09c7.62,22.94,16.09,45.6,23.37,68.66,4.46,14.12,7.36,28.57,6.69,43.46-.42,9.17-2.32,18.09-7.28,26-2.4,3.84-4.07,4.33-7.69,1.66-14.45-10.7-30.17-19.64-44-31.27-8.44-7.11-15.7-15.4-23.13-23.54-11.59-12.71-20.91-27-30.13-41.39-7.94-12.42-17.58-23.63-26.93-35C529.38,511.93,523.09,505.84,517,499.53Z" transform="translate(0 0)" fill="#faeed7"/><path d="M188.35,933.44c-10.63-1.55-21.27-3-31.87-4.75a5.74,5.74,0,0,1-3.87-2.81c-2.54-6.25-4.84-12.61-6.94-19-2.85-8.72-5.45-17.53-8.12-26.32-.4-1.33-.58-2.73-1-4.52,6.83,2.62,12.24-1.07,17.61-3.54,9-4.12,17.61-9,26.32-13.73,5.64-3,8.06-8.19,7.75-14.36-.56-10.86,2.65-21.12,4.42-31.61,1.05-6.23,2-12.47,3.1-18.68a4.58,4.58,0,0,1,1.78-2.46c4.07-3,8.65-5.55,12.29-9,11.12-10.68,21.87-21.73,30.23-34.82,1.43-2.24,2.61-4.65,3.6-6.43,6.18,8.95,11.95,18.6,19,27.19A200,200,0,0,0,285.6,792c17.65,15.4,38.24,26.51,58.43,38.13,5.2,3,10.6,5.63,16,8.44-15.65,10.81-28.24,25-41.7,38.29-5.9,5.81-11.38,12-17.23,17.92a6.2,6.2,0,0,1-4.41,1.5c-6.73-.61-13.44-1.55-20.16-2.38-6.06-.74-12.1-1.72-18.18-2.18-8.9-.67-17.84-1.06-26.76-1.37-5-.18-8.3,2-10.68,6.75-2.77,5.51-6.85,10.33-10,15.7-3.52,6.09-6.59,12.44-9.85,18.68-3.37,1.86-7.15,1.31-10.75,1.77C189.67,933.36,189,933.08,188.35,933.44Z" transform="translate(0 0)" fill="#fedcb8"/><path d="M135,611.59c-4.46-5.77-8.39-5.47-12.19.68-6.4,10.37-9.72,22-13.38,33.38-5,15.61-9.64,31.32-14.33,47a45.81,45.81,0,0,0-1.24,7.6c-.21,1.86-1,2.64-2.9,2.24a18.94,18.94,0,0,0-2.28-.56c-3.18-.3-4.09-2.09-3.59-5,2.25-13.23,3.57-26.68,6.86-39.63,6.1-24,13.06-47.82,20.2-71.55,5-16.66,10.82-33.07,16.46-49.53,3.77-11,7.62-22,11.89-32.88,2.94-7.48,6.55-14.71,10-22,4.48-9.31,9.16-18.53,13.72-27.81a6,6,0,0,0-2.28-7.63A5.38,5.38,0,0,0,155,448c-9.07,13.74-18,27.55-27.09,41.32a29.54,29.54,0,0,1-2.34,2.79c-1.27-1.79,0-3.24.78-4.64,6.35-12.29,13-24.42,20.49-36,10.82-16.69,21.5-33.47,33.34-49.48,1.87-2.53,3.82-4.27,7.14-4.22a8.83,8.83,0,0,0,6.11-2.49A5.12,5.12,0,0,1,199,394a13.09,13.09,0,0,0,7.64-.14c1.44-.37,3-.7,4,.7,1.2,1.56.3,3-.53,4.34-1.77,2.88-3.48,5.77-4.07,9.18-.44,2.51-.18,4.78,2.06,6.31s4.55.5,6.53-.89a32.28,32.28,0,0,0,6.47-6.37c11.4-14.25,21.37-29.48,30.84-45,2.53-4.16,2.4-7.13-.08-9.17s-5.84-1.42-9.3,1.8c-4.57,4.26-7.8,9.56-11.48,14.52a20.72,20.72,0,0,1-1.84,2.41c-.82.8-1.72,1.65-2.93.81a2.57,2.57,0,0,1-.8-3,11.08,11.08,0,0,1,1.29-2.74c1.64-2.87,2.33-5.84,1-9-.85-2.14-.14-3.92,1.22-5.6,2.4-3,4.65-6.07,6.77-9.25,2.28-3.41,4.09-7,2.7-11.37-.54-1.71.39-3,1.43-4.27,6.45-7.65,13.5-14.74,20.52-21.85,1.37-1.4,2.31-3.44,4.7-3.48q9.31,7.43,18.64,14.84,10.27,8.11,20.59,16.19a2.3,2.3,0,0,1-.75,2.42c-2.17,2.39-4.53,4.61-6.64,7.06a1.63,1.63,0,0,1-2.07.61c-4.24-3.2-5-3.25-9.49-.23-6.92,4.69-11.64,11.43-16.54,18a374.81,374.81,0,0,0-39,64.42,15.39,15.39,0,0,0-1,2.15c-1.35,4.74-4.5,8-8.15,11.19A159.63,159.63,0,0,0,204,454.76a200.18,200.18,0,0,0-17.63,23.69c-8.21,13.26-14,27.59-14.89,43.46-.4,6.71-.91,13.4-1.36,20.1-6,5.66-8.2,13.59-12.09,20.49-6.14,10.86-10.94,22.39-15.64,33.94-1.48,3.63-2.49,7.46-4,11.07C137.62,609.11,137.5,611.4,135,611.59Z" transform="translate(0 0)" fill="#a58881"/><path d="M860.71,137c-6.81,5.27-9.19,5.24-16.58.6-2.09-1.31-4.71-1.77-7.07-2.65a24.17,24.17,0,0,1-5-2c-7.89-5.12-15.5-10.66-23.55-15.5s-16.26-9.09-24.54-13.35c-16-8.22-33-13.66-50.22-18.29-16.87-4.53-34-8.27-51-12Q651.1,66.89,619.3,60.57c-12.4-2.47-24.9-4.38-37.36-6.52a28.43,28.43,0,0,0-3.26,0c2.85,3.3,4.88,6.11,7.36,8.43,5.64,5.29,11.31,10.58,17.33,15.41,5.57,4.47,11.59,8.39,17.48,12.45,3.2,2.2,6.24,4.44,7.12,8.53.14.65.61,1.47.37,1.93-2.06,4,1.07,5.86,3.3,8A17,17,0,0,1,637,125a3.57,3.57,0,0,0,1.54,3,43.29,43.29,0,0,0,7.59,2.6c4.2,1.09,8.25,2.13,10.09,6.85.39,1,2.08,1.58,3.27,2.14,6.31,2.9,12.69,5.67,19,8.63a9,9,0,0,1,5.31,8.69,3.49,3.49,0,0,0,1.81,3.4c3.37,2.43,5.4,5.88,4.72,10.12-.72,4.52-3.44,7.66-8.26,8a13.93,13.93,0,0,1-6.42-1.21c-7.73-3.54-15.21-7.66-23-11-8.55-3.64-17.38-6.63-26.08-9.93-3.26-1.24-5.85-3.12-7.08-6.67-.41-1.19-1.85-2.07-2.93-3-2.16-1.74-4.34-3.44-6.61-5-1.67-1.18-3.36-2.6-5.27-3.14-5.6-1.59-11.36-2.59-17-4.2-4.6-1.33-6.69-5.61-5.42-10.07a8.38,8.38,0,0,1,10-5.85c7.56,1.58,15.11,3.22,22.68,4.8a18,18,0,0,0,2.44.19l.54-1c-1.3-1-2.57-2-3.92-3-2.94-2-6.07-3.86-8.86-6.1-3.05-2.46-5.11-5.57-5.09-9.81a4.62,4.62,0,0,0-1.73-3.32c-19.44-13.3-38.86-26.65-58.53-39.6-3.32-2.18-7.89-2.42-11.78-3.83a122.19,122.19,0,0,1-14.27-5.81c-2.12-1.08-3.48-3.6-5.26-5.39-.63-.64-1.43-1.46-2.21-1.53q-8.85-.84-17.73-1.39c-14.87-1-29.72-2.29-44.6-2.57-6.82-.14-13.68,1.82-20.52,2.84l-20.55,3.06c8.73-2.46,17.32-5.61,26.2-7.2a279.75,279.75,0,0,1,35.1-4.12c16.47-.82,33-.63,49.49-.8,8.77-.08,17.56-.36,26.31.07,10,.49,20,1.65,30,2.55,7.43.67,14.87,1.29,22.28,2.12,7.84.88,15.66,1.93,23.47,3,8.36,1.17,16.69,2.57,25.06,3.68,9.25,1.23,18.52,2.3,27.8,3.31a117.21,117.21,0,0,0,11.7.74c12,.15,23.28,3.16,34.34,7.44C727.68,61.76,741.05,66.36,754,72c13.35,5.85,26.52,12.27,39.3,19.29,13.23,7.27,26.16,15.16,38.74,23.52,9.7,6.45,18.64,14,27.91,21.12A5.4,5.4,0,0,1,860.71,137Z" transform="translate(0 0)" fill="#edd0ae"/><path d="M517,499.53a52.24,52.24,0,0,1,5.75,4.43c14.88,15,27.76,31.58,39.84,48.82C567.7,560,572,567.85,577.21,575c5.36,7.3,11.36,14.13,17.2,21.06a148.23,148.23,0,0,0,11.23,12.5,196.83,196.83,0,0,0,29.11,23.26c8.48,5.44,16.62,11.41,24.85,17.24,2.49,1.76,4.1,2.31,6.09-1a43.43,43.43,0,0,0,6.45-19.64,155.38,155.38,0,0,0-.27-23.73c-1.43-17.07-7.92-32.88-13.22-48.92-6.26-19-13-37.79-19.87-56.56-8-21.86-20-41.58-32.35-61.17q-16.54-26.34-33-52.74a4.73,4.73,0,0,1-.35-1.28c3.51,3.88,7.17,7.63,10.5,11.66q9.57,11.58,18.8,23.42A219.94,219.94,0,0,1,624.17,453c9.58,18.5,19.63,36.76,28.9,55.41,9,18,17,36.56,25.87,54.62,4.62,9.35,10.11,18.29,15.59,27.18,6.76,11,13.57,21.94,21,32.45,7.77,11,16.07,21.57,24.62,31.94,8.17,9.89,17,19.26,25,28.33-6.88,8.21-13.72,16.65-20.87,24.82-5.38,6.15-11.37,11.67-18.91,15.24s-14.72,2.19-21.45-1.6a154.25,154.25,0,0,1-29.5-21.7c-6.73-6.26-13.8-12.19-20.05-18.88-7.68-8.2-14.92-16.85-21.89-25.67-10.45-13.24-20.58-26.75-30.7-40.26-9-12-17.78-24.13-26.61-36.24-10.59-14.53-21.09-29.12-31.7-43.64-7.4-10.12-14.92-20.17-22.4-30.24C519.77,503,518.39,501.28,517,499.53Z" transform="translate(0 0)" fill="#eecfbe"/><path d="M663.53,729.65c7,6.59,15.54,10.34,24.64,13.19,5.17,1.62,10.06,4.17,15,6.49,5.49,2.58,11.1,2.77,17,1.89,7.46-1.1,14.86-2.54,21.4-6.23,4.71-2.65,8.92-6.27,13-9.84,5.33-4.63,10.26-9.72,15.53-14.42,2-1.75,4.44-2.94,6.84-4.49L791.44,729,753,764.57c3.74,1,5.21,3.53,4.28,6.69-.57,2-2.29,3.61-3.38,5.47a25.17,25.17,0,0,0-1.88,4c-.94,2.47-1.21,5.39-2.71,7.42-3.37,4.57-6.87,9.25-11.16,12.91-6.34,5.41-8.46,5-15-.12-6,1.76-12.15,7.53-18.13-.49-5.54,3.53-10.84,7-16.2,10.31-5,3.13-10.07,6.31-15.25,9.2-10,5.55-19.95,11.13-30.14,16.28C630.73,842.61,618,849,605,854.63q-20.4,8.88-41.41,16.32c-12.29,4.34-24.86,7.92-37.42,11.43-10.17,2.85-20.51,5-30.75,7.64-2.22.55-4.13,2.8-6.69,1,17.67-9.29,35.47-18.36,53-27.93,21.25-11.63,42.33-23.62,61.67-38.31,5.39-4.1,10-9.22,15-13.81a22.36,22.36,0,0,1,4.3-3.14q20.41-11.08,40.87-22.07c1.09.31,1.49,1.28,2,2.11,2.11,3.1,4.83,4,8.11,2.46a11.63,11.63,0,0,1,6.44-1.33,6.89,6.89,0,0,0,4.95-1.77c1.14-.88,2.14-2,3.67-2.29,1.4.43,1.72,2,2.93,2.67s2.52,1,3.77,0a3.32,3.32,0,0,0,1.63-3.12c-.22-1.58-1.45-2.07-2.86-2.41-4-1-4.07-1.34-1.53-4.68a16.66,16.66,0,0,0,1.52-2.21c1.6-3.06.91-5.1-2.22-6.48-.81-.35-1.76-.44-2.25-1.33,2-2.28,4-4.49,5.87-6.87a6.79,6.79,0,0,0,1.52-3.58c.07-2.56,1.17-6-2-7.15s-6.72-1.41-9.89.94c-4,3-8.15,5.78-12.24,8.66-5-5.24-7.76-5.57-14.28-1.77-1.85,1.07-3.53,2.4-5.4,3.43s-3.27.64-4.38-1.4c-3.07-5.7-3.12-5.66,2.18-9.71,2.5-1.9,4.81-4,7.14-6.14,3.92-3.55,5.93-7.57,3.85-12.86Z" transform="translate(0 0)" fill="#a58881"/><path d="M265.22,301.78c-5.71,6-11.43,12-17.11,18-2.6,2.76-5.15,5.57-7.62,8.45-.58.67-1.31,1.95-1,2.51,2.25,4.76-.12,8.59-2.46,12.27s-5.18,7-7.66,10.56c-.54.78-1,2.23-.64,2.93,2.2,4.31.68,8-1.42,11.76a17.82,17.82,0,0,0-1.13,3.56l1.23.57c1.67-2.28,3.25-4.64,5-6.84,3.43-4.28,6.72-8.72,10.52-12.65,4.13-4.29,10.51-3,11.78,2.25a9.67,9.67,0,0,1-1.34,6.63c-6.55,10.46-13.16,20.89-20.22,31-4.8,6.88-10.32,13.25-15.63,19.75a8.23,8.23,0,0,1-4,2.92c-2,.43-4.9.72-6.14-.38-1.54-1.35-2.78-4.41-2.36-6.34.81-3.73,2.91-7.17,4.41-10.76a22.86,22.86,0,0,0,.82-3c-1-.06-2-.15-3.07-.18-3.15-.09-6.31-.24-9.46-.19a4.48,4.48,0,0,0-2.86.95c-2.37,2.43-5.21,3.22-8.5,3.45a6.09,6.09,0,0,0-4.07,2.15c-8.55,12.08-17.32,24-25.25,36.52-9.19,14.47-17.64,29.41-26.31,44.21-1.92,3.27-3.41,6.79-5.1,10.19-10.11,19-20.68,37.81-30.18,57.13C87.65,565,81,581.33,74.21,597.57c-6.25,15-12,30.17-17.9,45.31a90.16,90.16,0,0,0-2.44,8.87C51.21,644.15,82.65,549.43,96.58,520,116.46,478.09,139,437.72,166,400s58.9-71.61,92.93-104.19Z" transform="translate(0 0)" fill="#bda196"/><path d="M219.54,931.81q7.05-10.75,14.11-21.54c1.08-1.65,2.25-2.7,4.54-2.44,9,1,18.11,1.79,27.17,2.7q9.93,1,19.86,2.08c3.52.39,7,1.2,10.54,1.19A61.22,61.22,0,0,0,307,912.51c4.22-.8,8.33-2.14,12.53-3,6.83-1.44,9.85-6.24,11.23-12.46.67-3,.78-6.16,1.52-9.15.37-1.52,1.59-2.83,3.07-5.29l17.88,38.11c-.5.44-.56.55-.65.56-6,.89-12,2.6-18,.63-4.92-1.62-10.42,1.65-10.4,6.86,0,3,.94,5.88,1.23,8.84.55,5.65,1,11.31,1.37,17,.34,4.82,1.4,9.26,6.15,11.71a6.16,6.16,0,0,0,3.43,1c3.17-.53,6,.38,8.91,1.32a24.07,24.07,0,0,0,6.59.75c3.9.11,7.81,0,11.88,0v12.33c-4-2.16-7.89-4.11-11.64-6.26-3.44-2-6.65-4.76-10.94-4a21.75,21.75,0,0,0-7.63,2.71c-12.08,7.74-25.55,11.86-39.24,15.37-9,2.3-18,4.39-27,6.5a64.25,64.25,0,0,1-8.8,1.52c-.8.07-2.1-1-2.51-1.88-4.22-8.9-8.26-17.88-12.43-26.8C236.9,954.72,232,942.94,219.54,931.81Z" transform="translate(0 0)" fill="#faeed7"/><path d="M88.34,828.87,68.56,817.62c3.36-7.32,6.07-14,9.4-20.27,3.61-6.83,8-13.28,11.72-20.05,4.32-7.74,8.15-15.66,8.26-24.88.06-4.92-1.74-9-4.2-13.08-4.12-6.78-8.13-13.63-12.18-20.46l.5-1.06,31.94,8c-1.86,14.23-3.9,27.45-5.19,40.75-.6,6.2.73,12.58.28,18.81-.27,3.86-.48,7.28,2.25,10.24,5.47,6,10.33,12.68,18.69,15.07a6.71,6.71,0,0,1,1.43.79c4,2.39,8.23,1.11,9.6-3.42q5-16.43,9.42-33c2.75-10.21,5.21-20.5,8-31.7,11.12,6.33,21.79,12.42,32.83,18.72-8.85,9.1-10.69,20.62-13,31.79-2.63,12.52-4.69,25.18-6.72,37.82-.56,3.53,0,7.23-.23,10.84a3.49,3.49,0,0,1-1.44,2.54c-9.07,4.67-18.18,9.26-27.37,13.67a4.89,4.89,0,0,1-3.94-.34c-15.23-8.77-30.39-17.66-45.55-26.54-1.12-.66-2.16-1.47-3.23-2.2,1.05-1.38,2.59-1.29,4-1.14,3.45.37,6.73-.45,10-1.39,8.78-2.55,13.38-9.6,11.56-18.57-1.52-7.47-5.91-13.18-13.07-16.11-12-4.92-23,3.47-22.06,16.68a19.53,19.53,0,0,0,4.33,11.48C86.52,823,88.68,825.39,88.34,828.87Z" transform="translate(0 0)" fill="#faeed7"/><path d="M349.62,73.56c.41.93,1.37,2,1.16,2.78-3.06,11.14-.65,21.81,3.85,31.78C361,122.21,368,136,375.51,149.56c6.07,10.94,13.11,21.37,20.05,31.8,2.46,3.7,6,6.69,8.85,10.1,5.79,6.83,11.47,13.73,17.23,20.58,1.31,1.56,1,2.88-.78,3.38-3,.83-6.26,2.28-9.05,1.7-7.85-1.63-15.83-3.4-23.19-6.48A256.42,256.42,0,0,1,342.83,186c-11.64-8-22.24-17-30.47-28.59a15,15,0,0,1-1.21-2.67c3-.21,6.14.06,9-.72,9.35-2.56,13.13-9.9,14.63-18.65,2.4-14.07,4.29-28.23,6.89-42.25,1.11-6,3.39-11.8,5.34-17.62C347.28,74.65,348.72,74.2,349.62,73.56Z" transform="translate(0 0)" fill="#d98d76"/><path d="M477.55,877.49c-16.69,7.58-33.26,15.46-50.13,22.64-10.58,4.5-21.56,8.13-32.48,11.8-6.47,2.17-13.17,3.68-19.78,5.4-4.87,1.27-5.17,1.07-7-3.58-.32-.82-.51-1.7-.91-3.06,8.35-4.33,16.61-8.77,25-12.91,3.14-1.54,4.79-3.85,4.48-7.09a6.56,6.56,0,0,0-5.93-6.31,59.92,59.92,0,0,0-6.65-.77c-9.31-.3-18.63-.4-27.93-.81a5.24,5.24,0,0,1-3.36-2.33,42.69,42.69,0,0,1-3.67-7.19,3.62,3.62,0,0,1,.21-3.14A122.6,122.6,0,0,1,374.51,849c2.25-1.4,4.38-2.1,7.21-.85,10,4.44,20,8.92,30.29,12.71,14.9,5.5,29.71,11.47,45.58,13.72,6.49.93,13.07,1.26,19.61,1.86C477.31,876.8,477.43,877.14,477.55,877.49Z" transform="translate(0 0)" fill="#9d7d72"/><path d="M394.94,502.13c-4.58,4.94-9,10-13.75,14.78a97.73,97.73,0,0,1-22.54,16.89c-6.76,3.76-13.88,3.2-20.92,4.16-6.58.9-12.71-1.11-18.15-4.27-3.34-1.94-5.69-5.6-8.4-8.57-3.58-3.94-7.23-7.84-10.56-12-3-3.78-6.23-7.59-8.29-11.89-3.32-6.92-5.47-14.2-3.63-22.2,1-4.49,1.08-9.2,1.57-13.81,3.28-.72,5.11-3,6.83-5.71,3-4.69,6.26-9.22,9.47-13.77s8.26-5.87,12.82-8a57.68,57.68,0,0,1,24.8-5.1c11.1.07,19.91,5,27.68,13.15a68.69,68.69,0,0,0-27.07,13.24c-14.91,12-26.84,26.16-31.3,45.34-1.88,8.11-1.31,16,3.68,23.19,3.38,4.84,8.2,7.25,13.75,8.33,11.56,2.25,21.8-1.94,31.6-7.23A73.16,73.16,0,0,0,383.24,512a27.94,27.94,0,0,1-5.34-.84c-5.61-2.09-7.81-8.12-4.73-14.38a44.79,44.79,0,0,1,7.16-9.88c2.76-3.05,6.61-2.93,10.18-1.55s5.21,4.55,5,8.44C395.42,496.54,395.15,499.34,394.94,502.13Z" transform="translate(0 0)" fill="#fefefe"/><path d="M314.49,340.27,324.9,348c-3.73,4.37-7.18,8.45-10.68,12.48a283.24,283.24,0,0,0-31.74,44.17c-7.84,13.6-15.62,27.34-22.06,41.64-8,17.66-14.64,35.9-21.56,54a204.49,204.49,0,0,0-11.14,44.57c-1.4,9.83-2.64,19.78-1,29.76,0,.17-.16.37-.47,1-3.46-3.48-6.91-6.75-10.09-10.27-.75-.84-.89-2.54-.78-3.79.78-8.22,1.46-16.47,2.63-24.65,1.83-12.72,3.69-25.44,6.13-38.05A277.08,277.08,0,0,1,242,442.13c1.46-3.4,3-6.78,4.44-10.17,4.13-5.57,8.39-11.07,12-17,11.75-19.34,25.57-37.16,39.78-54.71,4.52-5.58,8.92-11.26,13.14-17.08C312.18,342,312.94,340.69,314.49,340.27Z" transform="translate(0 0)" fill="#a58981"/><path d="M213.21,754.4c-3.08-1.4-6.24-2.8-9.36-4.27-2.2-1-2.81-2.51-2.41-5.14,1.09-7.18,1.55-14.44,2.46-21.65.47-3.75-1.11-6.8-2.83-9.79-2.43-4.2-9.79-3.69-12.53.94-3.75,6.32-7.26,12.78-11.13,19.62-2.31-1.19-5.12-2.66-8-4.09-6.46-3.25-6.33-3.33-3.38-10.29,2.27-5.35,3.89-11,6-16.41q8.7-22.56,17.58-45.05c1.78-4.51,3.76-8.95,6-14.32,3.55,8,6.5,15.1,9.83,22,5,10.32,10.17,20.51,15.33,30.73,4,7.88,8.08,15.69,12,23.58a4.34,4.34,0,0,1-.06,2.82C229.13,735.27,222.35,745.5,213.21,754.4Z" transform="translate(0 0)" fill="#9d7d72"/><path d="M626.49,786.47c-15.1,8-30.34,15.69-46.65,20.92-12.69,4.07-25.35,8.44-38.31,11.44-11.5,2.66-23.39,3.7-35.12,5.31a103.52,103.52,0,0,1-10.72.69c-15.78.53-31.24-1.83-46.69-4.82-4.37-.84-5.25-2.86-5.51-6.38-.16-2.18-.48-4.34-.78-6.92,6,1,11.31,2.08,16.7,2.82,5.64.77,11.32,1.28,17,1.8a101.62,101.62,0,0,0,10.73.65,155.77,155.77,0,0,0,40.75-5.92c15.19-4.3,29.65-10.43,43.78-17.34,10.49-5.12,20.82-10.57,31.24-15.86a13.63,13.63,0,0,1,1.89-.66c3.52-1.13,7.28-1,10.83-2.15a109.64,109.64,0,0,0,12-5.15,6.82,6.82,0,0,1,8.92,2.28c1.44,2.09,1.47,3.91-.76,5.49-1.19.84-2.3,1.8-3.44,2.71C628.84,778.23,626.25,781.6,626.49,786.47Z" transform="translate(0 0)" fill="#a58981"/><path d="M180.26,636.54q-2.31,5.58-4.6,11.15c-7.35,17.85-15.15,35.52-21.93,53.58a489.52,489.52,0,0,0-18.93,64.54c-2,8.62-3.67,17.29-5.49,25.92-4.31-2.35-5.12-3.88-4.49-8.54a9.55,9.55,0,0,0,.05-1.69c-.61-14.91,1.65-29.55,5.25-43.9,6-24,12.35-48,19.2-71.79,6-20.92,12.94-41.58,19.46-62.35,2.15-2,2.13.45,2.41,1.37.83,2.77,1.09,5.69,2,8.46,2.29,7,4.42,14,6.9,21A3.21,3.21,0,0,1,180.26,636.54Z" transform="translate(0 0)" fill="#a58981"/><path d="M103.36,870.8a42.9,42.9,0,0,0-3.84-2.58c-12.37-6.55-24.74-13.1-37.16-19.55-6.35-3.3-12.67-6.73-19.27-9.47-5.38-2.23-8.25-9.25-6.71-14.32C40.3,812,47.2,800.56,53.29,788.73c2.75-5.35,5.33-10.8,7.62-16.35.77-1.86.29-4.21.54-6.31s.19-4.26,1.17-5.86a11.65,11.65,0,0,0,1-10c-1.86-6-4-11.87-6.2-17.76-1.25-3.43-2.52-6.78,0-10.16,6.19-.46,8.72,4,11.27,8.42,3.22,5.64,6.31,11.38,9.84,16.83,3.26,5,1.86,9.76-.48,14.28-3.34,6.46-7.26,12.62-10.76,19-2.41,4.42-4.54,9-6.78,13.51-2.35,4.71-4.52,9.53-7.06,14.13-5.21,9.44-5.58,14.13,4.78,21.72,7.82,5.74,16.46,10.4,24.89,15.28,9.89,5.73,20,11.16,29.93,16.74.27.15.44.48,1,1.13Z" transform="translate(0 0)" fill="#d98e76"/><path d="M349.7,1003c-3.75-.52-7.48-1.16-11.25-1.5a5.84,5.84,0,0,0-3.87.87A78.69,78.69,0,0,1,295.25,1020c-10.94,1.66-21.84,4.06-33,3.25a155.24,155.24,0,0,1-19.84-3,74.93,74.93,0,0,1-13-4.14c-4-1.64-6.63-4.91-5.89-9.47.69-4.27-.86-8-2.11-11.71-3.72-11-7.67-22-11.68-33-.63-1.72-2.05-3.16-3.1-4.73l6.85-8.91c2.41,3.7,4.81,6.65,6.41,10C227,973,234,987.84,240.78,1002.75c2.9,6.38,7.48,10.58,14.26,11.42a34.74,34.74,0,0,0,12.25-1.19c16.53-4,33.12-7.93,49.42-12.76,7.78-2.3,15-6.47,22.4-10,2.68-1.27,5.82-.82,7,2C347.52,995.71,348.51,999.4,349.7,1003Z" transform="translate(0 0)" fill="#d98e75"/><path d="M653.47,715.52c-4.82-.6-7.47-4.3-10.35-7.48-3.78-4.17-7.07-8.77-10.91-12.86-6.34-6.75-13-13.17-19.42-19.87-4.53-4.76-8.79-9.77-13.2-14.62a18.69,18.69,0,0,0-2.34-1.88c-2.27-.39-2.36-2.5-3-4a57.54,57.54,0,0,0-13.32-20,54.6,54.6,0,0,0-10.16-7.15,10.89,10.89,0,0,1-3.07-2,177.53,177.53,0,0,1-23.22-33.82,9.42,9.42,0,0,1-1.15-4.51c1.25-4.66,2.49-9.31,4-14.85,2.83,3.74,5.11,6.67,7.31,9.66,16.88,22.9,33.59,45.93,50.7,68.67,7.74,10.29,16,20.23,24.48,29.91,7.88,9,16.36,17.48,24.64,26.12a67.74,67.74,0,0,0,5.42,4.49Z" transform="translate(0 0)" fill="#fedcb8"/><path d="M135,611.59c1.6-3.66,3.21-7.3,4.77-11,3.13-7.33,6.17-14.71,9.38-22,2.39-5.42,4.88-10.8,7.54-16.09,3-6,6.14-11.91,9.49-17.71.73-1.27,2.59-1.88,3.93-2.8,2.27,7-2.4,12.43-4.3,18.44-2.52,8-5.7,15.78-8.4,23.72-3.35,9.85-6.53,19.76-9.73,29.66-3.76,11.62-7.54,23.24-11.16,34.9q-5.33,17.14-10.34,34.4c-2.3,7.84-4.5,15.72-6.48,23.65-.58,2.31-1.5,2.68-3.49,2-1.58-.54-3.26-.82-4.78-1.49a2.33,2.33,0,0,1-1.16-1.9c1.52-7,2.94-14,4.87-20.88,2.87-10.2,6.12-20.29,9.23-30.42,3-9.74,6.25-19.41,8.93-29.24C134.43,620.59,134.44,616,135,611.59Z" transform="translate(0 0)" fill="#9d7d72"/><path d="M511.66,611c-2.69-2.33-5.47-4.55-8.06-7-6.84-6.42-7.64-14.56-6.57-23.26a18.57,18.57,0,0,0-.14-6.27c-1.61-7.06-.51-13.79,2-20.38,1.8-4.7,4.34-9.22,5.33-14.06.46-2.22-1.69-5.25-3.22-7.54-2.65-4-5.75-7.6-8.62-11.4a12.19,12.19,0,0,1-1-2.09l2.7-18.47c5.55,7.33,10.55,14,15.56,20.58,2.48,3.27,4.82,6.65,7.5,9.75,1.6,1.85,1.49,3.51.68,5.51a134.12,134.12,0,0,0-8.18,31.77c-.57,4.06-1.5,8.2-1.21,12.24a136.22,136.22,0,0,0,2.88,18c.23,1.11,2,2.22,3.31,2.71,1.73.65,3.73.54,5.53,1a3.87,3.87,0,0,1,2.29,1.81c2.64,5.8,8.19,7.3,13.41,3.5,2.84.57,2.41,2.78,2.23,4.71a5.28,5.28,0,0,1-2,3.78,5.76,5.76,0,0,1-4.24.29c-5.49-1.07-11-2.13-16.5-3.06C514,613,512.15,613,511.66,611Z" transform="translate(0 0)" fill="#fedcb8"/><path d="M88.34,828.87c-2.13-3.17-4.36-6.29-6.38-9.54-4.31-6.93-3.91-19.26,1.92-24.76a17.34,17.34,0,0,1,22-1.69c7,4.73,11.38,11.29,11,20.35a16.53,16.53,0,0,1-10.52,14.35c-5.38,2-10.88,2.34-16.49,2.08Z" transform="translate(0 0)" fill="#806b64"/><path d="M260.51,488.68c.32.45.81,1.32.93,1.28,3.78-1.49,5.18,1.8,7,3.69,10,10.24,19,21.25,23.71,34.93,2.6,7.55,4.43,15.42,1.06,23.5-1.44,3.43-1.53,7.49-3.24,10.73a30.7,30.7,0,0,1-7.52,9.33c-3.4,2.76-7.58,4.61-11.57,6.56-7.49,3.66-15.58,2.46-23.47,2.29-1.68,0-3.32-1.63-5-2.51V567.71a1.63,1.63,0,0,1,1.6.18c8.31,5.66,16.59,3.47,24.94.05s12.45-10.44,14.86-18.5c1.61-5.39.38-11-.78-16.35-2-9.2-6.87-17-12.78-24.19a93.53,93.53,0,0,1-6.56-8.12c-1.51-2.32-4.2-2.82-5.9-4.71C258.72,493.61,259.62,491.15,260.51,488.68Z" transform="translate(0 0)" fill="#feebd9"/><path d="M626.49,786.47c-2.58-2.5-1-5,.54-6.89a77.69,77.69,0,0,1,7.63-7.43,28.14,28.14,0,0,1,2.29-1.77c-1.58-5.27-5.64-6.28-10.92-3.73s-11.25,4.18-17,6c-1.25.39-2.83-.26-4.26-.42,7.74-4.91,15.76-9.43,23.15-14.83,11.63-8.49,22.83-17.56,34.22-26.39,2.45,2.17,3.24,6,1,8.63A150.3,150.3,0,0,1,652,750.67a59.13,59.13,0,0,1-4.85,3.82c1.3,2.18,2.51,4.19,4,6.7a45.78,45.78,0,0,1,5.89-3.72c3.1-1.39,6.32-2.88,9.63-3.36,3.77-.55,5.57,1.4,6.33,5.32-5.39,3.56-10.61,7.4-16.19,10.62-9.59,5.53-19.39,10.68-29.11,16A8.94,8.94,0,0,1,626.49,786.47Z" transform="translate(0 0)" fill="#bda196"/><path d="M158.57,299.07c18,.44,36.08.92,54.12,1.26,3.1.06,6.21-.43,10.26-.74-2.93,2.76-5.16,5-7.53,7.07-2.68,2.37-5.46,4.63-8.24,6.88a3,3,0,0,1-1.77.69c-13.28-.75-26.56-2-39.85-2.26-13.56-.29-27.13.3-40.7.5a5.41,5.41,0,0,1,2.29-5.87c5.74-4.29,12.07-6.91,19.47-6.63A44.53,44.53,0,0,0,158.57,299.07Z" transform="translate(0 0)" fill="#a58981"/><path d="M100.63,313.93c-5.27.85-10.59,1.43-15.79,2.6-11.34,2.56-22.7,5.14-33.9,8.24-10.33,2.87-20.45,6.44-30.85,9.75.52-3.72,1-7.46,1.61-11.17a2.62,2.62,0,0,1,1.5-1.51q19.44-7.95,38.93-15.75a10.4,10.4,0,0,1,2.65-.32c1.46-.75,2.9-.18,4.16.38a15.16,15.16,0,0,0,8.54.82c2.44-.34,4.88-.35,7.33-.45,4.23-.17,8.24-.11,11,4C96.93,312.12,99.53,312.06,100.63,313.93Z" transform="translate(0 0)" fill="#a58981"/><path d="M473.89,795c-.06-1,.28-2.35-.24-3-3.89-4.89-4.64-10.58-5.38-16.58-.67-5.48.09-10.21,2.92-14.76,4.57-7.36,10.68-12,19.83-12.18s16.88,3.41,24.94,7c12,5.41,20.66,14.74,29.85,23.54a15.14,15.14,0,0,0,3,1.77l-9.42,4c-8.42-7.41-16.48-15.28-26.46-20.69a93.28,93.28,0,0,0-10.44-5.36c-5.17-2-10.36-1.93-15.6-1.65-6.19.33-10.32,5.41-10,11.75.06,1.35-.18,2.68-.25,4-.39,7.31,3.68,13,7,18.89.55,1,2,1.63,1.12,3.15Z" transform="translate(0 0)" fill="#fee8d6"/><path d="M467.64,469.56c3.83,4.25,7.17,7.57,10,11.29.9,1.19.86,3.51.52,5.17-1.75,8.52-4.07,16.93-5.53,25.5-1.16,6.8-1.34,13.76-2,20.65-.05.53-.6,1.36-1,1.44-5.33,1-10.67,1.86-16.83,2.9C457.81,513.69,462.65,492,467.64,469.56Z" transform="translate(0 0)" fill="#a58981"/><path d="M314.49,340.27q-7.39,9.94-14.81,19.87c-10.74,14.34-21.61,28.58-32.2,43-6.49,8.85-12.53,18-18.83,27a10.58,10.58,0,0,1-2.21,1.78c10.65-22.43,24-43.26,37.76-63.86,4.21-6.3,8.85-12.46,10.56-20.09a28.85,28.85,0,0,0,.23-5.11q4.74-5,9.46-10.09Z" transform="translate(0 0)" fill="#bda197"/><path d="M100.63,313.93a9.7,9.7,0,0,1-7.51-4.37,3.88,3.88,0,0,0-2.58-1.67,59,59,0,0,0-11,.07c-4.65.66-9.06,1.15-13.1-1.92-.38-.3-1.07-.19-1.62-.27,7.15-1.57,14.24-3.64,21.47-4.6,9-1.19,18.22-1.64,27.36-2.1,8.94-.44,17.9-.64,26.86-.67,6,0,12.07.43,18.1.67-3.13.66-6.23,1.47-9.38,1.92a78.88,78.88,0,0,1-9.34.73c-3.56.1-5.9,2.54-8.77,4-2.71,1.38-4.86,2.87-5.74,5.85a5.1,5.1,0,0,1-.48.89Z" transform="translate(0 0)" fill="#bda197"/><path d="M257.83,496.07c2-.59,3.39.07,4.7,1.64,7.31,8.74,15,17.25,19.5,27.91,3.11,7.36,4.85,15.41,3.16,23s-5.16,14.87-13.32,19.1c-7.77,4-15.44,5.7-23.79,3.88-2.06-.45-3.76-2.54-5.63-3.87v-8.09c.78-.19,1.24.33,1.73.79,8.71,8.11,26.09,4.41,30.71-6.51.69-1.61.44-3.3.73-4.94a3.93,3.93,0,0,1,.62-1.18c2.94-4.1,2.88-5.06-.55-9.71,2.54-5.73-1-10.24-3.22-14.9a81.21,81.21,0,0,0-10.33-15.67,7.48,7.48,0,0,0-5.26-3.14,1.7,1.7,0,0,1-1.59-1.47Z" transform="translate(0 0)" fill="#fee1d0"/><path d="M484.66,795c-3.05-5.23-6.22-10.4-9.05-15.76-.63-1.18,0-3,0-4.52-.08-2.92-.54-5.87-.23-8.74a9.28,9.28,0,0,1,2.41-4.84,14.57,14.57,0,0,1,9.87-5.23c15.24-1.35,26.47,6.92,37.62,15.37,4.27,3.23,8.36,6.69,12.4,10.22.88.77,1.16,2.24,1.72,3.38l-7.45,2.7c-3.42-4.51-8.06-7.71-12.18-11.47a56.8,56.8,0,0,0-12-8c-2.15-3.6-5.41-4.57-9.42-4.35-3.24.18-6.43.69-9.66.94a9.39,9.39,0,0,0-4.59,1.89c-4.44,3.07-4.64,5.64-.69,9.24a4.89,4.89,0,0,1,.86,1c.12.19.15.46.3.59,4.26,3.71,5.3,9.61,9.26,13.53a8.73,8.73,0,0,0,3,2.09c.89.34,2.06.51,1.94,1.91-3.55.27-7.09.62-10.65.75A14.09,14.09,0,0,1,484.66,795Z" transform="translate(0 0)" fill="#fdd9c9"/><path d="M237,602.22c-.53,2.2-.52,4.76-1.71,6.52-2.76,4.09-8,4.51-12.07,1.6-3.54-2.54-7.19-4.91-10.75-7.41-7.58-5.33-10.43-13.38-12.65-21.86a76.68,76.68,0,0,1-2-22c.26-8.15.47-16.29.69-24.44.95-4.72.21-9.53.71-14.28.18-1.66.2-3.38,1.57-4.64a1.24,1.24,0,0,1,1.64,0c-.64,6.78-1.31,13.55-1.91,20.33-.49,5.64-1.36,11.3-1.22,16.94a90.54,90.54,0,0,0,2.15,19.1,14.38,14.38,0,0,0,7.19,9.31c3.43,1.87,6,5.2,9.08,7.81,4.12,3.54,8.16,7.19,12.52,10.4C232.08,601,234.69,601.38,237,602.22Z" transform="translate(0 0)" fill="#fddcb8"/><path d="M922.88,742l-14.57,6.24c-6.7-7.35-9.48-17-12.5-26.5-1-3.13-1.47-6.43-2.41-9.58-.6-2,.1-2.54,2-2.8,2.83-.39,5.61-1.15,8.44-1.53.85-.12,2.31.25,2.62.85,5.45,10.6,10.77,21.28,16.11,31.95A8.85,8.85,0,0,1,922.88,742Z" transform="translate(0 0)" fill="#f8f3e7"/><path d="M839,696.71c5.69-1.6,11.4-3.16,17.08-4.82,4.21-1.23,8.38-2.59,13.17-4.08.48,3.12,1,6.27,1.38,9.44,0,.39-.75,1.11-1.29,1.29q-24.43,8.49-48.9,16.88c-.09,0-.22,0-.33,0-1.87-3.08,0-5.44,2.09-7C827.76,704.43,832.63,699.46,839,696.71Z" transform="translate(0 0)" fill="#f8f3e7"/><path d="M529.89,843.75c-13.16.9-26.33,2.47-39.5,2.5-12.15,0-24.34-1.3-36.45-2.62-6-.66-12-2.44-15.36-8.28-.67-1.14-.38-2.84-.53-4.28,2.77,1.07,5.53,2.15,8.29,3.2a88.41,88.41,0,0,0,28.12,6.14c8.36.33,16.72,1.3,25.06,1.17s16.64-1.27,25-2c.68.84.27,1.42-.69,2.06a19.45,19.45,0,0,1,3.78-.37C529,841.5,530.23,841.89,529.89,843.75Z" transform="translate(0 0)" fill="#fcdcb9"/><path d="M426.51,443.44c-2.67-2.13-5.42-4.15-8-6.4-5.52-4.84-10.94-9.8-16.41-14.69-1.73-1.55-3.48-3.05-5.22-4.57l6.12-11.4,26.68,23.91C428.52,435.16,427.51,439.3,426.51,443.44Z" transform="translate(0 0)" fill="#fddcb8"/><path d="M689.82,767.43c2.43,0,4.87.15,6,2.76,2,4.64-1.81,7.11-4.25,10.42,3,.72,7.45-.23,6.85,4.59-.2,1.62-2.36,3.83-4,4.25-2.43.61-4.75-.77-5.51-3.82-3.23,2.7-6.28,5.88-11.15,4.23-.51-.17-1.3.26-1.87.56-6.39,3.45-9.7,2.2-12.28-4.66Z" transform="translate(0 0)" fill="#bda197"/><path d="M536,615.48c.59-2.68,2.46-5.38-.14-8,1.25-3.87,5.47-2.78,8.37-4.72l-4.11-5c1-3.15,2.09-6.84,3.22-10.53a199.28,199.28,0,0,0,22.38,34.56c.89,1.11,1.76,2.23,2.64,3.35-1.68,1.16-3.28.24-4.79-.32a158.65,158.65,0,0,0-24.48-7.18C537.81,617.36,536.37,617.14,536,615.48Z" transform="translate(0 0)" fill="#fef5e2"/><path d="M180.26,636.54c-1.84-4.88-3.91-9.68-5.44-14.65-1.83-5.92-3.17-12-4.79-18-.07-.25-.82-.32-1.25-.48,2.05-6.23,4.11-12.47,6.4-19.41,1,3.83,1.78,7.08,2.8,10.25,2.89,9,5.91,18,8.81,27.05.35,1.09.72,2.57.26,3.44C185,628.79,182.55,632.64,180.26,636.54Z" transform="translate(0 0)" fill="#9d7d72"/><path d="M498.79,795c-5.12-1-7.27-5.28-10-8.92-.53-.7-1.28-1.61-1.2-2.33.28-2.25-.76-3.19-2.69-3.89-.56-.19-.71-1.49-1.05-2.29,7.32-1.05,14.64-2,21.85-3.72,6.18-.3,9.79,3.93,13.47,7.85,1.4,1.48,1.18,3.28-.73,4.53-4.45.73-9,1.06-13.29,2.37-2,.59-3.31,3.12-4.93,4.78C499.73,793.93,499.27,794.49,498.79,795Z" transform="translate(0 0)" fill="#fdbaae"/><path d="M479.93,550.91c-7.09,10.15-28.62,15.51-38.21,5-4.15-4.53-6.81-9.76-5.64-16.11.29-1.62,1.7-3,2.59-4.53,1.15,3.79,2.19,7.61,3.48,11.35,1.39,4.06,4.72,5.32,8.67,5.52a99.76,99.76,0,0,0,24.25-2C476.58,549.87,478.31,550.64,479.93,550.91Z" transform="translate(0 0)" fill="#fcdcb9"/><path d="M881.74,732.84c-4.34-1.3-8.47-3.73-12.44-3.49-7.7.47-12.37-5.46-19-6.74,0-.28.07-.55.1-.83L877,712.43C878.58,719.37,880.12,726,881.74,732.84Z" transform="translate(0 0)" fill="#da8d75"/><path d="M445.92,446.15c1.75,2,3.63,3.83,5.19,5.93a4.17,4.17,0,0,1,.37,3.09c-2.82,11.14-5.76,22.26-8.6,33.4-.61,2.37-.87,4.84-1.46,7.23-.35,1.46.11,3.82-2.5,3.54s-2.37-2.41-2.13-4.18c1-7.75,2-15.5,3.32-23.21,1.44-8.47,3.21-16.9,4.84-25.34Z" transform="translate(0 0)" fill="#a58982"/><path d="M340.19,415.7c-1.41-1.69-2.95-3.28-4.21-5.07-1.88-2.68-4.29-5.28-5.18-8.29-1.81-6.14,2.05-10.6,8.63-10.86-.22,6.06,2.32,10.92,6.63,15,3.93,3.69,7.91,7.34,11.54,10.71Z" transform="translate(0 0)" fill="#fddcb9"/><path d="M343.66,379.4l-16.33-11.57L335.81,356c4.42,3.2,8.8,6.4,13.22,9.53,1.63,1.16,2.56,1.89.78,4.08C347.39,372.56,345.67,376.1,343.66,379.4Z" transform="translate(0 0)" fill="#fddcb8"/><path d="M839,696.71c-4.71,3.6-9.35,7.29-14.15,10.74-2.8,2-4.81,4.29-4.74,7.92-4.39,2.09-4.36,2.07-7.09-1.87-1.74-2.53-3.68-4.93-5.35-7.5a14.94,14.94,0,0,1-1.17-3.7c8.25-1.47,16.31-2.93,24.38-4.34C833.61,697.49,836.32,697.13,839,696.71Z" transform="translate(0 0)" fill="#fefdfd"/><path d="M276.09,548.89c-.08,1.92.42,4.1-.34,5.7-2.95,6.28-8,10.17-15,10.93a60.35,60.35,0,0,1-10.06,0c-3.9-.23-6.58-2.43-8.26-5.9.22-1.35.45-2.71.67-4.06,3.16,1.53,6.7,1.37,10,1.82,4.9.65,9.87.17,13.34-4.28A9.89,9.89,0,0,1,276.09,548.89Z" transform="translate(0 0)" fill="#fed7c8"/><path d="M255.78,523.73c1.64-5,.72-7-4.43-9.15l2.4-7c1.64-1.2,2.66,0,3.77,1,4.3,3.57,7.09,8.29,9.89,13,2,3.36,3.9,6.74,4.52,10.71.3,1.88.31,3.55-1.19,4.93a24.08,24.08,0,0,1-11.7,2.26,2.68,2.68,0,0,1-2-2.5c1.19-1.63,3.28-.93,5-1.85C259.74,531.43,259.18,526.83,255.78,523.73Z" transform="translate(0 0)" fill="#fdc8ba"/><path d="M438.15,529.81c-6.76-1.62-10.1-7-13.27-12.37a102.31,102.31,0,0,1-6.63-12.71c-1-2.4-.73-5.31-1-8,2,3.29,4.08,6.55,6,9.88,1.59,2.73,4.08,3.84,7,4.39,2.7.5,5.38,1.1,7.9,1.62Z" transform="translate(0 0)" fill="#fddcb8"/><path d="M201.17,515.69c-.68,5.36-1.34,10.73-2,16.09-.13,1-.43,1.89-.65,2.83.2-4.93,0-9.72-2.32-14.33-.8-1.62-.23-3.89-.43-5.85a4.25,4.25,0,0,0-1.56-2.93l-.15,1.38-3.53-.58c1.09-3.77,1.73-7.75,3.38-11.25,2.76-5.87,6.16-11.43,9.29-17.12,1.22,1,1,2.42.91,3.73-.35,3.89-.69,7.78-1.11,11.66-.47,4.37,0,8.87-.74,13.29C202,513.72,202,514.83,201.17,515.69Z" transform="translate(0 0)" fill="#fce6d5"/><path d="M255.78,523.73c1.85-.46,2.83,0,3.49,2.06,1.1,3.41,2.72,6.64,4.2,10.12l-5.74,1.36.82,1.25c-.26,1.62-1.82,1.76-2.85,2.51-2.71,2-6.09,3.47-6.28,7.57a2.6,2.6,0,0,1-1.36,2.34c-1.8-.85-2.67-2.65-3.78-4.23.93-5.27,1.89-10.53,2.77-15.81.34-2.07.63-3.61,3.41-4C252.34,526.67,254,524.85,255.78,523.73Z" transform="translate(0 0)" fill="#fdb7aa"/><path d="M270.69,536.5c-.32-3,.22-6.47-1.12-8.9-3.86-7-7.63-14.18-14-19.44a5.07,5.07,0,0,0-1.86-.57c.52-1.57,1-3.13,1.54-4.7a5.56,5.56,0,0,0,1.74.74,7.3,7.3,0,0,1,6,3.21c4.88,6.67,10.06,13.13,12.57,21.2a.76.76,0,0,0,.14.3c3.3,3.06,2.67,6.25.33,9.51C273.86,539.14,272.2,538.12,270.69,536.5Z" transform="translate(0 0)" fill="#fdd6c6"/><path d="M378.63,415.22l-7.53-6.53c4.31-5.88,8.4-11.43,12.69-17.28,2.29,1.64,4.51,3.08,6.5,4.79a2.62,2.62,0,0,1,.17,2.54C386.71,404.14,382.81,409.45,378.63,415.22Z" transform="translate(0 0)" fill="#a58981"/><path d="M518.45,786.26a6.06,6.06,0,0,0-3.76-7.34,4.65,4.65,0,0,1-2.1-1.39,6.33,6.33,0,0,0-6.4-2.65,14.45,14.45,0,0,1,2.22-6.74c1.53.53,3.33.72,4.54,1.66,4.33,3.37,8.47,7,12.67,10.52.26.21.44.62.72.69,3.37.93,5,3.32,5.57,6.6-1.23-.18-2.73,0-3.65-.62C525.06,784.8,521.77,785.73,518.45,786.26Z" transform="translate(0 0)" fill="#fdccbc"/><path d="M201.17,515.69l2-31.76,8.55-12.85.54.4c-2,8.36-4.06,16.7-5.9,25.09-1.23,5.63-2.1,11.33-3.17,17a13.64,13.64,0,0,1-.78,2.16Z" transform="translate(0 0)" fill="#fac1a6"/><path d="M892.75,156.54c1.73-3.35,3.77-5.07,7.76-1.23,3.81,3.67,7.6,7.11,9.36,12.17.44,1.27,0,2.84,0,4.28a21.11,21.11,0,0,1-3.47-1C900.39,167.7,896.29,162.71,892.75,156.54Z" transform="translate(0 0)" fill="#fdfdfd"/><path d="M365.57,377.76l6.17,4.43c-3.28,5.5-6.49,10.95-9.84,16.31a2.43,2.43,0,0,1-2.36.35,29.88,29.88,0,0,1-3.87-3.23Z" transform="translate(0 0)" fill="#a58981"/><path d="M244.28,546.71l4,2.81.17-1.5c.34,0,.76-.06.93.22,3.06,5,7.86,4.16,12.54,3.8,1.93-.15,4.06-.95,5.38,1.36-.58,1-.95,2.42-1.77,2.74-4.79,1.83-9.56,4.43-14.89,1.65a1.63,1.63,0,0,0-1.29-.11c-2.79,1.32-4.66.09-6.21-2.12C243.51,552.61,243.89,549.66,244.28,546.71Z" transform="translate(0 0)" fill="#fccbbd"/><path d="M529.89,843.75c-1.21-2.67-3.42-1.09-5.23-1.2-1-.07-2-.08-3-.12.75-.57,1.54-1.09,2.23-1.71a3.51,3.51,0,0,0,.59-1.1c5.92-1.09,11.86-2.11,17.76-3.3A142.4,142.4,0,0,1,558,833.56l-16.5,8.85Z" transform="translate(0 0)" fill="#faccae"/><path d="M533,551.85c.3,1.36,1.18,2.91.82,4a209.49,209.49,0,0,1-7.55,20.19q2.7-12.11,5.41-24.2Z" transform="translate(0 0)" fill="#a18a83"/><path d="M188.35,933.44l12.71-1.94c-.31,1.27-.62,2.54-1,4Z" transform="translate(0 0)" fill="#ebcecd"/><path d="M1007.24,384.76c-1.38-5.43-2.8-10.85-4.1-16.3-.59-2.46-.93-5-1.38-7.48Q1004.51,372.88,1007.24,384.76Z" transform="translate(0 0)" fill="#dfa992"/><path d="M772.38,820.67a102.74,102.74,0,0,1-10.51-1.6,9.8,9.8,0,0,1-4.4-2.89c-4.42-4.72-2.72-12.19,3.2-15.54,4.62-2.6,9.55-4.09,14.71-3.31a15.38,15.38,0,0,1,7.45,3.81c2.6,2.36,5.32,3.1,8.24,1.08,1.81-1.26,3.71-2.38,5.58-3.55,3-1.88,5.83-.73,7.89,1.4a6.22,6.22,0,0,1,1.23,7.35c-5,11.44-13.68,19.4-24.23,25.54a7.67,7.67,0,0,1-8.73-1.3,6.56,6.56,0,0,1-1.15-8A15.71,15.71,0,0,0,772.38,820.67Z" transform="translate(0 0)" fill="#a58981"/><path d="M161.32,1025.86c0-12.1,9.34-23.72,21.13-25.29,6.38-.85,11.85,2.07,15.32,7.62,4.57,7.31,4.78,15.09.85,22.68-3.74,7.22-10.42,10.13-18.2,10.57a37.78,37.78,0,0,1-9-.76C164.69,1039.42,161.32,1034.34,161.32,1025.86Z" transform="translate(0 0)" fill="#806b65"/><path d="M23.71,1059l-6-8.93c3-1,5.45-2,8-2.66.5-.12,2,1.22,1.9,1.64-.74,3.36-1.75,6.67-2.67,10Z" transform="translate(0 0)" fill="#e9b7c5"/><path d="M536,615.48c4.34,1.09,8.73,2,13,3.31,6.5,2,12.91,4.2,19.36,6.33,13.91,6.34,22.58,17.3,27.72,31.39a20.71,20.71,0,0,0,1.17,2.3c1.4,7.57,3.79,15.11,3.94,22.7a49.31,49.31,0,0,1-8.08,27.89c-2.38,3.7-4.13,7.84-6.79,11.31-4.18,5.47-10.49,7.63-17,8.87-5.54,1.06-11.23,1.65-16.71-.59a12.51,12.51,0,0,1-2.62-2c-.55-1.4.39-2.34,1.09-3.33a24.77,24.77,0,0,1,6.86-6.4c4.39-2.94,8.57-6.18,12.93-9.14,4.75-3.23,7.47-7.61,9.39-12.77a75.25,75.25,0,0,0,3.16-12.67c-1.48.95-2.15.17-2.49-1.16a25.41,25.41,0,0,1-.33-3,7.78,7.78,0,0,0-10.07-6.68c-6.43,1.7-11.89,9.86-11,16.43a7.81,7.81,0,0,0,10,6.38c1.55-.42,3-1.69,4.77-.81.53,1.35-.28,2.22-1,3-10.25,11.19-21.88,20.34-36.65,24.88-7.55,2.33-15.13,3.36-22.81.52a10.24,10.24,0,0,1-5.54-4.14l-6.7-8c-3.45-3.89-3.37-8.69-3.06-13.36a55.74,55.74,0,0,1,8-24.49A95,95,0,0,1,540.81,638c.93-.55,2.11-.8,2.83-2.1-2.38-.88-4.73-1.6-7.09-2.3a167.5,167.5,0,0,1-26.74-10.28c-1.4-.69-2.93-1.25-3.56-2.9-2-1.73-4.17-3.33-6-5.22s-1.42-3.29,1.18-3.63c3.38-.44,6.83-.42,10.24-.59Z" transform="translate(0 0)" fill="#806b65"/><path d="M506.25,620.44c12.86,6.6,26.5,11.14,40.76,15.16-4.22,2.65-8.28,4.94-12.07,7.62C519.73,654,508,667.63,501.83,685.4c-2.8,8-3.38,16.43-.21,24.68-1.4-.54-3.27-.69-4.13-1.7-3.45-4.08-6.73-8.33-9.82-12.7-6.4-9.06-8.11-19.38-6.87-30.12.43-3.74,2.12-7.49,3.9-10.89,3.61-6.9,8.13-13.35,11.41-20.4C498.63,628.87,502.3,624.63,506.25,620.44Z" transform="translate(0 0)" fill="#fefefe"/><path d="M309.25,716.82c-4.24-7.12-1.36-14.11.39-21.12a31.07,31.07,0,0,1,.91-3.17c1.56-4.37,5.88-6.79,10.16-4.89,10.35,4.62,20.69,9.32,30.68,14.65,9.18,4.91,16.7,12.16,23.85,19.64,5.32,5.57,9.33,12.14,10.67,19.84a13.57,13.57,0,0,1-1.25,7.68c-3.15,6.54-9.59,12.69-18.81,10.7a47.76,47.76,0,0,0-6.23-.56c-4.46.42-8.62-3.42-9.35-8.63-.5-3.6,2.21-6.63,6.59-7.54a28,28,0,0,1,7.37,0c1.33.07,2.69.38,4.15-.31.43-1.9-.81-3.33-1.62-4.86-3.55-6.64-9.73-10.8-15.11-15.67-7.74-7-17.17-11.4-26.43-16-2-1-3.08-.54-3.77,1.57s-1,4.4-1.81,6.49C317.65,719.45,312.76,720.49,309.25,716.82Z" transform="translate(0 0)" fill="#806b65"/><path d="M309.25,716.82c2.48.81,5.09,2.65,7.42.1a14.35,14.35,0,0,0,2.57-4.88c.92-2.59,1.55-5.28,2.49-8.58,6.49,3.39,12.58,6.4,18.5,9.71,9.95,5.57,18.3,13.12,25.7,21.72a26.67,26.67,0,0,1,3.81,6.68c1.11,2.5.19,3.32-2.49,3.14a69.49,69.49,0,0,0-10.6-.1c-4.78.44-6.63,4.59-4.46,8.84,1.63,3.19,3.84,5.44,7.43,6.14-6.41,4.15-12.14,1.26-17.45-2.18-3.69-2.39-6.72-5.77-10.17-8.55-7.29-5.88-13.15-13.08-18.38-20.71C311.4,724.9,310.66,720.63,309.25,716.82Z" transform="translate(0 0)" fill="#fd8f90"/><path d="M508.32,718.12a27.24,27.24,0,0,0,19.15,4.43c19.37-2.38,35.06-15.18,47.11-28.74-1.89.83-3.24,1.54-4.67,2-5.59,1.91-12.11-2.68-11.55-8.52.69-7.38,3.3-13.53,11.86-16.63,5.55-2,12.4,3.27,11.65,8.55a34.3,34.3,0,0,0,0,4c1-1.5,1.55-2.34,2.67-4,0,7.43-2,13.35-4.21,19.28-3,8.19-10.5,11.67-16.83,16.33-4.91,3.62-10.32,6.62-13.44,12.19-1.33.49-2.63,1.08-4,1.45A53.55,53.55,0,0,1,527,730.3C518.67,729.54,512,726.1,508.32,718.12Z" transform="translate(0 0)" fill="#fefefd"/><path d="M365.82,582.57c3.49-2.71,8.45-1.5,11.11,1,2.34,2.17,2.39,8.06.14,11a70.2,70.2,0,0,1-20.73,18c-6.34,3.73-12.94.1-13.81-6.6a8.93,8.93,0,0,1,.44-2.55c.76-.74,1.66-.45,2.54-.33a14.13,14.13,0,0,0,12-4,61.8,61.8,0,0,0,6.31-7.4C366,589,366.29,585.86,365.82,582.57Z" transform="translate(0 0)" fill="#fedcb8"/><path d="M365.82,582.57c2.8,2.67,1.76,5.66-.08,7.95-3.44,4.26-7,8.61-11.23,12-3.15,2.5-7.53,2.67-11.54.9-3.33-4.36-3.12-6.5,1.43-9.85,4.87-3.59,9.92-6.92,14.87-10.4A6.06,6.06,0,0,1,365.82,582.57Z" transform="translate(0 0)" fill="#806b64"/><path d="M266.16,945.54c7.82.51,13.82,2.08,18.79,6.06,6.1,4.9,6.82,11.54,5.14,18.73-1.32,5.67-3.5,11-8.88,13.8s-10.93,4.94-17.42,1.26c-3.58-2-7.74-2.91-10.67-6.26-7.56-8.65-7.15-24.58,3.8-30.65C260.09,946.72,264,946.21,266.16,945.54Z" transform="translate(0 0)" fill="#806b65"/><path d="M97.73,814.11c-3.57-.33-3.91-2.35-3.86-4.41,0-1.61-.87-3.84,1.82-4.33,1.66-.3,6.65,4.43,5.9,5.91S98.73,813.43,97.73,814.11Z" transform="translate(0 0)" fill="#938480"/><path d="M267.28,553.4c-3.26,0-6.52-.08-9.76.14-4.41.29-7.78-.84-9.09-5.52.46-4.93,4.73-6.32,8-8.59a11.79,11.79,0,0,1,2.08-.91l12.14-2,5.4,1.35c4.93,2.93,4.93,7.7,0,11Q271.7,551.16,267.28,553.4Z" transform="translate(0 0)" fill="#816b65"/><path d="M508.41,768.14l-2.22,6.74c-6.4,1.13-12.79,2.3-19.2,3.33-1,.16-2.08-.39-3.13-.61-4.63-3.27-6.2-6.65-3.58-9.18a19.51,19.51,0,0,1,8.45-4.84c3.83-1,8-.72,12-.81C505.25,762.67,506.75,763.81,508.41,768.14Z" transform="translate(0 0)" fill="#806b64"/><path d="M175.73,1025.26c2.07-2.76,3.7-5.49,5.88-7.67,1.94-2,3.62-1.05,4,1.74C186.36,1025,183.2,1027.15,175.73,1025.26Z" transform="translate(0 0)" fill="#908581"/><path d="M273.72,967.54c-.91.84-1.93,2.48-3.29,2.87-2.36.65-5.65-2.3-5.4-4.78a3.58,3.58,0,0,1,2.7-2.27C270,963.42,272.78,963.36,273.72,967.54Z" transform="translate(0 0)" fill="#928581"/></svg>