<svg xmlns="http://www.w3.org/2000/svg" id="d" viewBox="0 0 512 512"><defs><style>.g{fill:#fff}</style></defs><path d="M467.07 167.7c3.51 13.65 5.38 27.96 5.38 42.71 0 94.4-76.53 170.93-170.93 170.93s-170.93-76.53-170.93-170.93S207.12 39.48 301.53 39.48c14.66 0 28.9 1.85 42.48 5.32-27.09-11.3-56.82-17.55-88-17.55C129.67 27.25 27.26 129.66 27.26 256s102.41 228.75 228.75 228.75S484.76 382.34 484.76 256c0-31.3-6.29-61.13-17.68-88.3Z" style="fill:#fbb03b"/><path d="M467.07 167.7c3.51 13.65 5.38 27.96 5.38 42.71 0 94.4-76.53 170.93-170.93 170.93s-170.93-76.53-170.93-170.93S207.12 39.48 301.53 39.48c14.66 0 28.9 1.85 42.48 5.32-27.09-11.3-56.82-17.55-88-17.55C129.67 27.25 27.26 129.66 27.26 256s102.41 228.75 228.75 228.75S484.76 382.34 484.76 256c0-31.3-6.29-61.13-17.68-88.3Z" style="fill:none;stroke:#fff;stroke-linejoin:round;stroke-width:6px"/><path d="M242.47 208.67c-2.97 0-5.74-1.34-7.61-3.68l-16.45-20.6a3.77 3.77 0 0 0-2.95-1.42h-.27l-26.3 1.87c-.24.02-.49.03-.73.03a9.74 9.74 0 0 1-8.58-5.15c-1.73-3.22-1.57-6.96.45-10.01l14.51-22.01c.68-1.04.81-2.35.35-3.5l-9.91-24.43c-1.24-3.06-.9-6.39.94-9.12 1.83-2.72 4.85-4.34 8.08-4.34.88 0 1.77.12 2.64.36l25.42 7a3.735 3.735 0 0 0 3.43-.75l20.17-16.97c1.79-1.51 3.96-2.31 6.26-2.31 5.26 0 9.56 4.1 9.8 9.34l1.2 26.34c.06 1.24.72 2.38 1.78 3.03l22.38 13.94a9.715 9.715 0 0 1 4.56 9.26 9.723 9.723 0 0 1-6.29 8.19l-24.68 9.28a3.795 3.795 0 0 0-2.34 2.63l-6.34 25.59c-1.08 4.37-5 7.43-9.52 7.43Z" style="fill:#ff99c3"/><path d="M251.92 96.64c3.4 0 6.63 2.58 6.8 6.48l1.2 26.34c.1 2.23 1.29 4.26 3.19 5.44l22.38 13.94c4.77 2.97 4.06 10.12-1.2 12.1l-24.68 9.28a6.77 6.77 0 0 0-4.19 4.71l-6.34 25.59c-.81 3.29-3.69 5.15-6.61 5.15-1.93 0-3.87-.81-5.26-2.55l-16.45-20.6a6.76 6.76 0 0 0-5.29-2.55c-.16 0-.32 0-.48.02l-26.3 1.87c-.17.01-.34.02-.51.02-5.31 0-8.62-5.96-5.63-10.51l14.51-22.01a6.77 6.77 0 0 0 .62-6.28l-9.91-24.43c-1.87-4.6 1.65-9.33 6.24-9.33.6 0 1.22.08 1.84.25l25.42 7c.59.16 1.2.24 1.8.24 1.58 0 3.13-.55 4.36-1.59l20.17-16.97c1.31-1.1 2.84-1.6 4.33-1.6m0-6c-2.98 0-5.88 1.07-8.19 3.01l-20.17 16.97c-.14.12-.32.18-.5.18-.07 0-.14 0-.21-.03l-25.42-7c-1.13-.31-2.28-.47-3.43-.47-4.23 0-8.18 2.12-10.57 5.67a12.739 12.739 0 0 0-1.23 11.92l9.91 24.43c.1.24.07.51-.07.72l-14.51 22.01a12.748 12.748 0 0 0-.58 13.08c2.23 4.15 6.53 6.72 11.22 6.72.31 0 .63-.01.94-.03l26.3-1.87h.06c.24 0 .46.1.61.29l16.45 20.6c2.44 3.06 6.07 4.81 9.95 4.81 5.9 0 11.02-3.99 12.43-9.71l6.34-25.59c.06-.25.24-.45.48-.54l24.68-9.28c4.59-1.72 7.73-5.82 8.22-10.7.48-4.88-1.8-9.51-5.96-12.1L266.3 129.8a.804.804 0 0 1-.37-.62l-1.2-26.34c-.31-6.84-5.93-12.21-12.8-12.21Z" class="g"/><path d="M356.32 153.45c-1.95 0-3.86-.8-5.24-2.2a7.214 7.214 0 0 1-2.08-5.22l.23-16.74c0-.43-.2-.83-.55-1.08l-13.66-9.68a7.25 7.25 0 0 1-2.99-7.11c.44-2.77 2.38-5 5.05-5.83l16-4.95c.41-.13.73-.45.86-.86l4.99-15.98a7.288 7.288 0 0 1 6.99-5.13c2.39 0 4.56 1.13 5.95 3.09l9.65 13.68c.24.35.64.55 1.07.55l16.76-.2c2.87 0 5.37 1.55 6.62 4.03 1.25 2.49.98 5.42-.68 7.65l-10.03 13.41c-.26.34-.33.79-.19 1.2l5.36 15.86c.76 2.26.41 4.66-.97 6.58s-3.59 3.07-5.92 3.07c-.8 0-1.6-.13-2.37-.4l-15.85-5.39a1.306 1.306 0 0 0-1.2.19l-13.43 10a7.244 7.244 0 0 1-4.35 1.45Z" style="fill:#79b4e4"/><path d="M365.91 81.67c1.31 0 2.63.58 3.5 1.82l9.65 13.68a4.318 4.318 0 0 0 3.52 1.82h.05l16.74-.2h.05c3.53 0 5.57 4.04 3.44 6.88l-10.03 13.41a4.312 4.312 0 0 0-.63 3.96l5.36 15.86c.98 2.9-1.26 5.69-4.06 5.69-.46 0-.93-.08-1.41-.24l-15.85-5.39a4.306 4.306 0 0 0-3.96.62l-13.43 10c-.8.59-1.69.86-2.55.86-2.25 0-4.36-1.8-4.32-4.37l.23-16.74c.02-1.42-.66-2.75-1.81-3.57l-13.66-9.68c-2.91-2.06-2.19-6.57 1.22-7.62l15.99-4.95a4.341 4.341 0 0 0 2.84-2.83l4.99-15.98c.61-1.96 2.36-3.02 4.13-3.02m0-6c-4.54 0-8.5 2.91-9.85 7.24l-4.72 15.13-15.14 4.69c-3.77 1.17-6.5 4.32-7.13 8.22-.62 3.9.99 7.74 4.22 10.03l12.93 9.17-.22 15.85c-.04 2.78 1.01 5.4 2.95 7.36 1.94 1.96 4.62 3.09 7.37 3.09 2.22 0 4.34-.71 6.14-2.05l12.71-9.47 15.01 5.11c1.09.37 2.21.56 3.34.56 3.3 0 6.42-1.61 8.36-4.32 1.95-2.72 2.46-6.11 1.38-9.29l-5.08-15.02 9.49-12.7c2.35-3.14 2.72-7.28.96-10.78a10.252 10.252 0 0 0-9.21-5.69h-.13l-15.85.19-9.14-12.95a10.307 10.307 0 0 0-8.4-4.36Z" class="g"/><path d="M309.4 352.67c-6.41 0-11.67-4.8-12.25-11.16l-3.24-35.83a6.262 6.262 0 0 0-3.16-4.88l-31.36-17.64c-4.09-2.3-6.48-6.65-6.23-11.34.25-4.69 3.09-8.75 7.41-10.6l33.08-14.16c1.89-.81 3.26-2.5 3.67-4.51l7.09-35.27c1.16-5.8 6.12-9.84 12.06-9.84 3.55 0 6.81 1.49 9.17 4.19l23.69 27.08a6.234 6.234 0 0 0 4.7 2.13c.24 0 .48-.01.72-.04l35.74-4.16c.49-.06.99-.09 1.47-.09 4.43 0 8.39 2.32 10.6 6.22 2.2 3.87 2.15 8.48-.14 12.31l-18.44 30.9a6.258 6.258 0 0 0-.31 5.81l15 32.7c1.75 3.81 1.45 8.18-.81 11.7-2.28 3.55-6.11 5.67-10.26 5.67-.92 0-1.86-.11-2.78-.32l-35.08-7.99c-.46-.1-.92-.16-1.39-.16-1.57 0-3.08.59-4.23 1.65l-26.47 24.37c-2.28 2.1-5.21 3.25-8.25 3.25Z" style="fill:#bcdc54"/><path d="M316.46 200.44c2.49 0 5.01 1 6.91 3.17l23.69 27.08a9.253 9.253 0 0 0 8.03 3.1l35.74-4.16c.38-.04.76-.07 1.13-.07 7 0 11.62 7.74 7.88 13.99l-18.44 30.9a9.235 9.235 0 0 0-.46 8.59l15 32.7c2.89 6.3-1.88 13.11-8.34 13.11-.69 0-1.4-.08-2.12-.24l-35.08-7.99a9.257 9.257 0 0 0-8.31 2.21l-26.47 24.37c-1.84 1.69-4.05 2.46-6.21 2.46-4.49 0-8.79-3.28-9.26-8.43l-3.24-35.83a9.245 9.245 0 0 0-4.68-7.23l-31.36-17.64c-6.68-3.76-6.15-13.55.9-16.56l33.08-14.16a9.26 9.26 0 0 0 5.43-6.68l7.09-35.27c.94-4.69 4.98-7.43 9.12-7.43m0-6c-7.38 0-13.55 5.04-15 12.25l-7.09 35.27a3.237 3.237 0 0 1-1.91 2.35l-33.07 14.16c-5.37 2.3-8.91 7.36-9.23 13.19-.32 5.84 2.65 11.25 7.75 14.11l31.36 17.64c.93.52 1.55 1.47 1.64 2.54l3.24 35.83c.72 7.92 7.27 13.89 15.24 13.89 3.8 0 7.45-1.44 10.28-4.04l26.47-24.37a3.25 3.25 0 0 1 2.92-.78l35.08 7.99c1.14.26 2.3.39 3.45.39 5.17 0 9.95-2.63 12.79-7.05 2.81-4.38 3.19-9.82 1.01-14.57l-15-32.7c-.45-.97-.38-2.1.16-3.02l18.44-30.89c2.85-4.77 2.91-10.5.17-15.33-2.71-4.77-7.77-7.74-13.21-7.74-.6 0-1.21.04-1.82.11l-35.74 4.16c-.12.01-.25.02-.38.02-.94 0-1.83-.4-2.44-1.11l-23.69-27.08c-2.94-3.36-7-5.22-11.43-5.22Z" class="g"/></svg>