<svg xmlns="http://www.w3.org/2000/svg" id="b" viewBox="0 0 512 512"><defs><style>.e{stroke:#fff}.e,.f{fill:none;stroke-miterlimit:10}.g{fill:#fff}.e,.f{stroke-width:16px;stroke-linecap:round}.f{stroke:#fbb03b;stroke-width:10px}</style></defs><path d="M303.3 385.62c-112.29 0-203.31-91.03-203.31-203.31 0-50.85 18.67-97.35 49.53-133C75.81 87.73 25.48 164.82 25.48 253.68c0 127.21 103.12 230.33 230.32 230.33s219.74-92.88 229.52-211.07C452 339.74 383.01 385.63 303.29 385.63Z" style="fill:#fbb03b"/><path d="M303.3 385.62c-112.29 0-203.31-91.03-203.31-203.31 0-50.85 18.67-97.35 49.53-133C75.81 87.73 25.48 164.82 25.48 253.68c0 127.21 103.12 230.33 230.32 230.33s219.74-92.88 229.52-211.07C452 339.74 383.01 385.63 303.29 385.63Z" style="fill:none;stroke-miterlimit:10;stroke:#fff;stroke-width:3px"/><path d="M256.43 484.35c-61.92 0-120.14-24.11-163.92-67.9s-67.9-102-67.9-163.92S48.72 132.39 92.51 88.6c43.79-43.79 102-67.9 163.92-67.9s120.14 24.11 163.92 67.9c43.79 43.79 67.9 102 67.9 163.93s-24.11 120.14-67.9 163.93-102 67.9-163.92 67.9Zm0-460.65c-61.12 0-118.58 23.8-161.8 67.02-43.22 43.22-67.02 100.68-67.02 161.81s23.8 118.58 67.02 161.8c43.22 43.22 100.68 67.02 161.8 67.02s118.58-23.8 161.8-67.02c43.22-43.22 67.02-100.68 67.02-161.8s-23.8-118.58-67.02-161.8c-43.22-43.22-100.68-67.02-161.8-67.02Z" class="g"/><path d="M130.51 375.54c-2.39 0-4.38-1.86-4.52-4.24l-.73-11.71c-.03-.5-.3-.95-.73-1.21l-10.07-6.04a4.485 4.485 0 0 1-2.18-4.24 4.484 4.484 0 0 1 2.84-3.83l10.91-4.32c.46-.18.81-.58.92-1.07l2.63-11.44a4.51 4.51 0 0 1 4.42-3.51c1.34 0 2.6.6 3.47 1.64l7.48 9.05c.29.35.71.55 1.17.55h.13l11.69-1.03c.14-.01.28-.02.41-.02 1.64 0 3.15.9 3.94 2.35.8 1.46.75 3.18-.15 4.59l-6.29 9.91c-.27.42-.31.95-.12 1.41l4.59 10.8c.6 1.4.45 2.99-.38 4.25a4.489 4.489 0 0 1-3.75 2.04c-.38 0-.77-.05-1.14-.15l-11.37-2.92a1.482 1.482 0 0 0-1.37.32l-8.85 7.71c-.84.73-1.86 1.12-2.95 1.12Z" style="fill:#ff99c3"/><path d="M133.99 325.44c.84 0 1.69.35 2.31 1.1l7.48 9.05c.58.7 1.43 1.09 2.32 1.09.09 0 .18 0 .27-.01l11.69-1.03c.09 0 .19-.01.28-.01 2.33 0 3.82 2.6 2.53 4.63l-6.29 9.91c-.53.84-.62 1.88-.23 2.8l4.59 10.8c.87 2.05-.69 4.2-2.76 4.2-.25 0-.51-.03-.77-.1l-11.37-2.92c-.25-.06-.5-.1-.75-.1-.72 0-1.43.26-1.98.74l-8.85 7.71c-.59.51-1.29.75-1.97.75-1.49 0-2.92-1.12-3.03-2.83l-.73-11.71c-.06-.99-.61-1.89-1.46-2.4l-10.07-6.04c-2.14-1.29-1.88-4.47.44-5.39l10.91-4.32c.92-.37 1.61-1.16 1.83-2.13l2.63-11.44c.34-1.49 1.64-2.34 2.96-2.34m0-3c-2.83 0-5.25 1.92-5.88 4.67l-2.63 11.44-10.92 4.33a5.95 5.95 0 0 0-3.78 5.1c-.19 2.3.92 4.46 2.9 5.65l10.07 6.04.74 11.73c.2 3.17 2.84 5.65 6.02 5.65 1.44 0 2.84-.53 3.94-1.48l8.85-7.71 11.38 2.92c.5.13 1.01.19 1.52.19 2.01 0 3.88-1.01 5-2.71 1.11-1.68 1.31-3.8.51-5.67l-4.59-10.8 6.29-9.92a6.02 6.02 0 0 0 .2-6.12 5.994 5.994 0 0 0-5.26-3.12c-.18 0-.36 0-.55.02l-11.69 1.03-7.49-9.05a5.972 5.972 0 0 0-4.62-2.18Z" class="g"/><path d="M278.37 289.1c-2.39 0-4.38-1.86-4.52-4.24l-.73-11.71c-.03-.5-.31-.95-.73-1.21l-10.07-6.04a4.485 4.485 0 0 1-2.18-4.24 4.484 4.484 0 0 1 2.84-3.83l10.91-4.32c.46-.18.81-.58.92-1.07l2.63-11.44a4.51 4.51 0 0 1 4.42-3.51c1.34 0 2.6.6 3.47 1.64l7.48 9.04c.29.35.71.55 1.17.55h.13l11.69-1.03c.14-.01.28-.02.41-.02 1.64 0 3.15.9 3.94 2.34.8 1.46.75 3.18-.15 4.59l-6.29 9.91c-.27.42-.31.95-.12 1.41l4.6 10.8c.6 1.4.45 2.99-.38 4.25a4.513 4.513 0 0 1-3.75 2.04c-.38 0-.77-.05-1.14-.15l-11.37-2.92a1.527 1.527 0 0 0-1.38.32l-8.85 7.71a4.49 4.49 0 0 1-2.95 1.11Z" style="fill:#79b4e4"/><path d="M281.86 239c.84 0 1.69.35 2.31 1.1l7.48 9.05c.58.7 1.43 1.09 2.32 1.09.09 0 .18 0 .27-.01l11.69-1.03c.09 0 .19-.01.28-.01 2.33 0 3.82 2.6 2.53 4.63l-6.29 9.91c-.53.84-.62 1.88-.23 2.8l4.59 10.8c.87 2.05-.69 4.2-2.76 4.2-.25 0-.51-.03-.77-.1l-11.37-2.92c-.25-.06-.5-.1-.75-.1-.72 0-1.43.26-1.98.74l-8.85 7.71c-.59.51-1.29.75-1.97.75-1.49 0-2.92-1.12-3.03-2.83l-.73-11.71c-.06-.99-.61-1.89-1.46-2.4l-10.07-6.04c-2.14-1.29-1.88-4.47.44-5.39l10.91-4.32c.92-.37 1.61-1.16 1.83-2.13l2.63-11.44c.34-1.49 1.64-2.34 2.96-2.34m0-3c-2.83 0-5.25 1.92-5.88 4.67l-2.63 11.44-10.92 4.33c-2.15.85-3.59 2.8-3.78 5.1-.19 2.3.92 4.46 2.9 5.65l10.07 6.04.74 11.73c.2 3.17 2.84 5.65 6.02 5.65 1.44 0 2.84-.53 3.94-1.48l8.85-7.71 11.38 2.92c.5.13 1.01.19 1.52.19 2.01 0 3.88-1.01 5-2.71 1.11-1.68 1.31-3.8.51-5.67l-4.59-10.8 6.29-9.92a6.02 6.02 0 0 0 .2-6.12 5.994 5.994 0 0 0-5.26-3.12c-.18 0-.36 0-.55.02l-11.69 1.03-7.49-9.05a5.972 5.972 0 0 0-4.62-2.18Z" class="g"/><path d="M302.26 409.66c-2.39 0-4.38-1.86-4.52-4.24l-.73-11.71c-.03-.5-.31-.95-.73-1.21l-10.06-6.04c-1.49-.89-2.32-2.52-2.18-4.24s1.23-3.19 2.84-3.83l10.91-4.32c.46-.18.81-.58.92-1.07l2.63-11.44a4.51 4.51 0 0 1 4.42-3.51c1.34 0 2.6.6 3.47 1.64l7.48 9.05c.29.35.71.55 1.17.55h.13l11.69-1.03c.14-.01.28-.02.41-.02 1.64 0 3.15.9 3.94 2.35.8 1.46.75 3.18-.15 4.59l-6.29 9.91c-.27.42-.31.95-.12 1.41l4.59 10.8c.6 1.4.45 2.99-.38 4.25a4.489 4.489 0 0 1-3.75 2.04c-.38 0-.77-.05-1.14-.15l-11.37-2.92a1.527 1.527 0 0 0-1.38.32l-8.85 7.71a4.5 4.5 0 0 1-2.95 1.12Z" style="fill:#bcdc54"/><path d="M305.74 359.56c.84 0 1.69.35 2.31 1.1l7.48 9.05c.58.7 1.43 1.09 2.32 1.09.09 0 .18 0 .27-.01l11.69-1.03c.09 0 .19-.01.28-.01 2.33 0 3.82 2.6 2.53 4.63l-6.29 9.91c-.53.84-.62 1.88-.23 2.8l4.59 10.8c.87 2.05-.69 4.2-2.76 4.2-.25 0-.51-.03-.77-.1l-11.37-2.92c-.25-.06-.5-.1-.75-.1-.72 0-1.43.26-1.98.74l-8.85 7.71c-.59.51-1.29.75-1.97.75-1.49 0-2.92-1.12-3.03-2.83l-.73-11.71c-.06-.99-.61-1.89-1.46-2.4l-10.07-6.04c-2.14-1.29-1.88-4.47.44-5.39l10.91-4.32c.92-.37 1.61-1.16 1.83-2.13l2.63-11.44c.34-1.49 1.64-2.34 2.96-2.34m0-3c-2.83 0-5.25 1.92-5.88 4.67l-2.63 11.44-10.92 4.33c-2.15.85-3.59 2.8-3.78 5.1-.19 2.3.92 4.46 2.9 5.65l10.07 6.04.74 11.73c.2 3.17 2.84 5.65 6.02 5.65 1.44 0 2.84-.53 3.94-1.48l8.85-7.71 11.38 2.92c.5.13 1.01.19 1.52.19 2.01 0 3.88-1.01 5-2.71 1.11-1.68 1.31-3.8.51-5.67l-4.59-10.8 6.29-9.92a6.02 6.02 0 0 0 .2-6.12 5.994 5.994 0 0 0-5.26-3.12c-.18 0-.36 0-.55.02l-11.69 1.03-7.49-9.05a5.972 5.972 0 0 0-4.62-2.18Z" class="g"/><path d="M427.56 143.36 327.22 346.71" class="e"/><path d="M427.56 143.36 327.22 346.71" class="f"/><path d="M255.81 109.23 155.47 312.58" class="e"/><path d="M255.81 109.23 155.47 312.58" class="f"/><path d="M403.67 22.79 303.34 226.14" class="e"/><path d="M403.67 22.79 303.34 226.14" class="f"/></svg>