<svg xmlns="http://www.w3.org/2000/svg" id="d" viewBox="0 0 512 512"><defs><style>.g{fill:#fff}</style></defs><path d="M307.97 408c-112.68 0-204.03-91.35-204.03-204.03 0-69.33 34.59-130.58 87.44-167.45C96.51 64.41 27.25 152.11 27.25 256c0 126.34 102.41 228.75 228.75 228.75 103.99 0 191.76-69.4 219.56-164.41C438.71 373.31 377.39 408 307.97 408Z" style="fill:#fbb03b"/><path d="M307.97 408c-112.68 0-204.03-91.35-204.03-204.03 0-69.33 34.59-130.58 87.44-167.45C96.51 64.41 27.25 152.11 27.25 256c0 126.34 102.41 228.75 228.75 228.75 103.99 0 191.76-69.4 219.56-164.41C438.71 373.31 377.39 408 307.97 408Z" style="fill:none;stroke:#fff;stroke-linejoin:round;stroke-width:6px"/><path d="M238.92 211.12c-3.22 0-6.22-1.45-8.25-3.99l-18.46-23.11a4.584 4.584 0 0 0-3.6-1.73c-.11 0-.22 0-.33.01l-29.5 2.1a10.565 10.565 0 0 1-10.09-5.55c-1.88-3.49-1.7-7.55.49-10.86l16.28-24.7c.83-1.27.99-2.86.42-4.26l-11.12-27.41c-1.35-3.32-.98-6.93 1.02-9.89 1.99-2.95 5.26-4.71 8.76-4.71.96 0 1.92.13 2.86.39l28.52 7.85a4.572 4.572 0 0 0 4.18-.91l22.63-19.04c1.95-1.64 4.29-2.5 6.79-2.5 5.7 0 10.37 4.45 10.63 10.13l1.35 29.55c.07 1.51.88 2.9 2.16 3.7l25.11 15.64c3.45 2.15 5.35 6 4.95 10.04s-3.01 7.45-6.82 8.88l-27.68 10.41a4.607 4.607 0 0 0-2.85 3.2l-7.12 28.71a10.618 10.618 0 0 1-10.33 8.06Z" style="fill:#ff99c3"/><path d="M249.52 85.8c3.81 0 7.43 2.9 7.63 7.27l1.35 29.55c.11 2.5 1.45 4.78 3.57 6.11l25.11 15.64c5.35 3.33 4.55 11.35-1.34 13.57l-27.69 10.41a7.6 7.6 0 0 0-4.7 5.29l-7.12 28.71c-.91 3.69-4.14 5.78-7.42 5.78-2.16 0-4.34-.91-5.9-2.86l-18.46-23.11a7.62 7.62 0 0 0-5.94-2.86c-.18 0-.36 0-.54.02l-29.5 2.1c-.19.01-.39.02-.58.02-5.95 0-9.67-6.69-6.31-11.79l16.28-24.7a7.593 7.593 0 0 0 .7-7.04l-11.12-27.41c-2.09-5.17 1.85-10.47 7-10.47.67 0 1.36.09 2.07.28l28.52 7.85a7.61 7.61 0 0 0 6.92-1.52l22.63-19.04c1.47-1.24 3.18-1.8 4.86-1.8m0-6c-3.21 0-6.23 1.11-8.72 3.21l-22.63 19.04c-.29.24-.66.38-1.03.38-.14 0-.29-.02-.43-.06l-28.52-7.85c-1.2-.33-2.43-.5-3.66-.5-4.5 0-8.7 2.26-11.25 6.04a13.579 13.579 0 0 0-1.31 12.69l11.12 27.41c.2.49.14 1.04-.15 1.48l-16.28 24.7c-2.76 4.18-3 9.52-.62 13.93 2.38 4.42 6.96 7.16 11.95 7.16.33 0 .67-.01 1-.04l29.5-2.1h.11c.49 0 .95.22 1.25.6L228.33 209c2.6 3.25 6.46 5.12 10.59 5.12 6.29 0 11.73-4.25 13.24-10.33l7.12-28.71c.13-.51.5-.93.99-1.11l27.69-10.41c4.88-1.84 8.23-6.2 8.75-11.39.51-5.19-1.92-10.13-6.34-12.89l-25.11-15.64c-.45-.28-.73-.76-.75-1.29l-1.35-29.55c-.33-7.29-6.32-13-13.63-13Z" class="g"/><path d="M359.85 165.73c-2.09 0-4.14-.86-5.62-2.36-1.47-1.49-2.26-3.47-2.23-5.59l.26-18.78c0-.6-.28-1.17-.77-1.52l-15.33-10.86c-2.45-1.74-3.68-4.66-3.2-7.62s2.55-5.36 5.42-6.25l17.94-5.56c.58-.18 1.03-.63 1.21-1.2l5.59-17.93a7.813 7.813 0 0 1 7.49-5.5c2.57 0 4.89 1.21 6.38 3.32l10.83 15.35c.34.48.9.77 1.49.77l18.81-.22c3.08 0 5.75 1.66 7.09 4.32s1.06 5.81-.73 8.19l-11.25 15.04c-.36.48-.46 1.11-.27 1.68l6.01 17.8c.82 2.42.44 4.99-1.04 7.06-1.48 2.06-3.85 3.29-6.35 3.29-.86 0-1.72-.14-2.55-.43l-17.79-6.05c-.19-.06-.39-.1-.59-.1-.4 0-.77.13-1.09.36l-15.07 11.22a7.753 7.753 0 0 1-4.66 1.56Z" style="fill:#79b4e4"/><path d="M370.61 85.56c1.47 0 2.95.66 3.93 2.05l10.83 15.35a4.845 4.845 0 0 0 3.95 2.04h.06l18.78-.22h.06c3.96 0 6.25 4.53 3.86 7.72l-11.25 15.04a4.832 4.832 0 0 0-.71 4.44l6.01 17.8c1.1 3.26-1.42 6.38-4.55 6.38-.51 0-1.05-.08-1.58-.27l-17.78-6.05c-.51-.17-1.03-.26-1.55-.26-1.03 0-2.04.33-2.88.96l-15.07 11.22c-.89.67-1.89.96-2.86.96-2.52 0-4.89-2.02-4.85-4.9l.26-18.78c.02-1.59-.74-3.09-2.04-4.01l-15.33-10.86c-3.27-2.31-2.46-7.37 1.36-8.55l17.94-5.56a4.825 4.825 0 0 0 3.18-3.17l5.59-17.93c.68-2.2 2.65-3.39 4.63-3.39m0-6c-4.78 0-8.94 3.06-10.36 7.61l-5.41 17.35-17.36 5.38c-3.97 1.23-6.84 4.54-7.49 8.64-.65 4.1 1.04 8.14 4.43 10.54l14.82 10.51-.25 18.17c-.04 2.93 1.06 5.67 3.1 7.74 2.04 2.06 4.86 3.25 7.75 3.25 2.33 0 4.56-.74 6.45-2.15l14.57-10.85 17.2 5.85c1.14.39 2.32.59 3.51.59 3.46 0 6.75-1.7 8.79-4.54 2.05-2.86 2.58-6.42 1.45-9.77l-5.82-17.21 10.88-14.55c2.47-3.3 2.86-7.65 1.01-11.33a10.773 10.773 0 0 0-9.68-5.98h-.14l-18.17.21-10.48-14.85c-2.06-2.92-5.28-4.59-8.83-4.59Z" class="g"/><path d="M304 388.67c-7 0-12.75-5.24-13.38-12.18l-3.64-40.2a7.36 7.36 0 0 0-3.73-5.76l-35.18-19.79a13.286 13.286 0 0 1-6.8-12.38c.28-5.12 3.38-9.56 8.09-11.57l37.11-15.88a7.398 7.398 0 0 0 4.33-5.33l7.95-39.57c1.27-6.33 6.69-10.75 13.17-10.75 3.87 0 7.43 1.63 10.01 4.58l26.57 30.38a7.372 7.372 0 0 0 6.4 2.47l40.09-4.67c.54-.06 1.08-.09 1.61-.09 4.83 0 9.16 2.54 11.58 6.79 2.4 4.23 2.35 9.26-.15 13.44l-20.68 34.66a7.384 7.384 0 0 0-.37 6.85l16.83 36.69c1.91 4.16 1.58 8.94-.88 12.77-2.49 3.88-6.67 6.19-11.2 6.19-1.01 0-2.03-.12-3.04-.35l-39.36-8.96a7.56 7.56 0 0 0-1.64-.18c-1.86 0-3.63.69-5 1.95L313 385.12c-2.49 2.29-5.68 3.55-9 3.55Z" style="fill:#bcdc54"/><path d="M311.93 218.24c2.79 0 5.63 1.12 7.75 3.55l26.57 30.38a10.362 10.362 0 0 0 9.01 3.47l40.09-4.67c.43-.05.85-.07 1.26-.07 7.85 0 13.03 8.68 8.85 15.7l-20.68 34.66a10.381 10.381 0 0 0-.52 9.64l16.83 36.69c3.24 7.06-2.11 14.71-9.36 14.71-.77 0-1.57-.09-2.38-.27l-39.36-8.96c-.76-.17-1.54-.26-2.3-.26-2.58 0-5.09.96-7.03 2.74l-29.69 27.34c-2.06 1.9-4.54 2.76-6.97 2.76-5.03 0-9.87-3.68-10.39-9.45l-3.64-40.2c-.31-3.4-2.27-6.43-5.25-8.11l-35.18-19.79c-7.49-4.22-6.9-15.2 1-18.58l37.11-15.88a10.37 10.37 0 0 0 6.09-7.49l7.95-39.57c1.06-5.26 5.59-8.34 10.23-8.34m0-6c-7.93 0-14.55 5.41-16.11 13.16l-7.95 39.57a4.365 4.365 0 0 1-2.57 3.16l-37.11 15.88c-5.77 2.47-9.57 7.9-9.91 14.17-.34 6.27 2.85 12.08 8.32 15.16l35.18 19.79a4.36 4.36 0 0 1 2.21 3.42l3.64 40.2c.77 8.5 7.81 14.91 16.36 14.91 4.07 0 7.99-1.54 11.04-4.34l29.69-27.34a4.34 4.34 0 0 1 3.93-1.05l39.36 8.96c1.23.28 2.47.42 3.71.42 5.56 0 10.69-2.83 13.73-7.57 3.02-4.7 3.42-10.55 1.08-15.64l-16.83-36.69c-.6-1.31-.52-2.83.22-4.07l20.68-34.66c3.06-5.13 3.13-11.28.19-16.46-2.91-5.12-8.34-8.31-14.18-8.31-.65 0-1.31.04-1.96.11l-40.09 4.67a4.361 4.361 0 0 1-3.8-1.47l-26.57-30.38c-3.16-3.61-7.52-5.6-12.27-5.6Z" class="g"/></svg>