<svg xmlns="http://www.w3.org/2000/svg" viewBox="0 0 2242 768"><defs><style>.e{stroke:#fff}.e,.f{fill:none;stroke-miterlimit:10}.g{fill:#fff}.h{fill:#ff99c3}.k{fill:#79b4e4}.l{fill:#4d4d4d}@media (prefers-color-scheme:dark){.l{fill:#fff}}.e,.f{stroke-width:16px;stroke-linecap:round}.f{stroke:#fbb03b;stroke-width:10px}</style></defs><g id="b"><path d="M483.53 545.02c-128.96 0-233.51-104.55-233.51-233.51 0-58.41 21.44-111.8 56.89-152.75-84.65 44.12-142.45 132.66-142.45 234.72 0 146.1 118.44 264.54 264.54 264.54s252.37-106.67 263.61-242.43c-38.27 76.72-117.51 129.43-209.07 129.43Z" style="fill:#fbb03b"/><path d="M483.53 545.02c-128.96 0-233.51-104.55-233.51-233.51 0-58.41 21.44-111.8 56.89-152.75-84.65 44.12-142.45 132.66-142.45 234.72 0 146.1 118.44 264.54 264.54 264.54s252.37-106.67 263.61-242.43c-38.27 76.72-117.51 129.43-209.07 129.43Z" style="fill:none;stroke-miterlimit:10;stroke:#fff;stroke-width:3px"/><path d="M429.7 658.19c-71.06 0-137.87-27.67-188.12-77.92s-77.92-117.06-77.92-188.12 27.67-137.87 77.92-188.12 117.05-77.92 188.12-77.92 137.87 27.67 188.12 77.92 77.92 117.05 77.92 188.12-27.67 137.87-77.92 188.12-117.05 77.92-188.12 77.92Zm0-529.07c-70.26 0-136.31 27.36-185.99 77.04-49.68 49.68-77.04 115.73-77.04 185.99s27.36 136.31 77.04 186c49.68 49.68 115.73 77.04 185.99 77.04s136.31-27.36 185.99-77.04c49.68-49.68 77.04-115.74 77.04-186s-27.36-136.31-77.04-185.99c-49.68-49.68-115.73-77.04-185.99-77.04Z" class="g"/><path d="M285.07 533.22c-2.62 0-4.81-2.05-4.97-4.66l-.84-13.45a1.96 1.96 0 0 0-.95-1.56l-11.56-6.93a4.956 4.956 0 0 1-2.4-4.66c.16-1.9 1.35-3.51 3.12-4.21l12.53-4.96c.6-.24 1.05-.76 1.19-1.39l3.02-13.14c.52-2.27 2.52-3.85 4.86-3.85 1.47 0 2.86.66 3.81 1.8l8.59 10.39c.37.45.93.71 1.51.71h.17l13.43-1.19a4.943 4.943 0 0 1 4.79 2.56c.88 1.61.82 3.5-.16 5.05l-7.23 11.38c-.35.55-.4 1.23-.15 1.82l5.28 12.4c.65 1.54.5 3.29-.42 4.67-.93 1.4-2.47 2.24-4.13 2.24-.42 0-.84-.05-1.26-.16l-13.06-3.36a1.993 1.993 0 0 0-1.78.42l-10.17 8.85c-.92.8-2.04 1.23-3.24 1.23Z" class="h"/><path d="M289.08 475.9c.96 0 1.94.4 2.65 1.26l8.59 10.39c.66.8 1.64 1.26 2.67 1.26.1 0 .2 0 .31-.01l13.43-1.19c.11 0 .22-.01.32-.01 2.68 0 4.39 2.99 2.91 5.32l-7.23 11.38a3.45 3.45 0 0 0-.26 3.21l5.28 12.4c1 2.36-.79 4.83-3.17 4.83-.29 0-.58-.04-.89-.11l-13.06-3.36c-.29-.07-.57-.11-.86-.11-.83 0-1.64.3-2.28.85l-10.17 8.85c-.68.59-1.48.86-2.26.86-1.72 0-3.35-1.28-3.48-3.25l-.84-13.45a3.44 3.44 0 0 0-1.68-2.75l-11.56-6.93c-2.46-1.48-2.16-5.14.51-6.19l12.53-4.96a3.443 3.443 0 0 0 2.1-2.45l3.02-13.14c.39-1.71 1.88-2.69 3.39-2.69m0-3c-3.04 0-5.64 2.06-6.32 5.02l-3.02 13.14c-.03.15-.14.27-.28.33l-12.53 4.96a6.428 6.428 0 0 0-4.07 5.48c-.2 2.47.99 4.8 3.12 6.07l11.56 6.93c.13.08.22.22.22.37l.84 13.45c.21 3.4 3.06 6.07 6.47 6.07 1.55 0 3.05-.57 4.23-1.59l10.17-8.85c.08-.07.19-.11.31-.11.04 0 .08 0 .12.01l13.06 3.36c.54.14 1.09.21 1.63.21 2.16 0 4.17-1.09 5.38-2.91a6.44 6.44 0 0 0 .55-6.09l-5.28-12.4c-.06-.14-.05-.3.04-.43l7.23-11.38a6.398 6.398 0 0 0 .21-6.58 6.457 6.457 0 0 0-5.65-3.36c-.19 0-.39 0-.59.03l-13.43 1.19c-.18 0-.3-.06-.39-.17l-8.59-10.39a6.423 6.423 0 0 0-4.96-2.35Z" class="g"/><path d="M454.9 433.93c-2.63 0-4.81-2.05-4.97-4.66l-.84-13.45a1.96 1.96 0 0 0-.95-1.56l-11.56-6.93a4.93 4.93 0 0 1-2.39-4.66c.16-1.9 1.35-3.51 3.12-4.21l12.53-4.96c.6-.24 1.05-.76 1.19-1.39l3.02-13.14c.52-2.27 2.52-3.85 4.86-3.85 1.47 0 2.86.66 3.81 1.8l8.59 10.39c.37.45.93.71 1.51.71h.17l13.43-1.19a4.97 4.97 0 0 1 4.79 2.56c.88 1.61.82 3.5-.16 5.05l-7.23 11.38c-.35.55-.4 1.23-.15 1.82l5.28 12.4c.65 1.54.5 3.29-.42 4.67-.93 1.4-2.47 2.24-4.13 2.24-.42 0-.84-.05-1.26-.16l-13.06-3.36a1.993 1.993 0 0 0-1.78.42l-10.17 8.85c-.92.8-2.04 1.23-3.24 1.23Z" class="k"/><path d="M458.9 376.62c.96 0 1.94.4 2.65 1.26l8.59 10.39c.66.8 1.64 1.26 2.67 1.26.1 0 .2 0 .31-.01l13.43-1.19c.11 0 .22-.01.32-.01 2.68 0 4.39 2.99 2.91 5.32l-7.23 11.38a3.45 3.45 0 0 0-.26 3.21l5.28 12.4c1 2.36-.79 4.83-3.17 4.83-.29 0-.58-.04-.89-.11l-13.06-3.36c-.29-.07-.57-.11-.86-.11-.83 0-1.64.3-2.28.85l-10.17 8.85c-.68.59-1.48.86-2.26.86-1.72 0-3.35-1.28-3.48-3.25l-.84-13.45a3.44 3.44 0 0 0-1.68-2.75l-11.56-6.93c-2.46-1.48-2.16-5.14.51-6.19l12.53-4.96a3.443 3.443 0 0 0 2.1-2.45l3.02-13.14c.39-1.71 1.88-2.69 3.39-2.69m0-3c-3.04 0-5.64 2.06-6.32 5.02l-3.02 13.14c-.03.15-.14.27-.28.33l-12.53 4.96c-2.3.91-3.86 3.01-4.07 5.48-.2 2.47.99 4.8 3.12 6.07l11.56 6.93c.13.08.22.22.22.37l.84 13.45c.21 3.4 3.06 6.07 6.47 6.07 1.55 0 3.05-.57 4.23-1.59l10.17-8.85c.08-.07.19-.11.31-.11.04 0 .08 0 .12.01l13.06 3.36c.54.14 1.09.21 1.63.21 2.16 0 4.17-1.09 5.38-2.91a6.44 6.44 0 0 0 .55-6.09l-5.28-12.4c-.06-.14-.05-.3.04-.43l7.23-11.38a6.398 6.398 0 0 0 .21-6.58 6.457 6.457 0 0 0-5.65-3.36c-.19 0-.39 0-.59.03l-13.43 1.19c-.18 0-.3-.06-.39-.17l-8.59-10.39a6.423 6.423 0 0 0-4.96-2.35Z" class="g"/><path d="M482.33 572.41c-2.62 0-4.81-2.05-4.97-4.66l-.84-13.45a1.96 1.96 0 0 0-.95-1.56l-11.56-6.93a4.956 4.956 0 0 1-2.4-4.66c.16-1.9 1.35-3.51 3.12-4.21l12.53-4.96c.6-.24 1.05-.76 1.19-1.39l3.02-13.14c.52-2.27 2.52-3.85 4.86-3.85 1.47 0 2.86.66 3.81 1.8l8.59 10.39c.37.45.93.71 1.51.71h.17l13.43-1.19a4.943 4.943 0 0 1 4.79 2.56c.88 1.61.82 3.5-.16 5.05l-7.23 11.38c-.35.55-.4 1.23-.15 1.82l5.28 12.4c.65 1.54.5 3.29-.42 4.67-.93 1.4-2.47 2.24-4.13 2.24-.42 0-.84-.05-1.26-.16l-13.06-3.36a1.993 1.993 0 0 0-1.78.42l-10.17 8.85c-.92.8-2.04 1.23-3.24 1.23Z" style="fill:#bcdc54"/><path d="M486.34 515.09c.96 0 1.94.4 2.65 1.26l8.59 10.39c.66.8 1.64 1.26 2.67 1.26.1 0 .2 0 .31-.01l13.43-1.19c.11 0 .22-.01.32-.01 2.68 0 4.39 2.99 2.91 5.32l-7.23 11.38a3.45 3.45 0 0 0-.26 3.21l5.28 12.4c1 2.36-.79 4.83-3.17 4.83-.29 0-.58-.04-.89-.11l-13.06-3.36c-.29-.07-.57-.11-.86-.11-.83 0-1.64.3-2.28.85l-10.17 8.85c-.68.59-1.48.86-2.26.86-1.72 0-3.35-1.28-3.48-3.25l-.84-13.45a3.44 3.44 0 0 0-1.68-2.75l-11.56-6.93c-2.46-1.48-2.16-5.14.51-6.19l12.53-4.96a3.443 3.443 0 0 0 2.1-2.45l3.02-13.14c.39-1.71 1.88-2.69 3.39-2.69m0-3c-3.04 0-5.64 2.06-6.32 5.02l-3.02 13.14c-.03.15-.14.27-.28.33l-12.53 4.96a6.428 6.428 0 0 0-4.07 5.48c-.2 2.47.99 4.8 3.12 6.07l11.56 6.93c.13.08.22.22.22.37l.84 13.45c.21 3.4 3.06 6.07 6.47 6.07 1.55 0 3.05-.57 4.23-1.59l10.17-8.85c.08-.07.19-.11.31-.11.04 0 .08 0 .12.01l13.06 3.36c.54.14 1.09.21 1.63.21 2.16 0 4.17-1.09 5.38-2.91a6.44 6.44 0 0 0 .55-6.09l-5.28-12.4c-.06-.14-.05-.3.04-.43l7.23-11.38a6.398 6.398 0 0 0 .21-6.58 6.457 6.457 0 0 0-5.65-3.36c-.19 0-.39 0-.59.03l-13.43 1.19c-.18 0-.3-.06-.39-.17l-8.59-10.39a6.423 6.423 0 0 0-4.96-2.35Z" class="g"/><path d="M626.25 266.77 511.01 500.32" class="e"/><path d="M626.25 266.77 511.01 500.32" class="f"/><path d="M428.99 227.58 313.75 461.13" class="e"/><path d="M428.99 227.58 313.75 461.13" class="f"/><path d="M598.81 128.29 483.57 361.85" class="e"/><path d="M598.81 128.29 483.57 361.85" class="f"/></g><g id="c"><path d="M922.69 353.75c7.33 4.67 13.1 11.13 17.3 19.4 4.2 8.27 6.3 17.6 6.3 28s-2.1 19.8-6.3 28.2c-4.2 8.4-9.97 14.93-17.3 19.6-7.34 4.67-15.4 7-24.2 7-6.93 0-13.4-1.53-19.4-4.6-6-3.07-10.87-6.87-14.6-11.4v5.8c0 2.67-.9 4.93-2.7 6.8-1.8 1.87-4.1 2.8-6.9 2.8s-4.9-.9-6.7-2.7c-1.8-1.8-2.7-4.1-2.7-6.9v-130.2c0-2.8.87-5.1 2.6-6.9 1.73-1.8 4-2.7 6.8-2.7s5.1.93 6.9 2.8c1.8 1.87 2.7 4.13 2.7 6.8v48.8c3.2-4.8 7.87-8.93 14-12.4 6.13-3.47 12.67-5.2 19.6-5.2 9.07 0 17.27 2.33 24.6 7Zm-10.2 79.7c4.93-3.27 8.77-7.73 11.5-13.4 2.73-5.67 4.1-11.96 4.1-18.9s-1.37-13.2-4.1-18.8c-2.73-5.6-6.57-10-11.5-13.2-4.93-3.2-10.47-4.8-16.6-4.8s-11.87 1.6-16.8 4.8c-4.93 3.2-8.77 7.57-11.5 13.1-2.73 5.53-4.1 11.83-4.1 18.9s1.37 13.4 4.1 19c2.73 5.6 6.57 10.03 11.5 13.3 4.93 3.27 10.53 4.9 16.8 4.9s11.67-1.63 16.6-4.9Zm73.6 17.7c-1.87 1.87-4.13 2.8-6.8 2.8s-4.9-.93-6.7-2.8c-1.8-1.87-2.7-4.13-2.7-6.8v-128.8c0-2.67.93-4.93 2.8-6.8 1.87-1.87 4.13-2.8 6.8-2.8s4.9.93 6.7 2.8c1.8 1.87 2.7 4.13 2.7 6.8v128.8c0 2.67-.93 4.93-2.8 6.8Zm124.99-21.6c-4.67 8.27-11.04 14.73-19.1 19.4-8.07 4.67-16.97 7-26.7 7s-18.63-2.33-26.7-7-14.43-11.13-19.1-19.4c-4.67-8.27-7-17.6-7-28s2.33-19.8 7-28.2c4.67-8.4 11.03-14.93 19.1-19.6 8.07-4.67 16.96-7 26.7-7s18.63 2.33 26.7 7 14.43 11.2 19.1 19.6c4.67 8.4 7 17.8 7 28.2s-2.33 19.73-7 28Zm-16.5-47.3c-3-5.67-7.07-10.07-12.2-13.2-5.13-3.13-10.83-4.7-17.1-4.7s-11.97 1.57-17.1 4.7c-5.13 3.13-9.2 7.54-12.2 13.2-3 5.67-4.5 12.1-4.5 19.3s1.5 13.4 4.5 19 7.07 9.97 12.2 13.1c5.13 3.13 10.83 4.7 17.1 4.7s11.97-1.57 17.1-4.7c5.13-3.13 9.2-7.5 12.2-13.1s4.5-11.93 4.5-19-1.5-13.63-4.5-19.3Zm140-31.8c1.8 1.8 2.7 4.17 2.7 7.1v88c0 10.8-2.3 19.83-6.9 27.1-4.6 7.27-10.83 12.63-18.7 16.1-7.87 3.47-16.73 5.2-26.6 5.2-5.33 0-11.57-.93-18.7-2.8-7.13-1.87-11.7-3.8-13.7-5.8-4.13-2.13-6.2-4.8-6.2-8 0-.8.27-1.87.8-3.2 1.46-3.33 3.93-5 7.4-5 1.73 0 3.6.4 5.6 1.2 10.67 4.13 19 6.2 25 6.2 10.67 0 18.83-2.57 24.5-7.7 5.67-5.13 8.5-12.17 8.5-21.1v-10.8c-2.8 5.2-7.5 9.67-14.1 13.4-6.6 3.73-13.57 5.6-20.9 5.6-9.2 0-17.6-2.33-25.2-7-7.6-4.67-13.57-11.17-17.9-19.5-4.33-8.33-6.5-17.7-6.5-28.1s2.17-19.77 6.5-28.1c4.33-8.33 10.27-14.83 17.8-19.5 7.53-4.67 15.83-7 24.9-7 7.33 0 14.17 1.67 20.5 5s11.3 7.4 14.9 12.2v-6.4c0-2.8.87-5.13 2.6-7s4-2.8 6.8-2.8 5.1.9 6.9 2.7Zm-31.7 83.2c5.07-3.13 9.03-7.53 11.9-13.2 2.87-5.67 4.3-12.03 4.3-19.1s-1.43-13.4-4.3-19-6.83-10-11.9-13.2c-5.07-3.2-10.87-4.8-17.4-4.8s-12.13 1.6-17.2 4.8c-5.07 3.2-9.04 7.63-11.9 13.3-2.87 5.67-4.3 11.97-4.3 18.9s1.43 13.23 4.3 18.9c2.87 5.67 6.83 10.1 11.9 13.3 5.07 3.2 10.8 4.8 17.2 4.8s12.33-1.57 17.4-4.7Z" class="l"/><path d="M1264.98 451.15c-1.67-1.73-2.5-4.27-2.5-7.6v-3.8c0-3.2.83-5.67 2.5-7.4 1.67-1.73 4.1-2.6 7.3-2.6h2c3.33 0 5.83.87 7.5 2.6s2.5 4.2 2.5 7.4v3.8c0 6.8-3.33 10.2-10 10.2h-2c-3.2 0-5.63-.87-7.3-2.6Z" class="k"/><path d="M1301.88 432.15c0-2.67 1.4-4.93 4.2-6.8 1.33-.93 2.87-1.4 4.6-1.4 2.4 0 4.6 1 6.6 3 4 4.53 8.3 7.93 12.9 10.2 4.6 2.27 10.1 3.4 16.5 3.4 5.07-.13 9.53-1.3 13.4-3.5 3.87-2.2 5.8-5.77 5.8-10.7 0-4.53-1.97-8-5.9-10.4-3.93-2.4-9.7-4.6-17.3-6.6-7.47-2-13.67-4.1-18.6-6.3-4.93-2.2-9.1-5.4-12.5-9.6-3.4-4.2-5.1-9.7-5.1-16.5 0-6 1.7-11.27 5.1-15.8 3.4-4.53 7.93-8.07 13.6-10.6 5.67-2.53 11.83-3.8 18.5-3.8s12.77 1.2 19.1 3.6c6.33 2.4 11.5 6.07 15.5 11 1.6 1.87 2.4 3.8 2.4 5.8 0 2.13-1.07 4.2-3.2 6.2-1.33 1.2-3 1.8-5 1.8-2.4 0-4.33-.8-5.8-2.4-2.8-3.2-6.23-5.67-10.3-7.4-4.07-1.73-8.57-2.6-13.5-2.6s-9.37 1.03-12.9 3.1c-3.53 2.07-5.3 5.57-5.3 10.5.13 4.67 2.17 8.13 6.1 10.4 3.93 2.27 9.97 4.47 18.1 6.6 7.07 1.87 12.93 3.87 17.6 6 4.67 2.13 8.6 5.3 11.8 9.5 3.2 4.2 4.8 9.7 4.8 16.5 0 6.27-1.8 11.7-5.4 16.3-3.6 4.6-8.3 8.13-14.1 10.6-5.8 2.47-11.97 3.7-18.5 3.7-8.4 0-16.17-1.47-23.3-4.4-7.13-2.93-13.17-7.6-18.1-14-1.2-1.87-1.8-3.67-1.8-5.4Zm189 6.8c1.73 1.73 2.6 3.87 2.6 6.4s-.87 4.6-2.6 6.2c-1.73 1.6-3.87 2.4-6.4 2.4h-71c-2.67 0-4.87-.83-6.6-2.5-1.73-1.67-2.6-3.9-2.6-6.7 0-2.4.93-4.67 2.8-6.8l44.6-48.4c12.4-13.2 18.6-24.87 18.6-35 0-7.2-2.37-13.17-7.1-17.9-4.73-4.73-10.77-7.1-18.1-7.1-4.93 0-9.67 1.4-14.2 4.2-4.53 2.8-8.2 6.8-11 12-2.13 2.8-4.67 4.2-7.6 4.2-2.27 0-4.4-.87-6.4-2.6s-3-3.73-3-6c0-1.47.5-3 1.5-4.6 1-1.6 2.43-3.47 4.3-5.6 4.4-5.87 10-10.53 16.8-14 6.8-3.47 13.67-5.2 20.6-5.2 8.93 0 16.67 1.8 23.2 5.4 6.53 3.6 11.57 8.53 15.1 14.8 3.53 6.27 5.3 13.47 5.3 21.6 0 15.33-8.27 31.87-24.8 49.6l-30.2 33h49.8c2.53 0 4.67.87 6.4 2.6Zm113.4-49v54.4c0 2.67-.9 4.93-2.7 6.8-1.8 1.87-4.1 2.8-6.9 2.8s-4.9-.93-6.7-2.8c-1.8-1.87-2.7-4.13-2.7-6.8v-54.2c0-7.87-1.8-14.13-5.4-18.8-3.6-4.67-9.47-7-17.6-7-5.33 0-10.17 1.17-14.5 3.5s-7.73 5.47-10.2 9.4c-2.47 3.93-3.7 8.23-3.7 12.9v54.2c0 2.67-.9 4.93-2.7 6.8-1.8 1.87-4.1 2.8-6.9 2.8s-5.07-.9-6.8-2.7c-1.73-1.8-2.6-4.1-2.6-6.9v-85.6c0-2.67.9-4.93 2.7-6.8 1.8-1.87 4.03-2.8 6.7-2.8 2.8 0 5.1.93 6.9 2.8 1.8 1.87 2.7 4.13 2.7 6.8v7c3.47-5.33 8.3-9.83 14.5-13.5 6.2-3.67 12.83-5.5 19.9-5.5 24 0 36 14.4 36 43.2Z" class="l"/><path d="M1632.17 451.15c-1.67-1.73-2.5-4.27-2.5-7.6v-3.8c0-3.2.83-5.67 2.5-7.4 1.67-1.73 4.1-2.6 7.3-2.6h2c3.33 0 5.83.87 7.5 2.6s2.5 4.2 2.5 7.4v3.8c0 6.8-3.33 10.2-10 10.2h-2c-3.2 0-5.63-.87-7.3-2.6Z" class="h"/><path d="M1705.27 367.75v59.6c0 6.67 3 10 9 10 .93 0 2.2-.23 3.8-.7 1.6-.47 2.87-.7 3.8-.7 1.73 0 3.2.73 4.4 2.2 1.2 1.47 1.8 3.33 1.8 5.6 0 2.8-1.6 5.2-4.8 7.2-3.2 2-6.8 3-10.8 3-4.4 0-8.43-.47-12.1-1.4-3.67-.93-6.93-3.3-9.8-7.1-2.87-3.8-4.3-9.57-4.3-17.3v-60.4h-11.6c-2.53 0-4.63-.83-6.3-2.5s-2.5-3.77-2.5-6.3.83-4.6 2.5-6.2c1.67-1.6 3.77-2.4 6.3-2.4h11.6v-16.8c0-2.67.9-4.93 2.7-6.8 1.8-1.87 4.1-2.8 6.9-2.8s4.9.93 6.7 2.8c1.8 1.87 2.7 4.13 2.7 6.8v16.8h16.6c2.53 0 4.63.83 6.3 2.5s2.5 3.77 2.5 6.3-.83 4.6-2.5 6.2c-1.67 1.6-3.77 2.4-6.3 2.4h-16.6Zm136.6 35.9c-1.87 1.67-4.07 2.5-6.6 2.5h-70.4c.93 9.73 4.63 17.53 11.1 23.4 6.47 5.87 14.37 8.8 23.7 8.8 6.4 0 11.6-.93 15.6-2.8 4-1.87 7.53-4.27 10.6-7.2 2-1.2 3.93-1.8 5.8-1.8 2.27 0 4.17.8 5.7 2.4 1.53 1.6 2.3 3.47 2.3 5.6 0 2.8-1.33 5.33-4 7.6-3.87 3.87-9 7.13-15.4 9.8-6.4 2.67-12.93 4-19.6 4-10.8 0-20.3-2.27-28.5-6.8-8.2-4.53-14.53-10.87-19-19-4.47-8.13-6.7-17.33-6.7-27.6 0-11.2 2.3-21.03 6.9-29.5 4.6-8.46 10.67-14.96 18.2-19.5 7.53-4.53 15.63-6.8 24.3-6.8s16.53 2.2 24 6.6c7.47 4.4 13.47 10.47 18 18.2 4.53 7.73 6.87 16.4 7 26-.13 2.4-1.13 4.43-3 6.1Zm-65.4-33c-5.47 4.2-9.07 10.7-10.8 19.5h59v-1.6c-.67-7.07-3.83-12.87-9.5-17.4-5.67-4.53-12.1-6.8-19.3-6.8s-13.93 2.1-19.4 6.3Zm162.3-18.9c7 3.33 10.5 7.6 10.5 12.8 0 2.27-.73 4.3-2.2 6.1-1.47 1.8-3.33 2.7-5.6 2.7-1.73 0-3.1-.27-4.1-.8-1-.53-2.37-1.4-4.1-2.6-.8-.8-2.07-1.73-3.8-2.8-1.6-.8-3.87-1.47-6.8-2-2.93-.53-5.6-.8-8-.8-6.93 0-13.07 1.6-18.4 4.8-5.33 3.2-9.47 7.63-12.4 13.3-2.93 5.67-4.4 11.97-4.4 18.9s1.43 13.4 4.3 19 6.9 10 12.1 13.2c5.2 3.2 11.13 4.8 17.8 4.8s12.53-1.07 16.8-3.2c.93-.53 2.2-1.4 3.8-2.6 1.33-1.07 2.5-1.87 3.5-2.4 1-.53 2.23-.8 3.7-.8 2.67 0 4.77.83 6.3 2.5 1.53 1.67 2.3 3.83 2.3 6.5 0 2.8-1.77 5.57-5.3 8.3-3.53 2.73-8.27 4.97-14.2 6.7-5.93 1.73-12.3 2.6-19.1 2.6-10.13 0-19.07-2.37-26.8-7.1-7.73-4.73-13.7-11.27-17.9-19.6-4.2-8.33-6.3-17.63-6.3-27.9s2.2-19.57 6.6-27.9c4.4-8.33 10.53-14.87 18.4-19.6 7.87-4.73 16.87-7.1 27-7.1s19.3 1.67 26.3 5Zm118.3 39.2v53.4c0 2.67-.9 4.93-2.7 6.8-1.8 1.87-4.1 2.8-6.9 2.8s-4.9-.93-6.7-2.8c-1.8-1.87-2.7-4.13-2.7-6.8v-53.4c0-17.33-7.33-26-22-26-7.87 0-14.4 2.5-19.6 7.5s-7.8 11.17-7.8 18.5v53.4c0 2.67-.9 4.93-2.7 6.8-1.8 1.87-4.1 2.8-6.9 2.8s-5.07-.9-6.8-2.7c-1.73-1.8-2.6-4.1-2.6-6.9v-128.8c0-2.67.9-4.93 2.7-6.8 1.8-1.87 4.03-2.8 6.7-2.8 2.8 0 5.1.93 6.9 2.8 1.8 1.87 2.7 4.13 2.7 6.8v50.6c3.33-5.2 8-9.63 14-13.3s12.4-5.5 19.2-5.5c23.46 0 35.2 14.53 35.2 43.6Z" class="l"/></g></svg>