<svg xmlns="http://www.w3.org/2000/svg" id="d" viewBox="0 0 3072 512"><defs><style>.f{fill:#fff}</style></defs><path d="M280.57 172c16.38 10.44 29.28 24.89 38.66 43.36 9.39 18.48 14.08 39.34 14.08 62.58s-4.7 44.25-14.08 63.03c-9.39 18.77-22.28 33.38-38.66 43.81-16.39 10.43-34.42 15.64-54.09 15.64-15.5 0-29.95-3.43-43.36-10.28s-24.29-15.35-32.63-25.48v12.96c0 5.96-2.01 11.03-6.03 15.2s-9.16 6.26-15.42 6.26-10.95-2.01-14.97-6.03c-4.02-4.02-6.03-9.16-6.03-15.42V86.62c0-6.26 1.94-11.4 5.81-15.42 3.87-4.02 8.94-6.03 15.2-6.03s11.4 2.09 15.42 6.26c4.02 4.18 6.03 9.24 6.03 15.2V195.7c7.15-10.73 17.58-19.96 31.29-27.71 13.7-7.75 28.31-11.62 43.8-11.62 20.26 0 38.59 5.22 54.98 15.64Zm-22.8 178.13c11.02-7.3 19.59-17.28 25.7-29.95 6.11-12.66 9.16-26.74 9.16-42.24s-3.06-29.5-9.16-42.02c-6.11-12.52-14.68-22.35-25.7-29.5-11.03-7.15-23.4-10.73-37.1-10.73s-26.53 3.58-37.55 10.73c-11.03 7.15-19.6 16.92-25.7 29.28-6.11 12.37-9.16 26.45-9.16 42.24s3.05 29.95 9.16 42.46c6.1 12.52 14.67 22.43 25.7 29.73 11.02 7.31 23.54 10.95 37.55 10.95s26.07-3.65 37.1-10.95Zm179.24 39.56c-4.18 4.18-9.24 6.26-15.2 6.26s-10.95-2.08-14.97-6.26c-4.02-4.17-6.03-9.23-6.03-15.2V86.62c0-5.96 2.08-11.02 6.26-15.2 4.17-4.17 9.23-6.26 15.2-6.26s10.95 2.09 14.97 6.26c4.02 4.18 6.04 9.24 6.04 15.2v287.87c0 5.96-2.09 11.03-6.26 15.2Zm294.13-48.28c-10.43 18.48-24.66 32.93-42.69 43.36-18.03 10.43-37.92 15.64-59.67 15.64s-41.65-5.21-59.67-15.64c-18.03-10.43-32.26-24.88-42.69-43.36-10.43-18.47-15.65-39.34-15.65-62.58s5.21-44.25 15.65-63.03c10.43-18.77 24.65-33.37 42.69-43.81 18.03-10.43 37.92-15.64 59.67-15.64s41.64 5.22 59.67 15.64c18.03 10.44 32.25 25.03 42.69 43.81 10.43 18.77 15.65 39.78 15.65 63.03s-5.22 44.11-15.65 62.58Zm-36.88-105.72c-6.71-12.66-15.8-22.5-27.27-29.5-11.47-7-24.21-10.5-38.22-10.5s-26.75 3.51-38.22 10.5c-11.48 7.01-20.56 16.84-27.27 29.5-6.7 12.67-10.06 27.04-10.06 43.14s3.35 29.95 10.06 42.46c6.71 12.52 15.79 22.28 27.27 29.28 11.47 7.01 24.21 10.5 38.22 10.5s26.74-3.5 38.22-10.5c11.47-7 20.56-16.76 27.27-29.28 6.71-12.52 10.06-26.67 10.06-42.46s-3.35-30.47-10.06-43.14Zm327.64-71.07c4.02 4.02 6.03 9.32 6.03 15.87v196.68c0 24.14-5.14 44.32-15.42 60.57-10.28 16.24-24.21 28.23-41.79 35.98-17.59 7.75-37.4 11.62-59.45 11.62-11.92 0-25.86-2.09-41.79-6.26-15.95-4.18-26.15-8.49-30.62-12.96-9.24-4.77-13.86-10.73-13.86-17.88 0-1.79.59-4.18 1.79-7.15 3.28-7.45 8.79-11.18 16.54-11.18 3.87 0 8.05.89 12.52 2.68 23.84 9.23 42.46 13.86 55.88 13.86 23.84 0 42.09-5.74 54.76-17.21 12.66-11.48 19-27.2 19-47.16v-24.14c-6.26 11.62-16.76 21.61-31.51 29.95s-30.33 12.52-46.71 12.52c-20.56 0-39.34-5.21-56.32-15.64-16.99-10.43-30.33-24.96-40.01-43.58-9.69-18.62-14.53-39.56-14.53-62.8s4.84-44.18 14.53-62.8c9.68-18.62 22.94-33.15 39.78-43.58 16.83-10.43 35.38-15.64 55.65-15.64 16.39 0 31.66 3.73 45.82 11.17 14.15 7.45 25.25 16.54 33.3 27.27v-14.3c0-6.26 1.93-11.47 5.81-15.65 3.87-4.17 8.94-6.26 15.2-6.26s11.4 2.01 15.42 6.04Zm-70.85 185.95c11.32-7 20.19-16.83 26.6-29.5 6.4-12.66 9.61-26.89 9.61-42.69s-3.21-29.95-9.61-42.46c-6.41-12.52-15.27-22.35-26.6-29.5-11.33-7.15-24.29-10.73-38.89-10.73s-27.12 3.58-38.44 10.73c-11.33 7.15-20.19 17.06-26.6 29.72-6.41 12.67-9.61 26.75-9.61 42.24s3.2 29.58 9.61 42.24c6.4 12.67 15.27 22.57 26.6 29.73 11.32 7.15 24.14 10.73 38.44 10.73s27.56-3.5 38.89-10.5Z" class="f"/><path d="M1104.6 389.69c-3.73-3.87-5.59-9.53-5.59-16.99v-8.49c0-7.15 1.86-12.66 5.59-16.54 3.72-3.87 9.16-5.81 16.32-5.81h4.47c7.45 0 13.03 1.94 16.76 5.81 3.72 3.88 5.59 9.39 5.59 16.54v8.49c0 15.2-7.45 22.8-22.35 22.8h-4.47c-7.15 0-12.59-1.93-16.32-5.81Z" style="fill:#79b4e4"/><path d="M1201.82 347.22c0-5.96 3.13-11.02 9.39-15.2 2.97-2.08 6.4-3.13 10.28-3.13 5.36 0 10.28 2.24 14.75 6.7 8.94 10.13 18.55 17.73 28.83 22.8 10.28 5.07 22.57 7.6 36.88 7.6 11.32-.29 21.3-2.91 29.95-7.82 8.64-4.92 12.96-12.89 12.96-23.91 0-10.13-4.4-17.88-13.19-23.24-8.79-5.36-21.68-10.28-38.67-14.75-16.69-4.47-30.55-9.16-41.57-14.08-11.03-4.92-20.34-12.07-27.94-21.46-7.6-9.39-11.4-21.68-11.4-36.88 0-13.41 3.8-25.18 11.4-35.31 7.6-10.13 17.73-18.03 30.4-23.69 12.66-5.66 26.44-8.49 41.35-8.49s28.53 2.68 42.69 8.05c14.15 5.36 25.7 13.56 34.64 24.58 3.58 4.18 5.36 8.49 5.36 12.96 0 4.77-2.39 9.39-7.15 13.86-2.98 2.68-6.7 4.02-11.17 4.02-5.36 0-9.69-1.79-12.96-5.36-6.26-7.15-13.93-12.66-23.02-16.54-9.09-3.87-19.15-5.81-30.17-5.81s-20.94 2.31-28.83 6.93c-7.9 4.62-11.85 12.45-11.85 23.47.29 10.43 4.84 18.18 13.63 23.24 8.79 5.07 22.27 9.99 40.45 14.75 15.79 4.18 28.9 8.65 39.34 13.41 10.43 4.77 19.22 11.85 26.37 21.23 7.15 9.39 10.73 21.68 10.73 36.88 0 14.01-4.02 26.15-12.07 36.43s-18.55 18.18-31.51 23.69-26.75 8.27-41.35 8.27c-18.77 0-36.14-3.28-52.08-9.83-15.95-6.55-29.43-16.99-40.45-31.29-2.68-4.17-4.02-8.19-4.02-12.07Zm437.16 15.2c3.87 3.88 5.81 8.65 5.81 14.3s-1.94 10.28-5.81 13.86c-3.88 3.58-8.65 5.36-14.3 5.36h-158.69c-5.96 0-10.88-1.86-14.75-5.59-3.88-3.72-5.81-8.72-5.81-14.97 0-5.36 2.08-10.43 6.26-15.2l99.68-108.17c27.71-29.5 41.57-55.58 41.57-78.23 0-16.09-5.29-29.42-15.87-40.01-10.58-10.57-24.07-15.87-40.45-15.87-11.03 0-21.61 3.13-31.74 9.39-10.13 6.26-18.33 15.2-24.58 26.82-4.77 6.26-10.44 9.39-16.99 9.39-5.07 0-9.83-1.94-14.3-5.81-4.47-3.87-6.71-8.34-6.71-13.41 0-3.28 1.12-6.71 3.35-10.28 2.23-3.58 5.43-7.75 9.61-12.52 9.83-13.11 22.35-23.54 37.55-31.29 15.2-7.75 30.54-11.62 46.04-11.62 19.96 0 37.25 4.02 51.85 12.07 14.6 8.05 25.85 19.07 33.75 33.08 7.89 14.01 11.85 30.1 11.85 48.28 0 34.27-18.48 71.23-55.43 110.86l-67.5 73.75h111.3c5.66 0 10.43 1.94 14.3 5.81Zm268.2-109.51v121.58c0 5.96-2.01 11.03-6.03 15.2-4.02 4.18-9.16 6.26-15.42 6.26s-10.95-2.08-14.97-6.26c-4.02-4.17-6.03-9.23-6.03-15.2V253.35c0-17.58-4.02-31.58-12.07-42.02-8.05-10.43-21.16-15.64-39.34-15.64-11.92 0-22.73 2.61-32.41 7.82-9.69 5.22-17.29 12.22-22.8 21.01-5.52 8.79-8.27 18.4-8.27 28.83v121.14c0 5.96-2.01 11.03-6.03 15.2-4.02 4.18-9.16 6.26-15.42 6.26s-11.33-2.01-15.2-6.04c-3.88-4.02-5.81-9.16-5.81-15.42V183.17c0-5.96 2.01-11.02 6.03-15.2 4.02-4.17 9.01-6.26 14.97-6.26 6.26 0 11.4 2.09 15.42 6.26 4.02 4.18 6.03 9.24 6.03 15.2v15.64c7.75-11.92 18.55-21.97 32.41-30.17 13.86-8.19 28.68-12.29 44.48-12.29 53.64 0 80.46 32.18 80.46 96.55Z" class="f"/><path d="M1984.28 389.69c-3.73-3.87-5.59-9.53-5.59-16.99v-8.49c0-7.15 1.86-12.66 5.59-16.54 3.72-3.87 9.16-5.81 16.32-5.81h4.47c7.45 0 13.03 1.94 16.76 5.81 3.72 3.88 5.59 9.39 5.59 16.54v8.49c0 15.2-7.45 22.8-22.35 22.8h-4.47c-7.15 0-12.59-1.93-16.32-5.81Z" style="fill:#ff99c3"/><path d="M2162.41 203.29V336.5c0 14.9 6.71 22.35 20.12 22.35 2.08 0 4.92-.52 8.49-1.56 3.58-1.04 6.4-1.56 8.49-1.56 3.87 0 7.15 1.64 9.83 4.92 2.68 3.28 4.02 7.45 4.02 12.52 0 6.26-3.58 11.62-10.73 16.09-7.15 4.47-15.2 6.71-24.14 6.71-9.83 0-18.85-1.04-27.04-3.13-8.2-2.08-15.5-7.38-21.9-15.87-6.41-8.49-9.61-21.38-9.61-38.67V203.31h-25.93c-5.67 0-10.36-1.86-14.08-5.59-3.73-3.72-5.59-8.42-5.59-14.08s1.86-10.28 5.59-13.86c3.72-3.58 8.42-5.36 14.08-5.36h25.93v-37.55c0-5.96 2.01-11.02 6.03-15.2 4.02-4.17 9.16-6.26 15.42-6.26s10.95 2.09 14.97 6.26c4.02 4.18 6.03 9.24 6.03 15.2v37.55h37.1c5.66 0 10.35 1.86 14.08 5.59 3.72 3.73 5.59 8.42 5.59 14.08s-1.87 10.28-5.59 13.86c-3.73 3.58-8.42 5.36-14.08 5.36h-37.1Zm320.05 80.24c-4.18 3.73-9.09 5.59-14.75 5.59h-157.34c2.08 21.76 10.35 39.19 24.81 52.3 14.45 13.12 32.11 19.67 52.97 19.67 14.3 0 25.93-2.08 34.87-6.26 8.94-4.17 16.83-9.53 23.69-16.09 4.47-2.68 8.79-4.02 12.96-4.02 5.06 0 9.31 1.79 12.74 5.36 3.42 3.58 5.14 7.75 5.14 12.52 0 6.26-2.98 11.92-8.94 16.99-8.65 8.65-20.12 15.95-34.42 21.9-14.3 5.96-28.91 8.94-43.81 8.94-24.14 0-45.37-5.06-63.7-15.2-18.33-10.13-32.48-24.28-42.46-42.46-9.99-18.17-14.97-38.73-14.97-61.69 0-25.03 5.14-47 15.42-65.93 10.28-18.92 23.84-33.45 40.68-43.58 16.83-10.13 34.94-15.2 54.31-15.2s36.95 4.92 53.64 14.75c16.69 9.83 30.1 23.4 40.23 40.68 10.13 17.29 15.34 36.65 15.65 58.11-.3 5.37-2.54 9.91-6.71 13.63Zm-146.17-73.76c-12.22 9.39-20.27 23.91-24.14 43.58h131.87v-3.58c-1.49-15.79-8.57-28.75-21.23-38.89-12.67-10.13-27.04-15.2-43.14-15.2s-31.14 4.69-43.36 14.08Zm377.48-42.24c15.64 7.45 23.47 16.99 23.47 28.61 0 5.07-1.64 9.61-4.92 13.63-3.28 4.02-7.45 6.04-12.52 6.04-3.88 0-6.93-.59-9.16-1.79-2.24-1.19-5.29-3.13-9.16-5.81-1.79-1.79-4.62-3.87-8.49-6.26-3.58-1.79-8.65-3.28-15.2-4.47-6.56-1.19-12.52-1.79-17.88-1.79-15.5 0-29.21 3.58-41.12 10.73-11.92 7.15-21.16 17.06-27.71 29.72-6.56 12.67-9.83 26.75-9.83 42.24s3.2 29.95 9.61 42.46c6.4 12.52 15.42 22.35 27.04 29.5s24.88 10.73 39.78 10.73 28.01-2.38 37.55-7.15c2.08-1.19 4.92-3.13 8.49-5.81 2.98-2.38 5.59-4.17 7.82-5.36 2.24-1.19 4.99-1.79 8.27-1.79 5.96 0 10.65 1.86 14.08 5.59 3.42 3.73 5.14 8.57 5.14 14.53 0 6.26-3.95 12.45-11.85 18.55-7.9 6.11-18.48 11.1-31.74 14.97-13.26 3.87-27.49 5.81-42.69 5.81-22.65 0-42.62-5.29-59.9-15.87-17.29-10.57-30.62-25.18-40.01-43.81-9.39-18.62-14.08-39.41-14.08-62.36s4.92-43.73 14.75-62.36c9.83-18.62 23.54-33.22 41.12-43.81 17.58-10.57 37.7-15.87 60.35-15.87s43.13 3.73 58.78 11.17Zm279.15 87.61v119.35c0 5.96-2.01 11.03-6.04 15.2-4.02 4.18-9.16 6.26-15.42 6.26s-10.95-2.08-14.97-6.26c-4.02-4.17-6.03-9.23-6.03-15.2V255.14c0-38.74-16.39-58.11-49.17-58.11-17.59 0-32.18 5.59-43.81 16.76-11.62 11.17-17.43 24.96-17.43 41.35v119.35c0 5.96-2.01 11.03-6.03 15.2-4.02 4.18-9.16 6.26-15.42 6.26s-11.33-2.01-15.2-6.04c-3.88-4.02-5.81-9.16-5.81-15.42V86.62c0-5.96 2.01-11.02 6.03-15.2 4.02-4.17 9.01-6.26 14.97-6.26 6.26 0 11.4 2.09 15.42 6.26 4.02 4.18 6.03 9.24 6.03 15.2v113.09c7.45-11.62 17.88-21.53 31.29-29.73 13.41-8.19 27.71-12.29 42.91-12.29 52.45 0 78.67 32.48 78.67 97.45Z" class="f"/></svg>