<svg xmlns="http://www.w3.org/2000/svg" viewBox="0 0 1200 630"><path d="M-1-1h1202v632H-1z" style="fill:#121c26"/><g style="opacity:.8"><path d="m1217.5 188.5-188.5 100" style="fill:none;stroke-linecap:round;stroke-miterlimit:10;stroke-width:5px;stroke:#bcdc54"/><path d="m1218.5 246.5-89.57 47.6" style="stroke:#79b4e4;fill:none;stroke-linecap:round;stroke-miterlimit:10;stroke-width:5px"/><path d="M1218.5 312.5 981.65 438.53" style="stroke:#ff99c3;fill:none;stroke-linecap:round;stroke-miterlimit:10;stroke-width:5px"/><path d="m1013.43 318.94-10.46-1.09c-1.07-.11-2.12.31-2.82 1.13l-6.83 8c-1.76 2.06-5.11 1.21-5.67-1.44l-2.19-10.28a3.248 3.248 0 0 0-1.94-2.33l-9.71-4.02c-2.5-1.03-2.73-4.49-.39-5.84l9.1-5.26a3.26 3.26 0 0 0 1.62-2.57l.82-10.48c.21-2.7 3.42-3.98 5.44-2.17l7.82 7.03c.8.72 1.9 1 2.94.75l10.22-2.46c2.63-.63 4.84 2.03 3.74 4.5l-4.27 9.61c-.44.98-.36 2.11.2 3.03l5.5 8.96c1.41 2.31-.43 5.23-3.12 4.95Z" style="fill:#bcdc54"/><path d="m1114.87 318.44-10.48-.8c-1.07-.08-2.11.37-2.79 1.2l-6.6 8.18c-1.7 2.1-5.07 1.35-5.71-1.28l-4.49-12.42c-.25-1.04 1.01.3 0-.08l-9.82-3.75c-2.53-.97-2.85-4.41-.55-5.83l8.95-5.51c.91-.56 1.49-1.54 1.55-2.61l.53-10.5c.14-2.7 3.31-4.07 5.37-2.32l8.01 6.81c.82.7 1.93.94 2.96.66l10.15-2.74c2.61-.7 4.9 1.89 3.87 4.39l-4 9.72c-.41.99-.3 2.12.28 3.02l5.74 8.81c1.48 2.27-.29 5.24-2.98 5.04Z" style="fill:#79b4e4"/><path d="m970.14 437.82-4.89 9.31c-.5.95-.5 2.09 0 3.04l4.89 9.31c1.26 2.39-.77 5.19-3.44 4.74l-10.36-1.78c-1.06-.18-2.14.17-2.89.94l-7.34 7.53c-1.89 1.94-5.18.87-5.57-1.81l-1.51-10.41a3.26 3.26 0 0 0-1.79-2.46l-9.43-4.65c-2.43-1.2-2.43-4.66 0-5.85l9.43-4.65a3.29 3.29 0 0 0 1.79-2.46l1.51-10.41c.39-2.68 3.68-3.75 5.57-1.81l7.34 7.53c.75.77 1.83 1.12 2.89.94l10.36-1.78c2.67-.46 4.7 2.34 3.44 4.74Z" style="fill:#ff99c3"/></g></svg>